<?xml version="1.0" standalone="no"?>
<!DOCTYPE svg PUBLIC "-//W3C//DTD SVG 1.1//EN" "http://www.w3.org/Graphics/SVG/1.1/DTD/svg11.dtd" >
<svg>
<metadata>
Created by FontForge 20120731 at Wed Oct 26 06:31:02 2016
 By www-data
Copyright 2013 Monotype Imaging Inc. All rights reserved.
</metadata>
<defs>
<font id="XenoisSoftPro-Bold" horiz-adv-x="280" >
  <font-face 
    font-family="Xenois Soft Pro"
    font-weight="700"
    font-stretch="normal"
    units-per-em="1000"
    panose-1="2 15 8 6 3 5 4 2 2 4"
    ascent="756"
    descent="-244"
    x-height="512"
    cap-height="689"
    bbox="-121 -224 1465 910"
    underline-thickness="50"
    underline-position="-50"
    stemh="106"
    stemv="146"
    unicode-range="U+000D-FB04"
  />
<missing-glyph horiz-adv-x="512" 
d="M278 117h-56v67h56v-67zM271 234h-46l-2 17c0 75 13 94 59 140c43 43 50 57 50 83c0 48 -35 85 -76 85s-74 -27 -82 -95l-50 8c9 96 63 137 135 137s124 -51 124 -131c0 -43 -12 -73 -63 -120c-51 -45 -49 -52 -49 -124zM50 50h412v617h-412v-617zM0 718h512v-718h-512
v718z" />
    <glyph glyph-name="f_f" unicode="ff" horiz-adv-x="756" 
d="M732 681c0 -36 -24 -53 -50 -53c-7 0 -36 2 -46 2c-53 0 -65 -36 -65 -88v-30h94c45 0 60 -21 60 -53c0 -34 -16 -53 -62 -53h-92v-352c0 -40 -20 -63 -74 -63s-72 23 -72 63v352h-212v-352c0 -40 -20 -63 -74 -63s-72 23 -72 63v476c0 112 26 206 190 206
c23 0 63 -3 73 -5c28 -6 45 -20 45 -50c0 -36 -25 -53 -51 -53c-7 0 -36 2 -46 2c-53 0 -65 -36 -65 -88v-30h212v24c0 112 26 200 190 200c23 0 63 -3 73 -5c28 -6 44 -20 44 -50z" />
    <glyph glyph-name="f_f_i" unicode="ffi" horiz-adv-x="1003" 
d="M948 657c0 -48 -22 -75 -86 -75s-84 27 -84 75c0 46 24 72 86 72s84 -26 84 -72zM936 449v-395c0 -40 -20 -63 -74 -63s-72 23 -72 63v352h-224v-352c0 -40 -20 -63 -74 -63s-72 23 -72 63v352h-207v-352c0 -40 -20 -63 -74 -63s-72 23 -72 63v476c0 112 26 206 190 206
c23 0 63 -3 73 -5c28 -6 45 -20 45 -50c0 -36 -25 -53 -51 -53c-7 0 -36 2 -46 2c-53 0 -65 -36 -65 -88v-30h207v24c0 112 26 200 190 200c23 0 63 -3 73 -5c28 -6 44 -20 44 -50c0 -36 -24 -53 -50 -53c-7 0 -36 2 -46 2c-53 0 -65 -36 -65 -88v-30h298
c54 0 72 -23 72 -63z" />
    <glyph glyph-name="f_f_l" unicode="ffl" horiz-adv-x="1003" 
d="M936 670v-616c0 -40 -20 -63 -74 -63s-72 23 -72 63v352h-224v-352c0 -40 -20 -63 -74 -63s-72 23 -72 63v352h-207v-352c0 -40 -20 -63 -74 -63s-72 23 -72 63v476c0 112 26 206 190 206c23 0 63 -3 73 -5c28 -6 45 -20 45 -50c0 -36 -25 -53 -51 -53c-7 0 -36 2 -46 2
c-53 0 -65 -36 -65 -88v-30h207v24c0 112 26 200 190 200c23 0 63 -3 73 -5c28 -6 44 -20 44 -50c0 -36 -24 -53 -50 -53c-7 0 -36 2 -46 2c-53 0 -65 -36 -65 -88v-30h224v158c0 40 20 63 74 63s72 -23 72 -63z" />
    <glyph glyph-name="f_i" unicode="fi" horiz-adv-x="645" 
d="M591 657c0 -48 -22 -75 -86 -75s-85 27 -85 75c0 46 24 72 86 72s85 -26 85 -72zM579 449v-395c0 -40 -20 -63 -74 -63s-73 23 -73 63v352h-219v-352c0 -40 -20 -63 -74 -63s-72 23 -72 63v476c0 112 26 206 190 206c23 0 63 -3 73 -5c28 -6 45 -20 45 -50
c0 -36 -25 -53 -51 -53c-7 0 -36 2 -46 2c-53 0 -65 -36 -65 -88v-30h293c54 0 73 -23 73 -63z" />
    <glyph glyph-name="f_l" unicode="fl" horiz-adv-x="645" 
d="M579 670v-616c0 -40 -20 -63 -74 -63s-73 23 -73 63v352h-219v-352c0 -40 -20 -63 -74 -63s-72 23 -72 63v476c0 112 26 206 190 206c23 0 63 -3 73 -5c28 -6 45 -20 45 -50c0 -36 -25 -53 -51 -53c-7 0 -36 2 -46 2c-53 0 -65 -36 -65 -88v-30h219v158c0 40 20 63 74 63
s73 -23 73 -63z" />
    <glyph glyph-name=".notdef" horiz-adv-x="512" 
d="M278 117h-56v67h56v-67zM271 234h-46l-2 17c0 75 13 94 59 140c43 43 50 57 50 83c0 48 -35 85 -76 85s-74 -27 -82 -95l-50 8c9 96 63 137 135 137s124 -51 124 -131c0 -43 -12 -73 -63 -120c-51 -45 -49 -52 -49 -124zM50 50h412v617h-412v-617zM0 718h512v-718h-512
v718z" />
    <glyph glyph-name="space" unicode=" " horiz-adv-x="308" 
 />
    <glyph glyph-name=".null" horiz-adv-x="0" 
 />
    <glyph glyph-name=".null" horiz-adv-x="0" 
 />
    <glyph glyph-name="CR" unicode="&#xd;" horiz-adv-x="308" 
 />
    <glyph glyph-name="exclam" unicode="!" horiz-adv-x="309" 
d="M230 630c0 -8 -2 -30 -2 -37l-14 -326c-2 -41 -20 -65 -60 -65s-58 24 -60 65l-14 326c0 7 -1 29 -1 37c0 38 24 59 75 59s76 -22 76 -59zM235 69c0 -51 -21 -81 -81 -81c-59 0 -80 30 -80 81c0 48 23 78 80 78s81 -30 81 -78z" />
    <glyph glyph-name="quotedbl" unicode="&#x22;" horiz-adv-x="455" 
d="M367 641v-210c0 -30 -15 -48 -54 -48s-54 18 -54 48v210c0 30 16 48 55 48s53 -18 53 -48zM195 641v-210c0 -30 -15 -48 -54 -48s-54 18 -54 48v210c0 30 16 48 55 48s53 -18 53 -48z" />
    <glyph glyph-name="numbersign" unicode="#" horiz-adv-x="616" 
d="M603 461c0 -35 -15 -53 -51 -53h-48l-27 -136h28c36 0 51 -17 51 -52s-15 -52 -51 -52h-49l-25 -112c-9 -41 -28 -65 -77 -65c-40 0 -56 16 -56 45c0 6 1 13 2 20l24 112h-103l-24 -112c-9 -41 -29 -65 -78 -65c-40 0 -55 16 -55 45c0 6 1 13 2 20l24 112h-26
c-36 0 -51 16 -51 51s15 53 51 53h47l27 136h-28c-36 0 -50 17 -50 52s14 52 50 52h50l24 112c9 41 28 65 77 65c40 0 56 -16 56 -45c0 -6 -1 -13 -2 -20l-23 -112h102l25 112c9 41 29 65 78 65c40 0 55 -16 55 -45c0 -6 -1 -13 -2 -20l-24 -112h26c36 0 51 -16 51 -51z
M346 272l28 136h-104l-29 -136h105z" />
    <glyph glyph-name="dollar" unicode="$" horiz-adv-x="616" 
d="M536 242c0 -100 -52 -151 -162 -165v-29c0 -36 -18 -57 -67 -57s-66 21 -66 57v27c-47 2 -87 9 -111 14c-31 7 -51 20 -51 51c0 35 28 49 58 49c26 0 90 -13 141 -13c78 0 106 15 106 49c0 38 -26 55 -126 67c-112 14 -179 46 -179 156c0 96 66 141 162 155v29
c0 36 18 57 67 57s66 -21 66 -57v-25c38 -2 71 -9 92 -13c31 -6 52 -19 52 -50c0 -35 -28 -49 -58 -49c-24 0 -87 11 -126 11c-82 0 -106 -19 -106 -50c0 -33 26 -47 129 -61c118 -16 179 -46 179 -153z" />
    <glyph glyph-name="percent" unicode="%" horiz-adv-x="1231" 
d="M1101 204c0 -137 -45 -212 -182 -212s-179 75 -179 212c0 133 49 204 183 204s178 -72 178 -204zM813 659c0 -9 -3 -21 -9 -35l-253 -568c-18 -41 -45 -65 -90 -65c-30 0 -43 11 -43 30c0 9 3 21 9 35l254 568c18 41 44 65 89 65c30 0 43 -11 43 -30zM491 484
c0 -137 -45 -212 -182 -212s-179 75 -179 212c0 133 49 204 183 204s178 -72 178 -204zM987 204c0 70 -6 128 -66 128s-67 -58 -67 -128c0 -74 6 -136 67 -136s66 62 66 136zM378 484c0 70 -7 128 -67 128s-67 -58 -67 -128c0 -74 6 -136 67 -136s67 62 67 136z" />
    <glyph glyph-name="ampersand" unicode="&#x26;" horiz-adv-x="720" 
d="M681 25c0 -19 -11 -34 -60 -34c-66 0 -96 14 -114 34l-15 16c-29 -26 -109 -53 -204 -53c-204 0 -254 80 -254 197c0 82 53 139 138 176c-54 56 -82 103 -82 163c0 103 53 168 212 168c63 0 116 -9 146 -18c26 -8 43 -22 43 -53c0 -32 -18 -53 -49 -53
c-23 0 -64 14 -103 14c-73 0 -97 -26 -97 -57c0 -27 21 -54 88 -124l169 -175c16 25 28 73 33 132c3 36 23 60 72 60c51 0 69 -22 69 -63c0 -67 -38 -176 -81 -223l53 -55c23 -24 36 -38 36 -52zM404 127l-157 160c-37 -16 -65 -51 -65 -98s21 -96 109 -96
c45 0 95 17 113 34z" />
    <glyph glyph-name="quotesingle" unicode="'" horiz-adv-x="308" 
d="M220 638v-204c0 -30 -19 -51 -67 -51s-66 21 -66 51v204c0 30 19 51 67 51s66 -21 66 -51z" />
    <glyph glyph-name="parenleft" unicode="(" horiz-adv-x="348" 
d="M292 21c0 -19 -17 -30 -51 -30c-55 0 -82 22 -109 65c-47 75 -87 180 -87 291c0 100 45 210 87 277c25 40 53 65 108 65c34 0 52 -11 52 -30c0 -9 -2 -22 -10 -35c-43 -74 -81 -182 -81 -277c0 -106 36 -208 81 -291c8 -14 10 -26 10 -35z" />
    <glyph glyph-name="parenright" unicode=")" horiz-adv-x="348" 
d="M304 347c0 -111 -40 -216 -87 -291c-27 -43 -54 -65 -109 -65c-34 0 -52 11 -52 30c0 9 2 21 10 35c45 83 81 185 81 291c0 95 -37 203 -80 277c-8 13 -11 26 -11 35c0 19 18 30 52 30c55 0 84 -25 109 -65c42 -67 87 -177 87 -277z" />
    <glyph glyph-name="asterisk" unicode="*" horiz-adv-x="462" 
d="M410 535c0 -27 -10 -40 -40 -40c-23 0 -52 3 -76 5c16 -21 33 -43 46 -65c5 -9 8 -16 8 -23c0 -19 -32 -40 -50 -40c-11 0 -21 7 -30 23c-14 23 -25 52 -37 76c-12 -24 -24 -53 -38 -76c-9 -16 -19 -22 -30 -22c-18 0 -49 19 -49 38c0 7 3 15 8 24c12 21 30 44 45 65
c-24 -2 -51 -5 -75 -5c-30 0 -40 13 -40 40s10 40 40 40c23 0 53 -4 76 -6c-15 20 -33 43 -46 65c-5 9 -8 17 -8 24c0 19 31 39 49 39c11 0 21 -7 30 -23c14 -23 26 -52 38 -75c9 19 25 55 37 75c9 16 19 23 30 23c18 0 50 -20 50 -39c0 -7 -4 -15 -9 -24
c-13 -22 -29 -44 -45 -65c24 2 53 6 76 6c30 0 40 -13 40 -40z" />
    <glyph glyph-name="plus" unicode="+" horiz-adv-x="616" 
d="M555 259c0 -40 -18 -64 -65 -64h-116v-143c0 -38 -16 -61 -66 -61s-67 23 -67 61v143h-116c-47 0 -65 24 -65 64s18 64 65 64h116v137c0 38 17 61 67 61s66 -23 66 -61v-137h116c47 0 65 -24 65 -64z" />
    <glyph glyph-name="comma" unicode="," horiz-adv-x="308" 
d="M234 69c0 -51 -34 -119 -75 -201c-9 -19 -23 -26 -41 -26c-15 0 -22 8 -22 21c0 5 2 11 5 18l48 107c-53 0 -76 30 -76 81c0 48 24 78 81 78s80 -30 80 -78z" />
    <glyph glyph-name="hyphen" unicode="-" horiz-adv-x="345" 
d="M310 310c0 -40 -18 -64 -65 -64h-145c-47 0 -65 24 -65 64s18 64 65 64h145c47 0 65 -24 65 -64z" />
    <glyph glyph-name="period" unicode="." horiz-adv-x="308" 
d="M234 69c0 -51 -20 -81 -80 -81c-59 0 -81 30 -81 81c0 48 24 78 81 78s80 -30 80 -78z" />
    <glyph glyph-name="slash" unicode="/" horiz-adv-x="308" 
d="M327 698c0 -8 -3 -19 -6 -30l-259 -823c-13 -41 -39 -65 -87 -65c-34 0 -48 12 -48 34c0 9 3 19 7 31l259 823c13 41 37 65 85 65c35 0 49 -13 49 -35z" />
    <glyph glyph-name="zero" unicode="0" horiz-adv-x="616" 
d="M577 341c0 -234 -68 -353 -272 -353c-203 0 -266 120 -266 353c0 224 73 339 272 339s266 -115 266 -339zM420 341c0 115 -9 228 -112 228s-113 -113 -113 -228c0 -123 9 -242 113 -242s112 119 112 242z" />
    <glyph glyph-name="one" unicode="1" horiz-adv-x="616" 
d="M573 58c0 -37 -18 -58 -67 -58h-318c-49 0 -68 21 -68 58s19 57 68 57h85v408l-121 -70c-12 -7 -26 -11 -37 -11c-19 0 -26 17 -26 47c0 35 8 57 44 78l147 86c22 13 47 23 87 23c46 0 62 -20 62 -58v-503h77c49 0 67 -20 67 -57z" />
    <glyph glyph-name="two" unicode="2" horiz-adv-x="616" 
d="M557 58c0 -36 -19 -58 -68 -58h-375c-49 0 -67 21 -67 58c0 30 21 53 55 77c113 81 269 197 269 319c0 62 -25 113 -132 113c-52 0 -87 -12 -115 -12c-31 0 -49 19 -49 51c0 30 17 49 43 55c40 10 105 19 160 19c202 0 247 -90 247 -226c0 -151 -156 -274 -269 -339h233
c49 0 68 -20 68 -57z" />
    <glyph glyph-name="three" unicode="3" horiz-adv-x="616" 
d="M549 210c0 -134 -75 -222 -271 -222c-73 0 -152 10 -193 20c-26 6 -43 24 -43 54c0 32 18 51 49 51s89 -14 149 -14c119 0 157 47 157 111c0 71 -37 115 -116 115c-18 0 -46 -5 -68 -5c-33 0 -48 15 -48 39c0 22 12 39 40 65l146 135h-218c-49 0 -67 20 -67 55
c0 34 18 54 67 54h333c49 0 68 -19 68 -53c0 -28 -22 -54 -51 -80l-142 -126c148 0 208 -66 208 -199z" />
    <glyph glyph-name="four" unicode="4" horiz-adv-x="616" 
d="M553 334v-281c0 -41 -22 -62 -73 -62s-72 21 -72 62v88h-310c-49 0 -68 20 -68 55c0 23 16 55 36 80c47 62 137 216 178 336c14 40 37 65 87 65c48 0 62 -24 62 -61c0 -67 -126 -290 -205 -371h220v89c0 41 22 62 73 62s72 -21 72 -62z" />
    <glyph glyph-name="five" unicode="5" horiz-adv-x="616" 
d="M551 211c0 -137 -76 -223 -272 -223c-68 0 -145 10 -186 20c-26 6 -44 24 -44 54c0 32 19 51 50 51s88 -14 142 -14c119 0 158 48 158 110c0 71 -36 116 -158 116c-41 0 -92 -14 -119 -14c-29 0 -42 17 -42 47v257c0 34 18 53 67 53h318c49 0 68 -20 68 -54
c0 -35 -19 -55 -68 -55h-252v-145c12 3 63 10 108 10c169 0 230 -82 230 -213z" />
    <glyph glyph-name="six" unicode="6" horiz-adv-x="616" 
d="M577 221c0 -160 -95 -233 -273 -233c-180 0 -261 73 -261 233c0 101 53 194 208 403c28 38 58 53 114 53c41 0 57 -12 57 -35c0 -11 -12 -31 -22 -45l-138 -186c15 12 61 28 103 28c149 0 212 -83 212 -218zM424 221c0 56 -27 120 -117 120c-95 0 -118 -64 -118 -120
c0 -65 26 -127 118 -127c93 0 117 61 117 127z" />
    <glyph glyph-name="seven" unicode="7" horiz-adv-x="616" 
d="M562 616c0 -21 -6 -44 -21 -75c-70 -151 -153 -367 -182 -485c-10 -41 -38 -65 -91 -65c-49 0 -67 19 -67 49c0 63 135 390 209 519h-203v-48c0 -39 -22 -62 -67 -62s-62 23 -62 62v103c0 34 19 54 68 54h349c49 0 67 -18 67 -52z" />
    <glyph glyph-name="eight" unicode="8" horiz-adv-x="616" 
d="M577 182c0 -123 -92 -194 -272 -194s-266 71 -266 194c0 85 58 142 150 156c-76 13 -122 68 -122 153c0 121 95 189 244 189c150 0 238 -68 238 -189c0 -80 -54 -127 -122 -139c98 -17 150 -73 150 -170zM411 483c0 43 -24 92 -103 92s-104 -50 -104 -92
c0 -57 35 -94 104 -94s103 38 103 94zM425 200c0 63 -45 95 -117 95c-73 0 -117 -31 -117 -95c0 -53 23 -107 117 -107c95 0 117 54 117 107z" />
    <glyph glyph-name="nine" unicode="9" horiz-adv-x="616" 
d="M573 462c0 -108 -75 -227 -209 -418c-26 -38 -60 -53 -116 -53c-41 0 -58 11 -58 34c0 11 13 32 23 46l141 199c-15 -12 -61 -27 -103 -27c-142 0 -212 87 -212 219c0 137 95 218 273 218c180 0 261 -79 261 -218zM427 464c0 50 -26 110 -118 110
c-93 0 -118 -62 -118 -112c0 -56 26 -121 118 -121c95 0 118 67 118 123z" />
    <glyph glyph-name="colon" unicode=":" horiz-adv-x="308" 
d="M234 446c0 -51 -20 -81 -80 -81c-59 0 -81 30 -81 81c0 48 24 78 81 78s80 -30 80 -78zM234 69c0 -51 -20 -81 -80 -81c-59 0 -81 30 -81 81c0 48 24 78 81 78s80 -30 80 -78z" />
    <glyph glyph-name="semicolon" unicode=";" horiz-adv-x="308" 
d="M234 446c0 -51 -20 -81 -80 -81c-59 0 -81 29 -81 81c0 48 24 78 81 78s80 -30 80 -78zM234 69c0 -51 -34 -119 -75 -201c-9 -19 -23 -26 -41 -26c-15 0 -22 8 -22 21c0 5 2 11 5 18l48 107c-53 0 -76 30 -76 81c0 48 24 78 81 78s80 -30 80 -78z" />
    <glyph glyph-name="less" unicode="&#x3c;" horiz-adv-x="616" 
d="M556 72c0 -48 -17 -66 -57 -66c-8 0 -24 3 -30 6l-365 155c-36 15 -64 39 -64 88s31 76 64 90l365 154c6 3 22 6 30 6c40 0 57 -19 57 -65c0 -37 -22 -53 -51 -65l-296 -117l296 -121c29 -12 51 -27 51 -65z" />
    <glyph glyph-name="equal" unicode="=" horiz-adv-x="616" 
d="M555 362c0 -35 -18 -55 -65 -55h-365c-47 0 -65 20 -65 55s18 56 65 56h365c47 0 65 -21 65 -56zM555 150c0 -35 -18 -56 -65 -56h-365c-47 0 -65 21 -65 56s18 55 65 55h365c47 0 65 -20 65 -55z" />
    <glyph glyph-name="greater" unicode="&#x3e;" horiz-adv-x="616" 
d="M576 255c0 -49 -28 -73 -64 -88l-365 -154c-6 -3 -22 -6 -30 -6c-40 0 -57 17 -57 65c0 38 22 53 51 65l295 121l-296 117c-29 12 -50 28 -50 65c0 46 16 65 56 65c8 0 24 -3 30 -6l366 -154c33 -14 64 -41 64 -90z" />
    <glyph glyph-name="question" unicode="?" horiz-adv-x="460" 
d="M418 507c0 -130 -132 -159 -161 -264c-8 -28 -28 -41 -66 -41c-40 0 -51 16 -51 42c0 136 124 166 124 263c0 41 -14 72 -97 72c-33 0 -72 -10 -93 -10c-30 0 -48 14 -48 52c0 32 19 49 43 55c30 8 78 16 137 16c175 0 212 -71 212 -185zM273 69c0 -51 -21 -81 -81 -81
c-59 0 -80 30 -80 81c0 48 23 78 80 78s81 -30 81 -78z" />
    <glyph glyph-name="at" unicode="@" horiz-adv-x="1017" 
d="M970 330c0 -234 -131 -330 -259 -330c-58 0 -109 33 -109 66c-19 -32 -86 -66 -171 -66c-135 0 -205 81 -205 186c0 118 82 294 329 294c61 0 121 -15 155 -26c31 -10 47 -20 47 -46c0 -9 -3 -20 -4 -26l-49 -203c-2 -10 -4 -20 -4 -28c0 -32 17 -48 41 -48
c57 0 131 72 131 227c0 163 -133 274 -324 274c-225 0 -402 -145 -402 -375c0 -223 144 -365 381 -365c188 0 287 52 321 52c28 0 47 -13 47 -36c0 -26 -17 -40 -40 -50c-67 -29 -201 -54 -330 -54c-350 0 -477 215 -477 453c0 264 199 463 501 463c273 0 421 -162 421 -362
zM551 156l53 207c-14 7 -46 14 -68 14c-106 0 -162 -108 -162 -191c0 -46 23 -83 78 -83c50 0 92 27 99 53z" />
    <glyph glyph-name="A" unicode="A" horiz-adv-x="682" 
d="M658 48c0 -41 -30 -57 -76 -57c-41 0 -66 19 -76 50l-40 122h-259l-40 -125c-10 -31 -31 -47 -72 -47c-51 0 -71 14 -71 53c0 8 3 22 7 34l192 549c12 35 39 64 118 64c78 0 106 -27 119 -64l191 -548c3 -9 7 -24 7 -31zM241 275h191l-95 302z" />
    <glyph glyph-name="B" unicode="B" horiz-adv-x="668" 
d="M618 184c0 -150 -124 -184 -257 -184h-199c-62 0 -85 26 -85 71v538c0 45 23 71 85 71h199c140 0 237 -34 237 -169c0 -89 -52 -146 -145 -159c111 -9 165 -63 165 -168zM442 491c0 63 -29 86 -100 86h-110v-180h116c71 0 94 41 94 94zM457 199c0 80 -42 99 -105 99h-120
v-195h105c83 0 120 19 120 96z" />
    <glyph glyph-name="C" unicode="C" horiz-adv-x="564" 
d="M526 62c0 -34 -17 -46 -43 -56c-27 -10 -67 -18 -151 -18c-225 0 -284 122 -284 359c0 228 96 345 304 345c57 0 99 -8 123 -17c26 -10 43 -23 43 -57c0 -36 -18 -56 -49 -56c-23 0 -55 11 -97 11c-141 0 -164 -114 -164 -226c0 -125 17 -238 164 -238c45 0 82 11 105 11
c31 0 49 -22 49 -58z" />
    <glyph glyph-name="D" unicode="D" horiz-adv-x="705" 
d="M657 347c0 -240 -79 -347 -366 -347h-129c-62 0 -85 26 -85 71v538c0 45 23 71 85 71h137c297 0 358 -117 358 -333zM497 347c0 141 -22 220 -187 220h-78v-454h70c164 0 195 71 195 234z" />
    <glyph glyph-name="E" unicode="E" horiz-adv-x="581" 
d="M535 59c0 -37 -20 -59 -77 -59h-296c-62 0 -85 26 -85 71v538c0 45 23 71 85 71h284c57 0 77 -21 77 -58s-20 -59 -77 -59h-214v-161h196c57 0 77 -20 77 -57s-20 -57 -77 -57h-196v-171h226c57 0 77 -21 77 -58z" />
    <glyph glyph-name="F" unicode="F" horiz-adv-x="551" 
d="M511 621c0 -37 -20 -60 -77 -60h-202v-189h184c57 0 77 -23 77 -60s-20 -61 -77 -61h-184v-195c0 -41 -21 -65 -78 -65s-77 24 -77 65v553c0 45 23 71 85 71h272c57 0 77 -22 77 -59z" />
    <glyph glyph-name="G" unicode="G" horiz-adv-x="663" 
d="M596 324v-233c0 -48 -21 -71 -68 -82c-41 -10 -117 -21 -187 -21c-231 0 -293 122 -293 359c0 228 112 345 334 345c70 0 122 -8 150 -17c26 -9 43 -23 43 -57c0 -36 -17 -54 -48 -54c-28 0 -67 12 -131 12c-171 0 -188 -113 -188 -229c0 -129 13 -248 142 -248
c48 0 89 8 103 14v168h-54c-37 0 -51 19 -51 55s14 54 51 54h120c57 0 77 -25 77 -66z" />
    <glyph glyph-name="H" unicode="H" horiz-adv-x="699" 
d="M622 624v-568c0 -41 -21 -65 -78 -65s-77 24 -77 65v233h-235v-233c0 -41 -21 -65 -78 -65s-77 24 -77 65v568c0 41 21 65 78 65s77 -24 77 -65v-213h235v213c0 41 21 65 78 65s77 -24 77 -65z" />
    <glyph glyph-name="I" unicode="I" horiz-adv-x="309" 
d="M232 624v-568c0 -41 -21 -65 -78 -65s-77 24 -77 65v568c0 41 21 65 78 65s77 -24 77 -65z" />
    <glyph glyph-name="J" unicode="J" horiz-adv-x="420" 
d="M351 624v-435c0 -119 -26 -201 -225 -201c-36 0 -62 5 -75 10c-26 10 -43 25 -43 59c0 36 19 60 49 60c17 0 35 -6 57 -6c69 0 82 38 82 99v414c0 41 21 65 78 65s77 -24 77 -65z" />
    <glyph glyph-name="K" unicode="K" horiz-adv-x="652" 
d="M616 34c0 -25 -26 -43 -78 -43c-57 0 -85 25 -111 62l-195 270v-267c0 -41 -21 -65 -78 -65s-77 24 -77 65v568c0 41 21 65 78 65s77 -24 77 -65v-233l196 243c28 35 56 55 100 55c52 0 70 -15 70 -40c0 -15 -16 -45 -32 -63l-190 -219l215 -275c16 -20 25 -41 25 -58z
" />
    <glyph glyph-name="L" unicode="L" horiz-adv-x="521" 
d="M487 63c0 -40 -19 -63 -77 -63h-248c-62 0 -85 26 -85 71v553c0 41 21 65 78 65s77 -24 77 -65v-499h178c57 0 77 -22 77 -62z" />
    <glyph glyph-name="M" unicode="M" horiz-adv-x="940" 
d="M863 613v-557c0 -41 -20 -65 -73 -65s-73 24 -73 65v506l-156 -505c-12 -38 -33 -68 -96 -68s-86 33 -97 68l-156 505v-506c0 -41 -19 -65 -68 -65s-67 24 -67 65v557c0 49 27 78 121 78c101 0 127 -30 143 -86l131 -448l136 448c16 52 41 86 138 86
c90 0 117 -29 117 -78z" />
    <glyph glyph-name="N" unicode="N" horiz-adv-x="732" 
d="M655 624v-557c0 -49 -27 -78 -117 -78c-95 0 -117 32 -139 86l-191 468v-487c0 -41 -18 -65 -66 -65s-65 24 -65 65v557c0 49 27 78 117 78c95 0 117 -32 139 -86l191 -468v487c0 41 18 65 66 65s65 -24 65 -65z" />
    <glyph glyph-name="O" unicode="O" horiz-adv-x="718" 
d="M670 347c0 -238 -77 -359 -314 -359s-308 122 -308 359c0 228 83 345 314 345c232 0 308 -118 308 -345zM510 347c0 118 -13 230 -151 230s-151 -112 -151 -230c0 -125 11 -244 151 -244s151 119 151 244z" />
    <glyph glyph-name="P" unicode="P" horiz-adv-x="649" 
d="M605 462c0 -141 -88 -224 -244 -224h-129v-182c0 -41 -21 -65 -78 -65s-77 24 -77 65v553c0 45 23 71 85 71h216c149 0 227 -75 227 -218zM447 462c0 66 -29 105 -103 105h-112v-214h104c74 0 111 40 111 109z" />
    <glyph glyph-name="Q" unicode="Q" horiz-adv-x="737" 
d="M725 61c0 -37 -18 -61 -65 -61h-152c-45 0 -84 -12 -152 -12c-237 0 -308 122 -308 359c0 228 83 345 314 345c232 0 308 -118 308 -345c0 -111 -23 -181 -53 -227h43c47 0 65 -22 65 -59zM510 347c0 118 -13 230 -151 230s-151 -112 -151 -230c0 -125 11 -244 151 -244
s151 119 151 244z" />
    <glyph glyph-name="R" unicode="R" horiz-adv-x="673" 
d="M617 44c0 -41 -29 -53 -85 -53c-43 0 -65 14 -80 42l-119 225h-101v-202c0 -41 -21 -65 -78 -65s-77 24 -77 65v553c0 45 23 71 85 71h215c149 0 236 -66 236 -203c0 -117 -63 -164 -125 -191l116 -207c6 -10 13 -25 13 -35zM457 469c0 61 -31 98 -105 98h-120v-201h105
c84 0 120 40 120 103z" />
    <glyph glyph-name="S" unicode="S" horiz-adv-x="582" 
d="M534 207c0 -156 -83 -219 -257 -219c-80 0 -163 10 -184 18c-26 10 -43 25 -43 59c0 36 18 58 49 58c26 0 78 -15 140 -15c91 0 135 24 135 79c0 60 -44 83 -146 98c-115 17 -178 69 -178 199c0 150 99 208 252 208c78 0 148 -10 172 -19c26 -10 44 -25 44 -59
c0 -36 -19 -55 -50 -55c-23 0 -67 14 -128 14c-89 0 -132 -26 -132 -76c0 -51 38 -72 144 -90c133 -22 182 -75 182 -200z" />
    <glyph glyph-name="T" unicode="T" horiz-adv-x="588" 
d="M568 616c0 -38 -21 -63 -78 -63h-118v-497c0 -41 -21 -65 -78 -65s-77 24 -77 65v497h-119c-57 0 -78 25 -78 63s21 64 78 64h392c57 0 78 -26 78 -64z" />
    <glyph glyph-name="U" unicode="U" horiz-adv-x="699" 
d="M628 624v-356c0 -181 -60 -280 -282 -280c-221 0 -275 99 -275 280v356c0 41 21 65 78 65s77 -24 77 -65v-356c0 -101 28 -155 124 -155s122 54 122 155v356c0 41 21 65 78 65s78 -24 78 -65z" />
    <glyph glyph-name="V" unicode="V" horiz-adv-x="672" 
d="M645 636c0 -7 -3 -22 -7 -34l-192 -549c-12 -35 -32 -64 -108 -64c-75 0 -102 27 -115 64l-190 548c-3 9 -6 24 -6 31c0 41 32 57 80 57c43 0 70 -19 80 -50l155 -492l153 495c10 31 33 47 76 47c53 0 74 -14 74 -53z" />
    <glyph glyph-name="W" unicode="W" horiz-adv-x="1001" 
d="M969 634c0 -8 -4 -24 -5 -30l-128 -551c-10 -41 -41 -64 -112 -64c-69 0 -102 22 -111 64l-111 499l-113 -499c-9 -41 -41 -64 -112 -64c-69 0 -102 23 -112 64l-128 551c-1 6 -4 22 -4 30c0 40 22 57 81 57c45 0 70 -15 77 -51l100 -500l108 487c9 42 42 64 108 64
s96 -24 105 -64l110 -487l98 500c7 34 30 51 72 51c55 0 77 -17 77 -57z" />
    <glyph glyph-name="X" unicode="X" horiz-adv-x="655" 
d="M623 31c0 -23 -24 -40 -78 -40c-57 0 -79 20 -100 56l-127 212l-121 -212c-19 -34 -38 -56 -93 -56c-49 0 -71 17 -71 40c0 16 7 35 19 53l174 267l-153 245c-12 19 -20 37 -20 53c0 23 23 40 75 40c53 0 74 -21 95 -56l112 -190l108 190c20 35 39 56 88 56
s70 -17 70 -40c0 -16 -7 -35 -19 -53l-154 -245l174 -267c12 -19 21 -37 21 -53z" />
    <glyph glyph-name="Y" unicode="Y" horiz-adv-x="628" 
d="M601 649c0 -16 -7 -34 -17 -53l-193 -349v-191c0 -41 -21 -65 -78 -65s-77 24 -77 65v191l-192 349c-11 20 -17 37 -17 53c0 23 23 40 75 40c53 0 75 -20 93 -56l128 -251l122 251c18 37 37 56 85 56c47 0 71 -17 71 -40z" />
    <glyph glyph-name="Z" unicode="Z" horiz-adv-x="576" 
d="M537 60c0 -37 -21 -60 -78 -60h-342c-57 0 -77 22 -77 59c0 38 24 86 63 144l241 358h-218c-57 0 -77 23 -77 60s20 59 77 59h324c57 0 78 -21 78 -58c0 -40 -25 -86 -63 -144l-239 -359h233c57 0 78 -22 78 -59z" />
    <glyph glyph-name="bracketleft" unicode="[" horiz-adv-x="370" 
d="M323 55c0 -35 -17 -55 -58 -55h-111c-62 0 -85 26 -85 71v538c0 45 23 71 85 71h111c41 0 58 -20 58 -55s-17 -54 -58 -54h-45v-462h45c41 0 58 -19 58 -54z" />
    <glyph glyph-name="backslash" unicode="\" horiz-adv-x="308" 
d="M380 -186c0 -22 -14 -34 -48 -34c-48 0 -73 24 -86 65l-260 823c-3 11 -6 22 -6 30c0 22 14 35 49 35c48 0 73 -24 86 -65l259 -823c4 -12 6 -22 6 -31z" />
    <glyph glyph-name="bracketright" unicode="]" horiz-adv-x="370" 
d="M302 609v-538c0 -45 -24 -71 -86 -71h-111c-41 0 -57 20 -57 55s16 54 57 54h46v462h-46c-41 0 -57 19 -57 54s16 55 57 55h111c62 0 86 -26 86 -71z" />
    <glyph glyph-name="asciicircum" unicode="^" horiz-adv-x="616" 
d="M529 416c0 -23 -23 -33 -68 -33c-36 0 -58 13 -67 30l-91 162l-91 -162c-9 -17 -28 -30 -65 -30c-47 0 -60 10 -60 33c0 5 4 14 6 18l125 218c12 21 36 37 89 37s78 -17 90 -37l126 -218c2 -4 6 -13 6 -18z" />
    <glyph glyph-name="underscore" unicode="_" horiz-adv-x="500" 
d="M501 -100c0 -15 -9 -25 -29 -25h-443c-20 0 -29 10 -29 25s9 25 29 25h443c20 0 29 -10 29 -25z" />
    <glyph glyph-name="grave" unicode="`" 
d="M205 601c0 -15 -10 -24 -34 -24c-37 0 -59 11 -75 31l-53 65c-10 12 -18 25 -18 35c0 15 14 25 44 25c51 0 75 -16 85 -33l39 -63c8 -14 12 -26 12 -36z" />
    <glyph glyph-name="a" unicode="a" horiz-adv-x="571" 
d="M507 362v-281c0 -43 -19 -64 -61 -73c-40 -9 -117 -20 -182 -20c-171 0 -225 49 -225 159c0 95 60 164 258 164h65v35c0 49 -26 70 -101 70c-54 0 -103 -11 -128 -11c-26 0 -51 13 -51 50c0 33 17 45 45 51c48 10 110 18 168 18c156 0 212 -49 212 -162zM362 100v130h-45
c-114 0 -135 -35 -135 -77c0 -37 17 -65 91 -65c30 0 65 6 89 12z" />
    <glyph glyph-name="b" unicode="b" horiz-adv-x="607" 
d="M565 262c0 -184 -72 -274 -264 -274c-66 0 -136 9 -173 18c-42 10 -61 30 -61 73v591c0 40 20 63 74 63s72 -23 72 -63v-165c26 8 75 19 129 19c158 0 223 -88 223 -262zM415 262c0 78 -10 156 -106 156c-45 0 -83 -8 -96 -13v-297c16 -7 56 -14 96 -14
c98 0 106 82 106 168z" />
    <glyph glyph-name="c" unicode="c" horiz-adv-x="475" 
d="M443 54c0 -30 -9 -43 -35 -51c-28 -9 -79 -15 -126 -15c-185 0 -239 94 -239 274c0 174 79 262 258 262c37 0 76 -6 100 -14c26 -9 36 -19 36 -49c0 -32 -11 -51 -42 -51c-15 0 -58 8 -83 8c-104 0 -120 -76 -120 -156c0 -93 13 -166 120 -166c29 0 76 8 90 8
c31 0 41 -18 41 -50z" />
    <glyph glyph-name="d" unicode="d" horiz-adv-x="607" 
d="M540 670v-590c0 -43 -18 -64 -60 -73c-43 -9 -116 -19 -191 -19c-190 0 -246 94 -246 274c0 174 83 262 231 262c44 0 92 -9 120 -18v164c0 40 20 63 74 63s72 -23 72 -63zM394 107v297c-18 7 -56 14 -96 14c-95 0 -106 -78 -106 -156c0 -85 9 -168 106 -168
c39 0 82 7 96 13z" />
    <glyph glyph-name="e" unicode="e" horiz-adv-x="552" 
d="M512 286c0 -40 -20 -63 -73 -63h-253c0 -74 20 -127 135 -127c45 0 97 12 118 12c26 0 50 -15 50 -52c0 -33 -16 -47 -44 -53c-39 -9 -104 -15 -183 -15c-171 0 -219 95 -219 274c0 168 70 262 242 262c167 0 227 -93 227 -238zM186 306h192c-1 61 -10 120 -96 120
c-85 0 -95 -60 -96 -120z" />
    <glyph glyph-name="f" unicode="f" horiz-adv-x="398" 
d="M375 681c0 -36 -25 -53 -51 -53c-7 0 -36 2 -46 2c-53 0 -65 -36 -65 -88v-30h94c45 0 60 -21 60 -53c0 -34 -16 -53 -62 -53h-92v-352c0 -40 -20 -63 -74 -63s-72 23 -72 63v476c0 112 26 206 190 206c23 0 63 -3 73 -5c28 -6 45 -20 45 -50z" />
    <glyph glyph-name="g" unicode="g" horiz-adv-x="607" 
d="M540 433v-491c0 -125 -107 -166 -229 -166c-83 0 -147 6 -187 14c-28 6 -44 19 -44 52c0 37 24 51 50 51c30 0 82 -11 136 -11c74 0 128 21 128 89v49c-21 -8 -75 -20 -128 -20c-171 0 -223 89 -223 262c0 174 77 262 264 262c65 0 132 -9 173 -18c42 -9 60 -30 60 -73z
M394 119v286c-19 6 -57 13 -96 13c-89 0 -106 -79 -106 -156c0 -79 12 -156 106 -156c39 0 78 6 96 13z" />
    <glyph glyph-name="h" unicode="h" horiz-adv-x="604" 
d="M537 262v-208c0 -40 -20 -63 -74 -63s-72 23 -72 63v208c0 124 -20 152 -95 152c-31 0 -69 -7 -83 -12v-348c0 -40 -20 -63 -74 -63s-72 23 -72 63v616c0 40 20 63 74 63s72 -23 72 -63v-164c15 7 72 18 116 18c179 0 208 -67 208 -262z" />
    <glyph glyph-name="i" unicode="i" 
d="M225 657c0 -48 -22 -75 -86 -75s-84 27 -84 75c0 46 24 72 86 72s84 -26 84 -72zM213 458v-404c0 -40 -20 -63 -74 -63s-72 23 -72 63v404c0 40 20 63 74 63s72 -23 72 -63z" />
    <glyph glyph-name="j" unicode="j" 
d="M225 657c0 -48 -22 -75 -86 -75s-84 27 -84 75c0 46 24 72 86 72s84 -26 84 -72zM213 458v-476c0 -107 -24 -206 -164 -206c-21 0 -47 2 -57 4c-28 6 -44 23 -44 54c0 37 24 55 50 55c5 0 24 -1 31 -1c32 0 38 29 38 82v488c0 40 20 63 74 63s72 -23 72 -63z" />
    <glyph glyph-name="k" unicode="k" horiz-adv-x="577" 
d="M547 31c0 -23 -24 -40 -71 -40c-52 0 -75 24 -100 56l-163 211v-204c0 -40 -20 -63 -74 -63s-72 23 -72 63v616c0 40 20 63 74 63s72 -23 72 -63v-367l154 168c28 31 52 50 93 50c49 0 65 -13 65 -36c0 -14 -16 -41 -32 -57l-137 -138l168 -207c15 -18 23 -36 23 -52z
" />
    <glyph glyph-name="l" unicode="l" 
d="M213 670v-616c0 -40 -20 -63 -74 -63s-72 23 -72 63v616c0 40 20 63 74 63s72 -23 72 -63z" />
    <glyph glyph-name="m" unicode="m" horiz-adv-x="901" 
d="M834 262v-208c0 -40 -20 -63 -74 -63s-72 23 -72 63v208c0 124 -18 152 -91 152c-33 0 -74 -11 -85 -17c8 -22 13 -68 13 -135v-208c0 -40 -20 -63 -74 -63s-73 23 -73 63v208c0 124 -19 152 -88 152c-27 0 -57 -6 -77 -12v-348c0 -40 -20 -63 -74 -63s-72 23 -72 63v378
c0 43 19 64 61 73s108 19 170 19c57 0 111 -14 136 -33c28 13 107 33 175 33c195 0 225 -61 225 -262z" />
    <glyph glyph-name="n" unicode="n" horiz-adv-x="604" 
d="M537 262v-208c0 -40 -20 -63 -74 -63s-72 23 -72 63v208c0 124 -19 152 -95 152c-29 0 -61 -6 -83 -12v-348c0 -40 -20 -63 -74 -63s-72 23 -72 63v377c0 43 18 64 60 73s113 20 178 20c201 0 232 -61 232 -262z" />
    <glyph glyph-name="o" unicode="o" horiz-adv-x="601" 
d="M558 262c0 -180 -66 -274 -260 -274s-255 94 -255 274c0 174 70 262 261 262c190 0 254 -88 254 -262zM409 262c0 78 -9 156 -108 156s-109 -78 -109 -156c0 -84 9 -168 109 -168s108 83 108 168z" />
    <glyph glyph-name="p" unicode="p" horiz-adv-x="607" 
d="M565 262c0 -184 -79 -274 -231 -274c-47 0 -93 9 -121 18v-164c0 -40 -20 -63 -74 -63s-72 23 -72 63v590c0 43 18 64 60 73c45 10 115 19 192 19c183 0 246 -88 246 -262zM415 262c0 78 -10 156 -106 156c-45 0 -83 -7 -96 -12v-298c16 -7 56 -14 96 -14
c98 0 106 82 106 168z" />
    <glyph glyph-name="q" unicode="q" horiz-adv-x="607" 
d="M540 433v-591c0 -40 -19 -63 -73 -63s-73 23 -73 63v166c-21 -8 -75 -20 -128 -20c-169 0 -223 94 -223 274c0 174 77 262 264 262c65 0 133 -9 174 -18c42 -9 59 -30 59 -73zM394 107v298c-19 6 -57 13 -96 13c-92 0 -106 -78 -106 -156c0 -85 9 -168 106 -168
c39 0 78 6 96 13z" />
    <glyph glyph-name="r" unicode="r" horiz-adv-x="408" 
d="M382 466c0 -37 -24 -56 -50 -56c-9 0 -40 3 -53 3c-23 0 -53 -6 -66 -9v-350c0 -40 -20 -63 -74 -63s-72 23 -72 63v380c0 43 18 66 61 75c40 8 87 15 125 15c32 0 68 -2 85 -6c28 -6 44 -19 44 -52z" />
    <glyph glyph-name="s" unicode="s" horiz-adv-x="494" 
d="M452 157c0 -121 -67 -169 -210 -169c-59 0 -122 9 -153 16c-28 6 -44 20 -44 51c0 35 23 49 50 49c23 0 77 -13 123 -13c70 0 93 15 93 49c0 38 -21 53 -110 65c-100 14 -156 55 -156 158c0 117 92 161 212 161c51 0 102 -7 133 -14c28 -6 45 -20 45 -51
c0 -35 -24 -49 -51 -49c-21 0 -74 12 -109 12c-74 0 -92 -19 -92 -50c0 -33 20 -47 112 -61c105 -16 157 -47 157 -154z" />
    <glyph glyph-name="t" unicode="t" horiz-adv-x="408" 
d="M375 44c0 -31 -17 -45 -45 -51c-10 -2 -49 -5 -72 -5c-167 0 -191 65 -191 188v404c0 40 20 63 74 63s72 -23 72 -63v-68h91c45 0 61 -21 61 -53c0 -34 -16 -53 -62 -53h-90v-242c0 -42 11 -68 67 -68c12 0 37 3 44 3c26 0 51 -18 51 -55z" />
    <glyph glyph-name="u" unicode="u" horiz-adv-x="595" 
d="M531 458v-377c0 -43 -18 -64 -60 -73s-112 -20 -177 -20c-201 0 -230 61 -230 262v208c0 40 20 63 74 63s72 -23 72 -63v-208c0 -124 17 -152 93 -152c29 0 60 6 82 12v348c0 40 20 63 74 63s72 -23 72 -63z" />
    <glyph glyph-name="v" unicode="v" horiz-adv-x="557" 
d="M529 464c0 -8 -4 -24 -6 -30l-127 -381c-12 -37 -42 -64 -118 -64s-104 29 -116 64l-128 381c-2 6 -6 22 -6 30c0 40 23 57 79 57c46 0 69 -20 78 -51l99 -354l97 354c8 31 30 51 74 51c54 0 74 -17 74 -57z" />
    <glyph glyph-name="w" unicode="w" horiz-adv-x="894" 
d="M860 464c0 -8 -3 -24 -5 -30l-100 -381c-11 -41 -41 -64 -111 -64s-101 23 -111 64l-88 352l-82 -352c-10 -41 -42 -64 -112 -64c-69 0 -100 23 -111 64l-101 381c-2 6 -5 22 -5 30c0 40 22 57 78 57c38 0 67 -15 73 -43l81 -364l80 345c10 42 41 64 109 64
s96 -23 106 -64l84 -345l78 364c6 27 28 43 66 43c52 0 71 -17 71 -57z" />
    <glyph glyph-name="x" unicode="x" horiz-adv-x="572" 
d="M538 31c0 -23 -19 -40 -68 -40c-51 0 -78 21 -104 56l-91 124l-85 -124c-23 -34 -47 -56 -94 -56c-48 0 -62 17 -62 40c0 16 10 35 24 53l139 185l-126 159c-14 18 -25 37 -25 53c0 23 20 40 69 40c51 0 75 -24 98 -56l83 -111l79 111c23 32 42 56 91 56
c46 0 60 -15 60 -40c0 -16 -11 -35 -25 -53l-126 -164l139 -180c15 -19 24 -37 24 -53z" />
    <glyph glyph-name="y" unicode="y" horiz-adv-x="549" 
d="M521 464c0 -8 -3 -22 -6 -30l-167 -448c-63 -169 -95 -210 -206 -210c-23 0 -47 2 -59 5c-28 6 -44 22 -44 55c0 38 24 56 50 56c7 0 28 -3 36 -3c26 0 48 14 68 75l7 24l-166 446c-2 6 -6 22 -6 30c0 40 24 57 78 57c44 0 67 -20 76 -51l96 -319l100 319
c10 31 28 52 71 52c52 0 72 -18 72 -58z" />
    <glyph glyph-name="z" unicode="z" horiz-adv-x="500" 
d="M468 53c0 -32 -14 -53 -60 -53h-312c-48 0 -64 20 -64 51c0 33 27 66 58 108l186 249h-175c-46 0 -60 20 -60 52c0 31 15 52 60 52h294c48 0 64 -19 64 -50c0 -33 -27 -67 -58 -109l-186 -249h193c45 0 60 -20 60 -51z" />
    <glyph glyph-name="braceleft" unicode="{" horiz-adv-x="412" 
d="M365 55c0 -35 -17 -55 -58 -55h-83c-79 0 -113 38 -113 98v98c0 62 -18 95 -53 105c-18 5 -27 21 -27 46c0 24 9 40 27 44c34 8 53 49 53 111v80c0 60 34 98 113 98h83c41 0 58 -20 58 -55s-17 -54 -58 -54c-33 0 -45 -16 -45 -44v-70c0 -46 -23 -91 -93 -110
c70 -19 93 -57 93 -107v-87c0 -28 12 -44 45 -44c41 0 58 -19 58 -54z" />
    <glyph glyph-name="bar" unicode="|" horiz-adv-x="308" 
d="M220 668v-824c0 -41 -18 -65 -67 -65s-66 24 -66 65v824c0 41 19 65 68 65s65 -24 65 -65z" />
    <glyph glyph-name="braceright" unicode="}" horiz-adv-x="412" 
d="M382 347c0 -25 -10 -41 -28 -46c-35 -10 -52 -43 -52 -105v-98c0 -60 -35 -98 -114 -98h-83c-41 0 -57 20 -57 55s16 54 57 54c33 0 46 16 46 44v87c0 50 22 88 92 107c-70 19 -92 64 -92 110v70c0 28 -13 44 -46 44c-41 0 -57 19 -57 54s16 55 57 55h83
c79 0 114 -38 114 -98v-80c0 -62 18 -103 52 -111c18 -4 28 -20 28 -44z" />
    <glyph glyph-name="asciitilde" unicode="~" horiz-adv-x="616" 
d="M542 315c0 -86 -50 -153 -124 -153c-79 0 -161 58 -207 58c-24 0 -32 -14 -32 -23c0 -20 -15 -36 -51 -36c-35 0 -53 16 -53 36c0 86 50 153 124 153c78 0 161 -58 206 -58c24 0 32 14 32 23c0 20 15 36 51 36c35 0 54 -16 54 -36z" />
    <glyph glyph-name="uni00A0" unicode="&#xa0;" horiz-adv-x="308" 
 />
    <glyph glyph-name="exclamdown" unicode="&#xa1;" horiz-adv-x="309" 
d="M235 443c0 -48 -24 -78 -81 -78s-80 30 -80 78c0 51 20 81 80 81c59 0 81 -30 81 -81zM230 -118c0 -38 -25 -59 -76 -59s-75 22 -75 59c0 8 1 30 1 37l15 326c2 41 19 65 59 65s58 -24 60 -65l14 -326c0 -7 2 -29 2 -37z" />
    <glyph glyph-name="cent" unicode="&#xa2;" horiz-adv-x="616" 
d="M526 140c0 -30 -11 -45 -39 -53c-25 -7 -65 -12 -106 -14v-25c0 -36 -18 -57 -67 -57s-66 21 -66 57v36c-121 27 -159 116 -159 262c0 133 50 216 159 246v40c0 36 18 57 67 57s66 -21 66 -57v-25c37 -1 75 -6 99 -13c28 -8 40 -22 40 -52c0 -32 -12 -52 -46 -52
c-16 0 -68 8 -94 8c-113 0 -135 -72 -135 -152c0 -93 18 -162 135 -162c32 0 86 9 101 9c34 0 45 -21 45 -53z" />
    <glyph glyph-name="sterling" unicode="&#xa3;" horiz-adv-x="616" 
d="M551 55c0 -35 -18 -55 -62 -55h-357c-49 0 -67 21 -67 58c0 19 8 38 26 55c31 30 75 99 75 188h-39c-44 0 -62 20 -62 53c0 34 18 53 62 53h39c0 198 72 285 247 285c30 0 73 -7 92 -12c26 -6 44 -26 44 -56c0 -32 -19 -52 -50 -52c-18 0 -41 7 -61 7
c-100 0 -121 -54 -121 -172h79c44 0 63 -19 63 -53c0 -33 -19 -53 -63 -53h-79c0 -90 -65 -175 -92 -192h264c44 0 62 -20 62 -54z" />
    <glyph glyph-name="currency" unicode="&#xa4;" horiz-adv-x="616" 
d="M526 195c0 -14 -8 -29 -31 -45c-20 -14 -36 -20 -49 -20c-12 0 -22 5 -30 13l-24 24c-26 -13 -53 -21 -84 -21c-30 0 -58 8 -84 21l-24 -24c-8 -8 -18 -13 -30 -13c-13 0 -29 6 -49 20c-23 16 -32 32 -32 46c0 11 5 21 14 30l23 24c-16 29 -24 61 -24 96s8 68 24 97
l-23 25c-8 9 -14 19 -14 30c0 14 9 29 32 45c20 14 36 20 49 20c12 0 22 -5 30 -13l23 -24c26 13 54 20 85 20s58 -7 84 -20l24 24c8 8 18 13 30 13c13 0 29 -6 49 -20c23 -16 31 -31 31 -45c0 -11 -5 -21 -13 -30l-23 -25c16 -29 24 -62 24 -97s-8 -66 -24 -95l23 -25
c8 -9 13 -20 13 -31zM393 346c0 53 -38 95 -85 95s-86 -42 -86 -95s39 -95 86 -95s85 42 85 95z" />
    <glyph glyph-name="yen" unicode="&#xa5;" horiz-adv-x="616" 
d="M575 652c0 -16 -6 -35 -17 -54l-114 -191h51c44 0 63 -19 63 -53c0 -33 -19 -53 -63 -53h-112v-247c0 -40 -20 -63 -76 -63s-75 23 -75 63v247h-112c-44 0 -62 20 -62 53c0 34 18 53 62 53h52l-115 191c-12 19 -17 38 -17 54c0 21 18 37 70 37s72 -19 90 -55l117 -232
l110 232c17 37 34 55 81 55s67 -16 67 -37z" />
    <glyph glyph-name="brokenbar" unicode="&#xa6;" horiz-adv-x="308" 
d="M220 668v-200c0 -41 -18 -65 -67 -65s-66 24 -66 65v200c0 41 19 65 68 65s65 -24 65 -65zM220 44v-200c0 -41 -18 -65 -67 -65s-66 24 -66 65v200c0 41 19 65 68 65s65 -24 65 -65z" />
    <glyph glyph-name="section" unicode="&#xa7;" horiz-adv-x="616" 
d="M532 146c0 -113 -83 -158 -238 -158c-59 0 -133 9 -163 17c-28 8 -45 20 -45 49c0 32 24 44 51 44c23 0 74 -13 127 -13c90 0 127 17 127 49c0 37 -38 52 -140 65c-105 14 -167 39 -167 127c0 52 36 82 87 100c-53 18 -84 52 -84 116c0 109 95 150 230 150
c51 0 120 -7 151 -14c28 -6 45 -21 45 -48c0 -32 -24 -45 -51 -45c-21 0 -81 10 -116 10c-92 0 -121 -19 -121 -48c0 -31 31 -47 137 -62c105 -15 167 -38 167 -123c0 -56 -29 -87 -83 -105c54 -19 86 -51 86 -111zM394 341c0 34 -29 49 -84 58c-61 -1 -90 -23 -90 -60
c0 -27 24 -41 77 -50c66 0 97 14 97 52z" />
    <glyph glyph-name="dieresis" unicode="&#xa8;" 
d="M308 657c0 -48 -19 -75 -71 -75s-69 27 -69 75c0 46 21 72 71 72s69 -26 69 -72zM112 657c0 -48 -18 -75 -70 -75s-70 27 -70 75c0 46 21 72 71 72s69 -26 69 -72z" />
    <glyph glyph-name="copyright" unicode="&#xa9;" horiz-adv-x="773" 
d="M720 340c0 -192 -127 -352 -337 -352s-331 160 -331 352s127 352 337 352s331 -160 331 -352zM671 340c0 168 -108 306 -285 306c-176 0 -284 -139 -284 -306c0 -168 107 -306 284 -306s285 138 285 306zM526 187c0 -24 -8 -37 -31 -44s-67 -12 -109 -12
c-155 0 -197 77 -197 215c0 135 67 207 210 207c35 0 77 -6 92 -11c22 -8 31 -20 31 -44c0 -27 -10 -43 -37 -43c-13 0 -47 6 -70 6c-85 0 -97 -53 -97 -115c0 -70 9 -123 97 -123c26 0 64 7 75 7c27 0 36 -16 36 -43z" />
    <glyph glyph-name="ordfeminine" unicode="&#xaa;" horiz-adv-x="379" 
d="M340 592v-162c0 -28 -14 -42 -44 -48c-26 -5 -77 -12 -120 -12c-112 0 -152 30 -152 98c0 60 45 99 174 99h37v16c0 23 -13 35 -61 35c-35 0 -67 -7 -83 -7c-19 0 -39 9 -39 35c0 23 15 31 34 35c31 6 72 11 110 11c103 0 144 -30 144 -100zM346 276
c0 -21 -10 -34 -39 -34h-235c-29 0 -39 13 -39 34s10 34 39 34h235c29 0 39 -13 39 -34zM235 443v69h-24c-74 0 -82 -21 -82 -40c0 -17 7 -34 53 -34c17 0 38 2 53 5z" />
    <glyph glyph-name="guillemotleft" unicode="&#xab;" horiz-adv-x="514" 
d="M466 187c0 -15 -13 -28 -42 -28c-34 0 -57 13 -73 33l-87 111c-14 18 -18 30 -18 41c0 10 4 22 18 39l87 105c16 20 39 33 73 33c28 0 41 -12 41 -27c0 -6 -2 -13 -5 -18l-83 -133l84 -139c3 -6 5 -11 5 -17zM244 187c0 -15 -13 -28 -42 -28c-34 0 -57 13 -73 33l-87 111
c-14 18 -18 30 -18 41c0 10 4 22 18 39l87 105c16 20 39 33 73 33c28 0 41 -12 41 -27c0 -6 -3 -13 -6 -18l-82 -133l83 -139c3 -6 6 -11 6 -17z" />
    <glyph glyph-name="logicalnot" unicode="&#xac;" horiz-adv-x="616" 
d="M546 343v-183c0 -39 -18 -63 -66 -63s-66 24 -66 63v119h-280c-53 0 -74 25 -74 64s21 63 74 63h339c53 0 73 -24 73 -63z" />
    <glyph glyph-name="uni00AD" unicode="&#xad;" horiz-adv-x="345" 
d="M310 310c0 -40 -18 -64 -65 -64h-145c-47 0 -65 24 -65 64s18 64 65 64h145c47 0 65 -24 65 -64z" />
    <glyph glyph-name="registered" unicode="&#xae;" horiz-adv-x="366" 
d="M351 517c0 -95 -66 -176 -170 -176s-166 81 -166 176s66 175 170 175s166 -80 166 -175zM318 517c0 79 -52 144 -135 144s-134 -65 -134 -144s51 -145 134 -145s135 66 135 145zM268 433c0 -10 -8 -15 -28 -15c-16 0 -25 4 -29 12l-33 61h-21v-54c0 -12 -7 -19 -27 -19
s-27 7 -27 19v163c0 13 7 22 30 22h62c45 0 72 -20 72 -63c0 -35 -20 -50 -37 -58l34 -57c2 -4 4 -8 4 -11zM212 557c0 18 -7 25 -28 25h-27v-52h23c24 0 32 10 32 27z" />
    <glyph glyph-name="macron" unicode="&#xaf;" 
d="M301 655c0 -27 -15 -43 -52 -43h-218c-37 0 -52 16 -52 43s15 44 52 44h218c37 0 52 -17 52 -44z" />
    <glyph glyph-name="degree" unicode="&#xb0;" horiz-adv-x="400" 
d="M341 551c0 -77 -55 -141 -143 -141s-139 64 -139 141s55 141 143 141s139 -64 139 -141zM272 551c0 44 -28 79 -72 79s-72 -35 -72 -79s28 -79 72 -79s72 35 72 79z" />
    <glyph glyph-name="plusminus" unicode="&#xb1;" horiz-adv-x="616" 
d="M555 332c0 -35 -18 -55 -65 -55h-116v-73c0 -38 -16 -61 -66 -61s-67 23 -67 61v73h-116c-47 0 -65 20 -65 55s18 56 65 56h116v72c0 38 17 61 67 61s66 -23 66 -61v-72h116c47 0 65 -21 65 -56zM555 56c0 -35 -18 -56 -65 -56h-365c-47 0 -65 21 -65 56s18 55 65 55h365
c47 0 65 -20 65 -55z" />
    <glyph glyph-name="twosuperior" unicode="&#xb2;" horiz-adv-x="423" 
d="M396 362c0 -25 -16 -38 -50 -38h-244c-34 0 -49 12 -49 38c0 21 15 34 38 49c75 48 172 116 172 184c0 33 -13 60 -79 60c-30 0 -56 -8 -75 -8c-23 0 -38 14 -38 36c0 21 14 33 33 37c26 6 68 12 105 12c135 0 167 -55 167 -137c0 -83 -83 -154 -154 -195h124
c34 0 50 -12 50 -38z" />
    <glyph glyph-name="threesuperior" unicode="&#xb3;" horiz-adv-x="462" 
d="M393 451c0 -83 -54 -135 -183 -135c-48 0 -99 6 -126 12c-19 4 -33 16 -33 37c0 22 15 36 38 36c20 0 57 -9 96 -9c76 0 97 27 97 59c0 38 -22 61 -70 61c-12 0 -30 -3 -44 -3c-23 0 -37 10 -37 30c0 15 9 26 29 43l84 71h-128c-34 0 -50 11 -50 36c0 23 16 35 50 35h217
c34 0 50 -13 50 -37c0 -19 -17 -32 -36 -48l-79 -67c86 -5 125 -45 125 -121z" />
    <glyph glyph-name="acute" unicode="&#xb4;" 
d="M255 708c0 -10 -7 -23 -17 -35l-53 -65c-16 -20 -39 -31 -76 -31c-24 0 -34 9 -34 24c0 10 5 22 13 36l38 63c10 17 34 33 85 33c30 0 44 -10 44 -25z" />
    <glyph glyph-name="mu" unicode="&#xb5;" horiz-adv-x="616" 
d="M552 458v-377c0 -43 -18 -63 -60 -73c-44 -10 -106 -20 -148 -20c-58 0 -106 9 -134 18v-164c0 -40 -20 -63 -74 -63s-72 23 -72 63v616c0 40 19 63 73 63s73 -23 73 -63v-346c16 -7 61 -14 105 -14c30 0 69 6 91 12v348c0 40 19 63 73 63s73 -23 73 -63z" />
    <glyph glyph-name="paragraph" unicode="&#xb6;" horiz-adv-x="783" 
d="M710 611v-771c0 -38 -22 -61 -76 -61s-75 23 -75 61v728h-173v-728c0 -38 -22 -61 -76 -61s-75 23 -75 61v510c-97 6 -195 59 -195 167c0 127 136 163 285 163h301c62 0 84 -26 84 -69z" />
    <glyph glyph-name="periodcentered" unicode="&#xb7;" horiz-adv-x="308" 
d="M234 312c0 -51 -20 -81 -80 -81c-59 0 -81 30 -81 81c0 48 24 78 81 78s80 -30 80 -78z" />
    <glyph glyph-name="cedilla" unicode="&#xb8;" 
d="M303 -121c0 -57 -39 -103 -156 -103c-52 0 -104 7 -142 16c-21 5 -34 13 -34 35c0 20 16 32 38 32c25 0 56 -14 104 -14c34 0 52 14 52 33s-9 34 -41 34c-22 0 -47 -8 -75 -8c-13 0 -21 4 -21 12c0 5 3 13 7 21l22 43c9 17 34 29 83 29c43 0 53 -9 53 -17s-7 -16 -15 -25
l-26 -28c12 4 44 11 76 11c49 0 75 -34 75 -71z" />
    <glyph glyph-name="onesuperior" unicode="&#xb9;" horiz-adv-x="462" 
d="M409 364c0 -26 -16 -40 -50 -40h-206c-34 0 -50 14 -50 40s16 39 50 39h50v222l-70 -36c-9 -4 -19 -8 -27 -8c-18 0 -24 16 -24 34c0 23 7 37 32 50l96 51c15 8 33 14 60 14c33 0 46 -14 46 -40v-287h43c34 0 50 -13 50 -39z" />
    <glyph glyph-name="ordmasculine" unicode="&#xba;" horiz-adv-x="388" 
d="M366 535c0 -107 -46 -165 -174 -165c-129 0 -170 58 -170 165c0 104 48 157 174 157s170 -53 170 -157zM354 276c0 -21 -10 -34 -39 -34h-241c-29 0 -39 13 -39 34s10 34 39 34h241c29 0 39 -13 39 -34zM260 535c0 46 -6 87 -66 87s-66 -41 -66 -87c0 -50 5 -95 66 -95
s66 45 66 95z" />
    <glyph glyph-name="guillemotright" unicode="&#xbb;" horiz-adv-x="514" 
d="M490 344c0 -11 -4 -23 -18 -41l-87 -111c-16 -20 -39 -33 -73 -33c-29 0 -42 13 -42 28c0 6 2 11 5 17l84 139l-83 133c-3 5 -6 12 -6 18c0 15 14 27 42 27c34 0 57 -13 73 -33l86 -105c14 -17 19 -29 19 -39zM268 344c0 -11 -4 -23 -18 -41l-88 -111
c-16 -20 -38 -33 -72 -33c-29 0 -42 13 -42 28c0 6 2 11 5 17l83 139l-82 133c-3 5 -6 12 -6 18c0 15 14 27 42 27c34 0 56 -13 72 -33l87 -105c14 -17 19 -29 19 -39z" />
    <glyph glyph-name="onequarter" unicode="&#xbc;" horiz-adv-x="1231" 
d="M1035 200v-164c0 -28 -17 -42 -53 -42s-53 14 -53 42v46h-196c-34 0 -50 13 -50 38c0 16 12 35 25 50c31 35 88 125 115 194c10 25 26 42 63 42c35 0 45 -17 45 -42c0 -39 -74 -156 -126 -210h124v46c0 28 17 42 53 42s53 -14 53 -42zM831 659c0 -9 -3 -21 -9 -35
l-254 -568c-18 -41 -45 -65 -90 -65c-30 0 -43 11 -43 30c0 9 4 21 10 35l253 568c18 41 44 65 89 65c30 0 44 -11 44 -30zM490 318c0 -26 -16 -40 -50 -40h-206c-34 0 -50 14 -50 40s16 39 50 39h50v222l-70 -36c-9 -4 -19 -8 -27 -8c-18 0 -24 16 -24 34c0 23 7 37 32 50
l96 51c15 8 33 14 60 14c33 0 46 -14 46 -40v-287h43c34 0 50 -13 50 -39z" />
    <glyph glyph-name="onehalf" unicode="&#xbd;" horiz-adv-x="1231" 
d="M1060 38c0 -25 -16 -38 -50 -38h-244c-34 0 -50 12 -50 38c0 21 16 34 39 49c75 48 172 116 172 184c0 33 -14 60 -80 60c-30 0 -56 -8 -75 -8c-23 0 -38 14 -38 36c0 21 14 33 33 37c26 6 69 12 106 12c135 0 166 -55 166 -137c0 -83 -83 -154 -154 -195h125
c34 0 50 -12 50 -38zM796 659c0 -9 -3 -21 -9 -35l-254 -568c-18 -41 -44 -65 -89 -65c-30 0 -43 11 -43 30c0 9 3 21 9 35l253 568c18 41 45 65 90 65c30 0 43 -11 43 -30zM463 318c0 -26 -17 -40 -51 -40h-206c-34 0 -50 14 -50 40s16 39 50 39h50v222l-70 -36
c-9 -4 -19 -8 -27 -8c-18 0 -23 16 -23 34c0 23 6 37 31 50l96 51c15 8 33 14 60 14c33 0 46 -14 46 -40v-287h43c34 0 51 -13 51 -39z" />
    <glyph glyph-name="threequarters" unicode="&#xbe;" horiz-adv-x="1231" 
d="M1071 200v-164c0 -28 -17 -42 -53 -42s-53 14 -53 42v46h-196c-34 0 -50 13 -50 38c0 16 12 35 25 50c31 35 88 125 115 194c10 25 26 42 63 42c35 0 45 -17 45 -42c0 -39 -74 -156 -126 -210h124v46c0 28 17 42 53 42s53 -14 53 -42zM826 659c0 -9 -3 -21 -9 -35
l-253 -568c-18 -41 -45 -65 -90 -65c-30 0 -43 11 -43 30c0 9 3 21 9 35l253 568c18 41 45 65 90 65c30 0 43 -11 43 -30zM468 407c0 -83 -53 -135 -182 -135c-48 0 -99 6 -126 12c-19 4 -33 16 -33 37c0 22 15 36 38 36c20 0 57 -9 96 -9c76 0 97 27 97 59
c0 38 -22 61 -70 61c-12 0 -30 -3 -44 -3c-23 0 -37 10 -37 30c0 15 9 26 29 43l84 71h-128c-34 0 -50 11 -50 36c0 23 16 35 50 35h217c34 0 50 -13 50 -37c0 -19 -17 -32 -36 -48l-79 -67c86 -5 124 -45 124 -121z" />
    <glyph glyph-name="questiondown" unicode="&#xbf;" horiz-adv-x="460" 
d="M341 443c0 -48 -24 -78 -81 -78s-80 30 -80 78c0 51 20 81 80 81c59 0 81 -30 81 -81zM427 -109c0 -32 -19 -49 -43 -55c-30 -8 -79 -16 -138 -16c-175 0 -211 71 -211 185c0 130 131 159 160 264c8 28 29 41 67 41c40 0 51 -16 51 -42c0 -136 -124 -166 -124 -263
c0 -41 14 -72 97 -72c33 0 71 10 92 10c30 0 49 -14 49 -52z" />
    <glyph glyph-name="Agrave" unicode="&#xc0;" horiz-adv-x="681" 
d="M406 769c0 -15 -10 -24 -34 -24c-37 0 -60 11 -76 31l-53 65c-10 12 -18 25 -18 35c0 15 14 25 44 25c51 0 75 -16 85 -33l39 -63c8 -14 13 -26 13 -36zM657 48c0 -41 -30 -57 -76 -57c-41 0 -66 19 -76 50l-39 122h-260l-39 -125c-10 -31 -32 -47 -73 -47
c-51 0 -70 14 -70 53c0 8 3 22 7 34l192 549c12 35 39 64 118 64c78 0 106 -27 119 -64l191 -548c3 -9 6 -24 6 -31zM240 275h192l-96 302z" />
    <glyph glyph-name="Aacute" unicode="&#xc1;" horiz-adv-x="682" 
d="M456 876c0 -10 -8 -23 -18 -35l-53 -65c-16 -20 -39 -31 -76 -31c-24 0 -34 9 -34 24c0 10 5 22 13 36l39 63c10 17 34 33 85 33c30 0 44 -10 44 -25zM658 48c0 -41 -30 -57 -76 -57c-41 0 -66 19 -76 50l-40 122h-259l-40 -125c-10 -31 -31 -47 -72 -47
c-51 0 -71 14 -71 53c0 8 3 22 7 34l192 549c12 35 39 64 118 64c78 0 106 -27 119 -64l191 -548c3 -9 7 -24 7 -31zM241 275h191l-95 302z" />
    <glyph glyph-name="Acircumflex" unicode="&#xc2;" horiz-adv-x="682" 
d="M491 769c0 -14 -10 -24 -34 -24c-35 0 -54 13 -69 31l-48 56l-47 -56c-15 -18 -34 -31 -66 -31c-21 0 -31 10 -31 24c0 10 6 24 16 37l48 64c9 12 31 31 83 31s76 -20 84 -31l48 -64c10 -13 16 -27 16 -37zM658 48c0 -41 -30 -57 -76 -57c-41 0 -66 19 -76 50l-40 122
h-259l-40 -125c-10 -31 -31 -47 -72 -47c-51 0 -71 14 -71 53c0 8 3 22 7 34l192 549c12 35 39 64 118 64c78 0 106 -27 119 -64l191 -548c3 -9 7 -24 7 -31zM241 275h191l-95 302z" />
    <glyph glyph-name="Atilde" unicode="&#xc3;" horiz-adv-x="682" 
d="M512 866c0 -66 -37 -115 -108 -115c-58 0 -96 56 -127 56c-23 0 -31 -16 -31 -27c0 -15 -12 -27 -37 -27s-40 12 -40 27c0 66 37 115 108 115c58 0 96 -56 127 -56c23 0 32 16 32 27c0 15 12 27 37 27s39 -12 39 -27zM658 48c0 -41 -30 -57 -76 -57c-41 0 -66 19 -76 50
l-40 122h-259l-40 -125c-10 -31 -31 -47 -72 -47c-51 0 -71 14 -71 53c0 8 3 22 7 34l192 549c12 35 39 64 118 64c78 0 106 -27 119 -64l191 -548c3 -9 7 -24 7 -31zM241 275h191l-95 302z" />
    <glyph glyph-name="Adieresis" unicode="&#xc4;" horiz-adv-x="682" 
d="M509 825c0 -48 -19 -75 -71 -75s-69 27 -69 75c0 46 20 72 70 72s70 -26 70 -72zM313 825c0 -48 -19 -75 -71 -75s-69 27 -69 75c0 46 20 72 70 72s70 -26 70 -72zM658 48c0 -41 -30 -57 -76 -57c-41 0 -66 19 -76 50l-40 122h-259l-40 -125c-10 -31 -31 -47 -72 -47
c-51 0 -71 14 -71 53c0 8 3 22 7 34l192 549c12 35 39 64 118 64c78 0 106 -27 119 -64l191 -548c3 -9 7 -24 7 -31zM241 275h191l-95 302z" />
    <glyph glyph-name="Aring" unicode="&#xc5;" horiz-adv-x="682" 
d="M443 825c0 -51 -28 -89 -103 -89s-102 38 -102 89c0 48 32 85 104 85s101 -37 101 -85zM658 48c0 -41 -30 -57 -76 -57c-41 0 -66 19 -76 50l-40 122h-259l-40 -125c-10 -31 -31 -47 -72 -47c-51 0 -71 14 -71 53c0 8 3 22 7 34l192 549c12 35 39 64 118 64
c78 0 106 -27 119 -64l191 -548c3 -9 7 -24 7 -31zM387 825c0 23 -15 38 -46 38s-47 -15 -47 -38c0 -26 15 -42 47 -42s46 16 46 42zM241 275h191l-95 302z" />
    <glyph glyph-name="AE" unicode="&#xc6;" horiz-adv-x="957" 
d="M933 59c0 -37 -21 -59 -78 -59h-282c-42 0 -59 15 -69 45l-38 118h-259l-40 -125c-10 -31 -31 -47 -72 -47c-51 0 -71 14 -71 53c0 8 3 22 7 34l191 546c14 39 42 56 93 56h370c57 0 78 -21 78 -58s-21 -59 -78 -59h-203l57 -161h205c57 0 78 -20 78 -57s-21 -57 -78 -57
h-166l61 -171h216c57 0 78 -21 78 -58zM241 275h191l-95 302z" />
    <glyph glyph-name="Ccedilla" unicode="&#xc7;" horiz-adv-x="564" 
d="M526 62c0 -34 -17 -46 -43 -56c-23 -9 -57 -15 -100 -16l-50 -51c12 4 43 11 75 11c49 0 76 -34 76 -71c0 -57 -39 -103 -156 -103c-52 0 -105 7 -143 16c-21 5 -34 13 -34 35c0 20 16 32 38 32c25 0 56 -14 104 -14c34 0 52 14 52 33s-9 34 -41 34c-22 0 -47 -8 -75 -8
c-13 0 -21 4 -21 12c0 5 3 13 7 21l30 59c-154 29 -197 148 -197 351c0 228 96 345 304 345c57 0 99 -8 123 -17c26 -10 43 -23 43 -57c0 -36 -18 -56 -49 -56c-23 0 -55 11 -97 11c-141 0 -164 -114 -164 -226c0 -125 17 -238 164 -238c45 0 82 11 105 11
c31 0 49 -22 49 -58z" />
    <glyph glyph-name="Egrave" unicode="&#xc8;" horiz-adv-x="581" 
d="M366 769c0 -15 -10 -24 -34 -24c-37 0 -59 11 -75 31l-53 65c-10 12 -18 25 -18 35c0 15 14 25 44 25c51 0 75 -16 85 -33l39 -63c8 -14 12 -26 12 -36zM535 59c0 -37 -20 -59 -77 -59h-296c-62 0 -85 26 -85 71v538c0 45 23 71 85 71h284c57 0 77 -21 77 -58
s-20 -59 -77 -59h-214v-161h196c57 0 77 -20 77 -57s-20 -57 -77 -57h-196v-171h226c57 0 77 -21 77 -58z" />
    <glyph glyph-name="Eacute" unicode="&#xc9;" horiz-adv-x="581" 
d="M416 876c0 -10 -7 -23 -17 -35l-54 -65c-16 -20 -38 -31 -75 -31c-24 0 -34 9 -34 24c0 10 5 22 13 36l38 63c10 17 34 33 85 33c30 0 44 -10 44 -25zM535 59c0 -37 -20 -59 -77 -59h-296c-62 0 -85 26 -85 71v538c0 45 23 71 85 71h284c57 0 77 -21 77 -58
s-20 -59 -77 -59h-214v-161h196c57 0 77 -20 77 -57s-20 -57 -77 -57h-196v-171h226c57 0 77 -21 77 -58z" />
    <glyph glyph-name="Ecircumflex" unicode="&#xca;" horiz-adv-x="581" 
d="M451 769c0 -14 -10 -24 -34 -24c-35 0 -53 13 -68 31l-49 56l-47 -56c-15 -18 -33 -31 -65 -31c-21 0 -32 10 -32 24c0 10 6 24 16 37l48 64c9 12 31 31 83 31s76 -20 84 -31l48 -64c10 -13 16 -27 16 -37zM535 59c0 -37 -20 -59 -77 -59h-296c-62 0 -85 26 -85 71v538
c0 45 23 71 85 71h284c57 0 77 -21 77 -58s-20 -59 -77 -59h-214v-161h196c57 0 77 -20 77 -57s-20 -57 -77 -57h-196v-171h226c57 0 77 -21 77 -58z" />
    <glyph glyph-name="Edieresis" unicode="&#xcb;" horiz-adv-x="581" 
d="M469 825c0 -48 -19 -75 -71 -75s-69 27 -69 75c0 46 21 72 71 72s69 -26 69 -72zM273 825c0 -48 -19 -75 -71 -75s-69 27 -69 75c0 46 21 72 71 72s69 -26 69 -72zM535 59c0 -37 -20 -59 -77 -59h-296c-62 0 -85 26 -85 71v538c0 45 23 71 85 71h284c57 0 77 -21 77 -58
s-20 -59 -77 -59h-214v-161h196c57 0 77 -20 77 -57s-20 -57 -77 -57h-196v-171h226c57 0 77 -21 77 -58z" />
    <glyph glyph-name="Igrave" unicode="&#xcc;" horiz-adv-x="309" 
d="M219 769c0 -15 -10 -24 -34 -24c-37 0 -59 11 -75 31l-53 65c-10 12 -18 25 -18 35c0 15 14 25 44 25c51 0 75 -16 85 -33l39 -63c8 -14 12 -26 12 -36zM232 624v-568c0 -41 -21 -65 -78 -65s-77 24 -77 65v568c0 41 21 65 78 65s77 -24 77 -65z" />
    <glyph glyph-name="Iacute" unicode="&#xcd;" horiz-adv-x="309" 
d="M269 876c0 -10 -7 -23 -17 -35l-53 -65c-16 -20 -39 -31 -76 -31c-24 0 -34 9 -34 24c0 10 5 22 13 36l38 63c10 17 34 33 85 33c30 0 44 -10 44 -25zM232 624v-568c0 -41 -21 -65 -78 -65s-77 24 -77 65v568c0 41 21 65 78 65s77 -24 77 -65z" />
    <glyph glyph-name="Icircumflex" unicode="&#xce;" horiz-adv-x="309" 
d="M303 769c0 -14 -10 -24 -34 -24c-35 0 -53 13 -68 31l-48 56l-47 -56c-15 -18 -34 -31 -66 -31c-21 0 -31 10 -31 24c0 10 6 24 16 37l48 64c9 12 30 31 82 31s77 -20 85 -31l48 -64c10 -13 15 -27 15 -37zM232 624v-568c0 -41 -21 -65 -78 -65s-77 24 -77 65v568
c0 41 21 65 78 65s77 -24 77 -65z" />
    <glyph glyph-name="Idieresis" unicode="&#xcf;" horiz-adv-x="309" 
d="M322 825c0 -48 -19 -75 -71 -75s-69 27 -69 75c0 46 21 72 71 72s69 -26 69 -72zM126 825c0 -48 -18 -75 -70 -75s-70 27 -70 75c0 46 21 72 71 72s69 -26 69 -72zM232 624v-568c0 -41 -21 -65 -78 -65s-77 24 -77 65v568c0 41 21 65 78 65s77 -24 77 -65z" />
    <glyph glyph-name="Eth" unicode="&#xd0;" horiz-adv-x="705" 
d="M657 347c0 -240 -79 -347 -366 -347h-129c-62 0 -85 26 -85 71v230h-29c-44 0 -62 20 -62 53c0 34 18 53 62 53h29v202c0 45 23 71 85 71h137c297 0 358 -117 358 -333zM497 347c0 141 -22 220 -187 220h-78v-160h66c44 0 63 -19 63 -53c0 -33 -19 -53 -63 -53h-66v-188
h70c164 0 195 71 195 234z" />
    <glyph glyph-name="Ntilde" unicode="&#xd1;" horiz-adv-x="732" 
d="M537 866c0 -66 -37 -115 -108 -115c-58 0 -96 56 -127 56c-23 0 -32 -16 -32 -27c0 -15 -12 -27 -37 -27s-39 12 -39 27c0 66 37 115 108 115c58 0 96 -56 127 -56c23 0 31 16 31 27c0 15 12 27 37 27s40 -12 40 -27zM655 624v-557c0 -49 -27 -78 -117 -78
c-95 0 -117 32 -139 86l-191 468v-487c0 -41 -18 -65 -66 -65s-65 24 -65 65v557c0 49 27 78 117 78c95 0 117 -32 139 -86l191 -468v487c0 41 18 65 66 65s65 -24 65 -65z" />
    <glyph glyph-name="Ograve" unicode="&#xd2;" horiz-adv-x="718" 
d="M427 769c0 -15 -10 -24 -34 -24c-37 0 -60 11 -76 31l-53 65c-10 12 -18 25 -18 35c0 15 14 25 44 25c51 0 75 -16 85 -33l39 -63c8 -14 13 -26 13 -36zM670 347c0 -238 -77 -359 -314 -359s-308 122 -308 359c0 228 83 345 314 345c232 0 308 -118 308 -345zM510 347
c0 118 -13 230 -151 230s-151 -112 -151 -230c0 -125 11 -244 151 -244s151 119 151 244z" />
    <glyph glyph-name="Oacute" unicode="&#xd3;" horiz-adv-x="718" 
d="M477 876c0 -10 -8 -23 -18 -35l-53 -65c-16 -20 -38 -31 -75 -31c-24 0 -34 9 -34 24c0 10 4 22 12 36l39 63c10 17 34 33 85 33c30 0 44 -10 44 -25zM670 347c0 -238 -77 -359 -314 -359s-308 122 -308 359c0 228 83 345 314 345c232 0 308 -118 308 -345zM510 347
c0 118 -13 230 -151 230s-151 -112 -151 -230c0 -125 11 -244 151 -244s151 119 151 244z" />
    <glyph glyph-name="Ocircumflex" unicode="&#xd4;" horiz-adv-x="718" 
d="M510 769c0 -14 -9 -24 -33 -24c-35 0 -54 13 -69 31l-48 56l-47 -56c-15 -18 -34 -31 -66 -31c-21 0 -31 10 -31 24c0 10 6 24 16 37l48 64c9 12 31 31 83 31s76 -20 84 -31l48 -64c10 -13 15 -27 15 -37zM670 347c0 -238 -77 -359 -314 -359s-308 122 -308 359
c0 228 83 345 314 345c232 0 308 -118 308 -345zM510 347c0 118 -13 230 -151 230s-151 -112 -151 -230c0 -125 11 -244 151 -244s151 119 151 244z" />
    <glyph glyph-name="Otilde" unicode="&#xd5;" horiz-adv-x="718" 
d="M533 866c0 -66 -37 -115 -108 -115c-58 0 -96 56 -127 56c-23 0 -32 -16 -32 -27c0 -15 -12 -27 -37 -27s-39 12 -39 27c0 66 37 115 108 115c58 0 96 -56 127 -56c23 0 31 16 31 27c0 15 12 27 37 27s40 -12 40 -27zM670 347c0 -238 -77 -359 -314 -359
s-308 122 -308 359c0 228 83 345 314 345c232 0 308 -118 308 -345zM510 347c0 118 -13 230 -151 230s-151 -112 -151 -230c0 -125 11 -244 151 -244s151 119 151 244z" />
    <glyph glyph-name="Odieresis" unicode="&#xd6;" horiz-adv-x="718" 
d="M529 825c0 -48 -18 -75 -70 -75s-69 27 -69 75c0 46 20 72 70 72s69 -26 69 -72zM333 825c0 -48 -18 -75 -70 -75s-69 27 -69 75c0 46 20 72 70 72s69 -26 69 -72zM670 347c0 -238 -77 -359 -314 -359s-308 122 -308 359c0 228 83 345 314 345c232 0 308 -118 308 -345z
M510 347c0 118 -13 230 -151 230s-151 -112 -151 -230c0 -125 11 -244 151 -244s151 119 151 244z" />
    <glyph glyph-name="multiply" unicode="&#xd7;" horiz-adv-x="616" 
d="M547 31c0 -23 -13 -40 -62 -40c-47 0 -74 22 -99 56l-79 108l-81 -108c-26 -36 -46 -56 -95 -56s-63 17 -63 40c0 16 12 35 26 53l134 170l-135 174c-13 17 -25 37 -25 53c0 23 22 40 66 40c47 0 72 -24 95 -56l79 -108l82 108c24 32 52 56 96 56c46 0 61 -15 61 -40
c0 -16 -11 -35 -25 -53l-133 -171l134 -173c15 -19 24 -37 24 -53z" />
    <glyph glyph-name="Oslash" unicode="&#xd8;" horiz-adv-x="718" 
d="M683 663c0 -11 -10 -27 -20 -39l-40 -48c33 -56 47 -133 47 -229c0 -238 -77 -359 -314 -359c-83 0 -145 16 -190 49l-17 -21c-12 -15 -41 -25 -68 -25c-31 0 -45 11 -45 27c0 11 7 24 19 38l41 48c-34 59 -48 141 -48 243c0 228 83 345 314 345c82 0 145 -16 190 -48
l16 20c12 14 37 25 69 25c34 0 46 -9 46 -26zM216 245l247 294c-22 23 -55 38 -104 38c-138 0 -151 -112 -151 -230c0 -36 1 -72 8 -102zM510 347c0 31 -1 62 -8 89l-246 -294c22 -24 54 -39 103 -39c140 0 151 119 151 244z" />
    <glyph glyph-name="Ugrave" unicode="&#xd9;" horiz-adv-x="699" 
d="M414 769c0 -15 -10 -24 -34 -24c-37 0 -59 11 -75 31l-53 65c-10 12 -18 25 -18 35c0 15 14 25 44 25c51 0 75 -16 85 -33l39 -63c8 -14 12 -26 12 -36zM628 624v-356c0 -181 -60 -280 -282 -280c-221 0 -275 99 -275 280v356c0 41 21 65 78 65s77 -24 77 -65v-356
c0 -101 28 -155 124 -155s122 54 122 155v356c0 41 21 65 78 65s78 -24 78 -65z" />
    <glyph glyph-name="Uacute" unicode="&#xda;" horiz-adv-x="699" 
d="M464 876c0 -10 -7 -23 -17 -35l-53 -65c-16 -20 -39 -31 -76 -31c-24 0 -34 9 -34 24c0 10 5 22 13 36l38 63c10 17 34 33 85 33c30 0 44 -10 44 -25zM628 624v-356c0 -181 -60 -280 -282 -280c-221 0 -275 99 -275 280v356c0 41 21 65 78 65s77 -24 77 -65v-356
c0 -101 28 -155 124 -155s122 54 122 155v356c0 41 21 65 78 65s78 -24 78 -65z" />
    <glyph glyph-name="Ucircumflex" unicode="&#xdb;" horiz-adv-x="699" 
d="M498 769c0 -14 -10 -24 -34 -24c-35 0 -53 13 -68 31l-48 56l-47 -56c-15 -18 -34 -31 -66 -31c-21 0 -31 10 -31 24c0 10 6 24 16 37l48 64c9 12 30 31 82 31s77 -20 85 -31l48 -64c10 -13 15 -27 15 -37zM628 624v-356c0 -181 -60 -280 -282 -280
c-221 0 -275 99 -275 280v356c0 41 21 65 78 65s77 -24 77 -65v-356c0 -101 28 -155 124 -155s122 54 122 155v356c0 41 21 65 78 65s78 -24 78 -65z" />
    <glyph glyph-name="Udieresis" unicode="&#xdc;" horiz-adv-x="699" 
d="M517 825c0 -48 -19 -75 -71 -75s-69 27 -69 75c0 46 21 72 71 72s69 -26 69 -72zM321 825c0 -48 -18 -75 -70 -75s-70 27 -70 75c0 46 21 72 71 72s69 -26 69 -72zM628 624v-356c0 -181 -60 -280 -282 -280c-221 0 -275 99 -275 280v356c0 41 21 65 78 65s77 -24 77 -65
v-356c0 -101 28 -155 124 -155s122 54 122 155v356c0 41 21 65 78 65s78 -24 78 -65z" />
    <glyph glyph-name="Yacute" unicode="&#xdd;" horiz-adv-x="628" 
d="M429 876c0 -10 -8 -23 -18 -35l-53 -65c-16 -20 -39 -31 -76 -31c-24 0 -34 9 -34 24c0 10 5 22 13 36l38 63c10 17 34 33 85 33c30 0 45 -10 45 -25zM601 649c0 -16 -7 -34 -17 -53l-193 -349v-191c0 -41 -21 -65 -78 -65s-77 24 -77 65v191l-192 349
c-11 20 -17 37 -17 53c0 23 23 40 75 40c53 0 75 -20 93 -56l128 -251l122 251c18 37 37 56 85 56c47 0 71 -17 71 -40z" />
    <glyph glyph-name="Thorn" unicode="&#xde;" horiz-adv-x="649" 
d="M605 347c0 -147 -88 -229 -244 -229h-129v-62c0 -41 -21 -65 -78 -65s-77 24 -77 65v568c0 41 21 65 78 65s77 -24 77 -65v-53h146c149 0 227 -75 227 -224zM445 347c0 71 -29 111 -103 111h-110v-225h102c74 0 111 41 111 114z" />
    <glyph glyph-name="germandbls" unicode="&#xdf;" horiz-adv-x="650" 
d="M619 159c0 -120 -56 -171 -181 -171c-45 0 -102 8 -126 16c-26 9 -35 20 -35 50c0 31 11 50 41 50c14 0 63 -11 90 -11c47 0 73 17 73 51c0 37 -23 59 -77 69c-92 16 -128 59 -128 131c0 68 25 100 87 138c35 21 54 42 54 75c0 44 -23 77 -100 77
c-81 0 -106 -42 -106 -92v-488c0 -40 -18 -63 -72 -63s-72 23 -72 63v476c0 112 67 206 252 206c183 0 246 -87 246 -170c0 -60 -25 -97 -87 -128c-53 -26 -69 -46 -69 -73s22 -49 75 -59c87 -17 135 -49 135 -147z" />
    <glyph glyph-name="agrave" unicode="&#xe0;" horiz-adv-x="571" 
d="M360 601c0 -15 -10 -24 -34 -24c-37 0 -60 11 -76 31l-53 65c-10 12 -18 25 -18 35c0 15 14 25 44 25c51 0 75 -16 85 -33l39 -63c8 -14 13 -26 13 -36zM507 362v-281c0 -43 -19 -64 -61 -73c-40 -9 -117 -20 -182 -20c-171 0 -225 49 -225 159c0 95 60 164 258 164h65
v35c0 49 -26 70 -101 70c-54 0 -103 -11 -128 -11c-26 0 -51 13 -51 50c0 33 17 45 45 51c48 10 110 18 168 18c156 0 212 -49 212 -162zM362 100v130h-45c-114 0 -135 -35 -135 -77c0 -37 17 -65 91 -65c30 0 65 6 89 12z" />
    <glyph glyph-name="aacute" unicode="&#xe1;" horiz-adv-x="571" 
d="M410 708c0 -10 -8 -23 -18 -35l-53 -65c-16 -20 -39 -31 -76 -31c-24 0 -34 9 -34 24c0 10 5 22 13 36l39 63c10 17 34 33 85 33c30 0 44 -10 44 -25zM507 362v-281c0 -43 -19 -64 -61 -73c-40 -9 -117 -20 -182 -20c-171 0 -225 49 -225 159c0 95 60 164 258 164h65v35
c0 49 -26 70 -101 70c-54 0 -103 -11 -128 -11c-26 0 -51 13 -51 50c0 33 17 45 45 51c48 10 110 18 168 18c156 0 212 -49 212 -162zM362 100v130h-45c-114 0 -135 -35 -135 -77c0 -37 17 -65 91 -65c30 0 65 6 89 12z" />
    <glyph glyph-name="acircumflex" unicode="&#xe2;" horiz-adv-x="571" 
d="M444 601c0 -14 -10 -24 -34 -24c-35 0 -53 13 -68 31l-49 56l-47 -56c-15 -18 -33 -31 -65 -31c-21 0 -32 10 -32 24c0 10 6 24 16 37l48 64c9 12 31 31 83 31s76 -20 84 -31l48 -64c10 -13 16 -27 16 -37zM507 362v-281c0 -43 -19 -64 -61 -73c-40 -9 -117 -20 -182 -20
c-171 0 -225 49 -225 159c0 95 60 164 258 164h65v35c0 49 -26 70 -101 70c-54 0 -103 -11 -128 -11c-26 0 -51 13 -51 50c0 33 17 45 45 51c48 10 110 18 168 18c156 0 212 -49 212 -162zM362 100v130h-45c-114 0 -135 -35 -135 -77c0 -37 17 -65 91 -65c30 0 65 6 89 12z
" />
    <glyph glyph-name="atilde" unicode="&#xe3;" horiz-adv-x="571" 
d="M466 698c0 -66 -38 -115 -109 -115c-58 0 -95 56 -126 56c-23 0 -32 -16 -32 -27c0 -15 -12 -27 -37 -27s-40 12 -40 27c0 66 38 115 109 115c58 0 95 -56 126 -56c23 0 32 16 32 27c0 15 12 27 37 27s40 -12 40 -27zM507 362v-281c0 -43 -19 -64 -61 -73
c-40 -9 -117 -20 -182 -20c-171 0 -225 49 -225 159c0 95 60 164 258 164h65v35c0 49 -26 70 -101 70c-54 0 -103 -11 -128 -11c-26 0 -51 13 -51 50c0 33 17 45 45 51c48 10 110 18 168 18c156 0 212 -49 212 -162zM362 100v130h-45c-114 0 -135 -35 -135 -77
c0 -37 17 -65 91 -65c30 0 65 6 89 12z" />
    <glyph glyph-name="adieresis" unicode="&#xe4;" horiz-adv-x="571" 
d="M462 657c0 -48 -18 -75 -70 -75s-69 27 -69 75c0 46 20 72 70 72s69 -26 69 -72zM266 657c0 -48 -18 -75 -70 -75s-69 27 -69 75c0 46 20 72 70 72s69 -26 69 -72zM507 362v-281c0 -43 -19 -64 -61 -73c-40 -9 -117 -20 -182 -20c-171 0 -225 49 -225 159
c0 95 60 164 258 164h65v35c0 49 -26 70 -101 70c-54 0 -103 -11 -128 -11c-26 0 -51 13 -51 50c0 33 17 45 45 51c48 10 110 18 168 18c156 0 212 -49 212 -162zM362 100v130h-45c-114 0 -135 -35 -135 -77c0 -37 17 -65 91 -65c30 0 65 6 89 12z" />
    <glyph glyph-name="aring" unicode="&#xe5;" horiz-adv-x="571" 
d="M397 657c0 -51 -28 -89 -103 -89s-102 38 -102 89c0 48 32 85 104 85s101 -37 101 -85zM507 362v-281c0 -43 -19 -64 -61 -73c-40 -9 -117 -20 -182 -20c-171 0 -225 49 -225 159c0 95 60 164 258 164h65v35c0 49 -26 70 -101 70c-54 0 -103 -11 -128 -11
c-26 0 -51 13 -51 50c0 33 17 45 45 51c48 10 110 18 168 18c156 0 212 -49 212 -162zM341 657c0 23 -15 38 -46 38s-47 -15 -47 -38c0 -26 15 -42 47 -42s46 16 46 42zM362 100v130h-45c-114 0 -135 -35 -135 -77c0 -37 17 -65 91 -65c30 0 65 6 89 12z" />
    <glyph glyph-name="ae" unicode="&#xe6;" horiz-adv-x="868" 
d="M828 288c0 -40 -20 -63 -73 -63l-253 -1c0 -73 20 -128 135 -128c45 0 96 12 117 12c26 0 51 -15 51 -52c0 -33 -17 -47 -45 -53c-39 -9 -107 -15 -183 -15c-49 0 -90 15 -116 30c-44 -12 -116 -30 -192 -30c-176 0 -230 49 -230 159c0 91 60 159 258 159h65v40
c0 49 -26 72 -101 72c-54 0 -103 -11 -128 -11c-26 0 -51 12 -51 49c0 33 17 44 45 50c48 10 110 18 168 18c76 0 126 -19 156 -51c29 27 85 51 150 51c167 0 227 -92 227 -236zM501 306h194c-1 60 -11 120 -97 120c-85 0 -97 -62 -97 -120zM382 102c-15 33 -21 70 -22 122
h-43c-114 0 -135 -33 -135 -71c0 -37 17 -65 91 -65c39 0 88 6 109 14z" />
    <glyph glyph-name="ccedilla" unicode="&#xe7;" horiz-adv-x="475" 
d="M443 54c0 -30 -9 -43 -35 -51c-20 -6 -47 -10 -74 -12l-52 -52c12 4 43 11 75 11c49 0 76 -34 76 -71c0 -57 -39 -103 -156 -103c-52 0 -105 7 -143 16c-21 5 -33 13 -33 35c0 20 16 32 38 32c25 0 56 -14 104 -14c34 0 51 14 51 33s-9 34 -41 34c-22 0 -47 -8 -75 -8
c-13 0 -20 4 -20 12c0 5 3 13 7 21l32 60c-117 26 -154 115 -154 265c0 174 79 262 258 262c37 0 76 -6 100 -14c26 -9 36 -19 36 -49c0 -32 -11 -51 -42 -51c-15 0 -58 8 -83 8c-104 0 -120 -76 -120 -156c0 -93 13 -166 120 -166c29 0 76 8 90 8c31 0 41 -18 41 -50z" />
    <glyph glyph-name="egrave" unicode="&#xe8;" horiz-adv-x="553" 
d="M351 601c0 -15 -10 -24 -34 -24c-37 0 -60 11 -76 31l-53 65c-10 12 -18 25 -18 35c0 15 14 25 44 25c51 0 75 -16 85 -33l39 -63c8 -14 13 -26 13 -36zM513 286c0 -40 -20 -63 -73 -63h-254c0 -74 20 -127 135 -127c45 0 97 12 118 12c26 0 50 -15 50 -52
c0 -33 -16 -47 -44 -53c-39 -9 -104 -15 -183 -15c-171 0 -219 95 -219 274c0 168 70 262 242 262c167 0 228 -93 228 -238zM186 306h194c-1 61 -12 120 -98 120c-85 0 -95 -60 -96 -120z" />
    <glyph glyph-name="eacute" unicode="&#xe9;" horiz-adv-x="553" 
d="M401 708c0 -10 -8 -23 -18 -35l-53 -65c-16 -20 -39 -31 -76 -31c-24 0 -34 9 -34 24c0 10 5 22 13 36l39 63c10 17 34 33 85 33c30 0 44 -10 44 -25zM513 286c0 -40 -20 -63 -73 -63h-254c0 -74 20 -127 135 -127c45 0 97 12 118 12c26 0 50 -15 50 -52
c0 -33 -16 -47 -44 -53c-39 -9 -104 -15 -183 -15c-171 0 -219 95 -219 274c0 168 70 262 242 262c167 0 228 -93 228 -238zM186 306h194c-1 61 -12 120 -98 120c-85 0 -95 -60 -96 -120z" />
    <glyph glyph-name="ecircumflex" unicode="&#xea;" horiz-adv-x="553" 
d="M435 601c0 -14 -10 -24 -34 -24c-35 0 -54 13 -69 31l-48 56l-47 -56c-15 -18 -34 -31 -66 -31c-21 0 -31 10 -31 24c0 10 6 24 16 37l48 64c9 12 31 31 83 31s76 -20 84 -31l48 -64c10 -13 16 -27 16 -37zM513 286c0 -40 -20 -63 -73 -63h-254c0 -74 20 -127 135 -127
c45 0 97 12 118 12c26 0 50 -15 50 -52c0 -33 -16 -47 -44 -53c-39 -9 -104 -15 -183 -15c-171 0 -219 95 -219 274c0 168 70 262 242 262c167 0 228 -93 228 -238zM186 306h194c-1 61 -12 120 -98 120c-85 0 -95 -60 -96 -120z" />
    <glyph glyph-name="edieresis" unicode="&#xeb;" horiz-adv-x="553" 
d="M453 657c0 -48 -18 -75 -70 -75s-69 27 -69 75c0 46 20 72 70 72s69 -26 69 -72zM257 657c0 -48 -18 -75 -70 -75s-69 27 -69 75c0 46 20 72 70 72s69 -26 69 -72zM513 286c0 -40 -20 -63 -73 -63h-254c0 -74 20 -127 135 -127c45 0 97 12 118 12c26 0 50 -15 50 -52
c0 -33 -16 -47 -44 -53c-39 -9 -104 -15 -183 -15c-171 0 -219 95 -219 274c0 168 70 262 242 262c167 0 228 -93 228 -238zM186 306h194c-1 61 -12 120 -98 120c-85 0 -95 -60 -96 -120z" />
    <glyph glyph-name="igrave" unicode="&#xec;" 
d="M205 601c0 -15 -10 -24 -34 -24c-37 0 -59 11 -75 31l-53 65c-10 12 -18 25 -18 35c0 15 14 25 44 25c51 0 75 -16 85 -33l39 -63c8 -14 12 -26 12 -36zM213 458v-404c0 -40 -20 -63 -74 -63s-72 23 -72 63v404c0 40 20 63 74 63s72 -23 72 -63z" />
    <glyph glyph-name="iacute" unicode="&#xed;" 
d="M255 708c0 -10 -7 -23 -17 -35l-53 -65c-16 -20 -39 -31 -76 -31c-24 0 -34 9 -34 24c0 10 5 22 13 36l38 63c10 17 34 33 85 33c30 0 44 -10 44 -25zM213 458v-404c0 -40 -20 -63 -74 -63s-72 23 -72 63v404c0 40 20 63 74 63s72 -23 72 -63z" />
    <glyph glyph-name="icircumflex" unicode="&#xee;" 
d="M289 601c0 -14 -10 -24 -34 -24c-35 0 -53 13 -68 31l-48 56l-47 -56c-15 -18 -34 -31 -66 -31c-21 0 -31 10 -31 24c0 10 6 24 16 37l48 64c9 12 30 31 82 31s77 -20 85 -31l48 -64c10 -13 15 -27 15 -37zM213 458v-404c0 -40 -20 -63 -74 -63s-72 23 -72 63v404
c0 40 20 63 74 63s72 -23 72 -63z" />
    <glyph glyph-name="idieresis" unicode="&#xef;" 
d="M308 657c0 -48 -19 -75 -71 -75s-69 27 -69 75c0 46 21 72 71 72s69 -26 69 -72zM112 657c0 -48 -18 -75 -70 -75s-70 27 -70 75c0 46 21 72 71 72s69 -26 69 -72zM213 458v-404c0 -40 -20 -63 -74 -63s-72 23 -72 63v404c0 40 20 63 74 63s72 -23 72 -63z" />
    <glyph glyph-name="eth" unicode="&#xf0;" horiz-adv-x="601" 
d="M558 262c0 -180 -66 -274 -260 -274s-255 94 -255 274c0 174 70 262 261 262c25 0 57 -8 73 -15c-17 33 -74 83 -105 97l-82 -37c-9 -4 -22 -8 -33 -8s-18 7 -18 19c0 14 8 23 25 30l56 26c-11 9 -49 21 -64 23c-23 4 -40 18 -40 44c0 21 20 31 40 31
c65 0 131 -27 177 -52l81 37c9 4 23 7 33 7s17 -6 17 -18c0 -15 -8 -23 -24 -31l-55 -25c77 -52 173 -173 173 -390zM409 262c0 78 -9 156 -108 156s-109 -78 -109 -156c0 -84 9 -168 109 -168s108 83 108 168z" />
    <glyph glyph-name="ntilde" unicode="&#xf1;" horiz-adv-x="604" 
d="M473 698c0 -66 -37 -115 -108 -115c-58 0 -96 56 -127 56c-23 0 -32 -16 -32 -27c0 -15 -11 -27 -36 -27s-40 12 -40 27c0 66 37 115 108 115c58 0 96 -56 127 -56c23 0 32 16 32 27c0 15 11 27 36 27s40 -12 40 -27zM537 262v-208c0 -40 -20 -63 -74 -63s-72 23 -72 63
v208c0 124 -19 152 -95 152c-29 0 -61 -6 -83 -12v-348c0 -40 -20 -63 -74 -63s-72 23 -72 63v377c0 43 18 64 60 73s113 20 178 20c201 0 232 -61 232 -262z" />
    <glyph glyph-name="ograve" unicode="&#xf2;" horiz-adv-x="601" 
d="M368 601c0 -15 -9 -24 -33 -24c-37 0 -60 11 -76 31l-53 65c-10 12 -18 25 -18 35c0 15 14 25 44 25c51 0 75 -16 85 -33l39 -63c8 -14 12 -26 12 -36zM558 262c0 -180 -66 -274 -260 -274s-255 94 -255 274c0 174 70 262 261 262c190 0 254 -88 254 -262zM409 262
c0 78 -9 156 -108 156s-109 -78 -109 -156c0 -84 9 -168 109 -168s108 83 108 168z" />
    <glyph glyph-name="oacute" unicode="&#xf3;" horiz-adv-x="601" 
d="M419 708c0 -10 -8 -23 -18 -35l-53 -65c-16 -20 -39 -31 -76 -31c-24 0 -34 9 -34 24c0 10 5 22 13 36l39 63c10 17 34 33 85 33c30 0 44 -10 44 -25zM558 262c0 -180 -66 -274 -260 -274s-255 94 -255 274c0 174 70 262 261 262c190 0 254 -88 254 -262zM409 262
c0 78 -9 156 -108 156s-109 -78 -109 -156c0 -84 9 -168 109 -168s108 83 108 168z" />
    <glyph glyph-name="ocircumflex" unicode="&#xf4;" horiz-adv-x="601" 
d="M453 601c0 -14 -10 -24 -34 -24c-35 0 -54 13 -69 31l-48 56l-47 -56c-15 -18 -34 -31 -66 -31c-21 0 -31 10 -31 24c0 10 6 24 16 37l48 64c9 12 31 31 83 31s76 -20 84 -31l48 -64c10 -13 16 -27 16 -37zM558 262c0 -180 -66 -274 -260 -274s-255 94 -255 274
c0 174 70 262 261 262c190 0 254 -88 254 -262zM409 262c0 78 -9 156 -108 156s-109 -78 -109 -156c0 -84 9 -168 109 -168s108 83 108 168z" />
    <glyph glyph-name="otilde" unicode="&#xf5;" horiz-adv-x="601" 
d="M475 698c0 -66 -38 -115 -109 -115c-58 0 -95 56 -126 56c-23 0 -32 -16 -32 -27c0 -15 -12 -27 -37 -27s-40 12 -40 27c0 66 38 115 109 115c58 0 95 -56 126 -56c23 0 32 16 32 27c0 15 12 27 37 27s40 -12 40 -27zM558 262c0 -180 -66 -274 -260 -274
s-255 94 -255 274c0 174 70 262 261 262c190 0 254 -88 254 -262zM409 262c0 78 -9 156 -108 156s-109 -78 -109 -156c0 -84 9 -168 109 -168s108 83 108 168z" />
    <glyph glyph-name="odieresis" unicode="&#xf6;" horiz-adv-x="601" 
d="M471 657c0 -48 -18 -75 -70 -75s-69 27 -69 75c0 46 20 72 70 72s69 -26 69 -72zM275 657c0 -48 -18 -75 -70 -75s-69 27 -69 75c0 46 20 72 70 72s69 -26 69 -72zM558 262c0 -180 -66 -274 -260 -274s-255 94 -255 274c0 174 70 262 261 262c190 0 254 -88 254 -262z
M409 262c0 78 -9 156 -108 156s-109 -78 -109 -156c0 -84 9 -168 109 -168s108 83 108 168z" />
    <glyph glyph-name="divide" unicode="&#xf7;" horiz-adv-x="616" 
d="M385 428c0 -46 -20 -72 -80 -72c-59 0 -81 26 -81 72c0 43 24 70 81 70s80 -27 80 -70zM555 256c0 -32 -16 -52 -59 -52h-376c-43 0 -60 20 -60 52s17 52 60 52h376c43 0 59 -20 59 -52zM385 87c0 -46 -20 -73 -80 -73c-59 0 -81 27 -81 73c0 43 24 69 81 69
s80 -26 80 -69z" />
    <glyph glyph-name="oslash" unicode="&#xf8;" horiz-adv-x="601" 
d="M569 500c0 -11 -7 -23 -19 -36l-29 -31c26 -42 37 -100 37 -171c0 -180 -66 -274 -260 -274c-69 0 -121 13 -159 38l-13 -14c-9 -10 -29 -21 -57 -21c-24 0 -37 7 -37 21c0 11 7 23 19 36l30 32c-27 45 -38 106 -38 182c0 174 70 262 261 262c69 0 121 -12 160 -37l12 13
c8 9 27 21 57 21c24 0 36 -7 36 -21zM197 197l177 195c-16 16 -39 26 -73 26c-99 0 -109 -78 -109 -156c0 -23 0 -46 5 -65zM409 262c0 18 -1 38 -5 53l-176 -195c16 -16 39 -26 73 -26c100 0 108 83 108 168z" />
    <glyph glyph-name="ugrave" unicode="&#xf9;" horiz-adv-x="595" 
d="M363 601c0 -15 -10 -24 -34 -24c-37 0 -60 11 -76 31l-53 65c-10 12 -18 25 -18 35c0 15 14 25 44 25c51 0 75 -16 85 -33l39 -63c8 -14 13 -26 13 -36zM531 458v-377c0 -43 -18 -64 -60 -73s-112 -20 -177 -20c-201 0 -230 61 -230 262v208c0 40 20 63 74 63
s72 -23 72 -63v-208c0 -124 17 -152 93 -152c29 0 60 6 82 12v348c0 40 20 63 74 63s72 -23 72 -63z" />
    <glyph glyph-name="uacute" unicode="&#xfa;" horiz-adv-x="595" 
d="M413 708c0 -10 -7 -23 -17 -35l-53 -65c-16 -20 -39 -31 -76 -31c-24 0 -34 9 -34 24c0 10 5 22 13 36l38 63c10 17 34 33 85 33c30 0 44 -10 44 -25zM531 458v-377c0 -43 -18 -64 -60 -73s-112 -20 -177 -20c-201 0 -230 61 -230 262v208c0 40 20 63 74 63
s72 -23 72 -63v-208c0 -124 17 -152 93 -152c29 0 60 6 82 12v348c0 40 20 63 74 63s72 -23 72 -63z" />
    <glyph glyph-name="ucircumflex" unicode="&#xfb;" horiz-adv-x="595" 
d="M447 601c0 -14 -10 -24 -34 -24c-35 0 -53 13 -68 31l-48 56l-47 -56c-15 -18 -34 -31 -66 -31c-21 0 -31 10 -31 24c0 10 6 24 16 37l48 64c9 12 30 31 82 31s77 -20 85 -31l48 -64c10 -13 15 -27 15 -37zM531 458v-377c0 -43 -18 -64 -60 -73s-112 -20 -177 -20
c-201 0 -230 61 -230 262v208c0 40 20 63 74 63s72 -23 72 -63v-208c0 -124 17 -152 93 -152c29 0 60 6 82 12v348c0 40 20 63 74 63s72 -23 72 -63z" />
    <glyph glyph-name="udieresis" unicode="&#xfc;" horiz-adv-x="595" 
d="M466 657c0 -48 -19 -75 -71 -75s-69 27 -69 75c0 46 21 72 71 72s69 -26 69 -72zM270 657c0 -48 -18 -75 -70 -75s-70 27 -70 75c0 46 21 72 71 72s69 -26 69 -72zM531 458v-377c0 -43 -18 -64 -60 -73s-112 -20 -177 -20c-201 0 -230 61 -230 262v208c0 40 20 63 74 63
s72 -23 72 -63v-208c0 -124 17 -152 93 -152c29 0 60 6 82 12v348c0 40 20 63 74 63s72 -23 72 -63z" />
    <glyph glyph-name="yacute" unicode="&#xfd;" horiz-adv-x="549" 
d="M390 708c0 -10 -8 -23 -18 -35l-53 -65c-16 -20 -39 -31 -76 -31c-24 0 -34 9 -34 24c0 10 5 22 13 36l39 63c10 17 34 33 85 33c30 0 44 -10 44 -25zM521 464c0 -8 -3 -22 -6 -30l-167 -448c-63 -169 -95 -210 -206 -210c-23 0 -47 2 -59 5c-28 6 -44 22 -44 55
c0 38 24 56 50 56c7 0 28 -3 36 -3c26 0 48 14 68 75l7 24l-166 446c-2 6 -6 22 -6 30c0 40 24 57 78 57c44 0 67 -20 76 -51l96 -319l100 319c10 31 28 52 71 52c52 0 72 -18 72 -58z" />
    <glyph glyph-name="thorn" unicode="&#xfe;" horiz-adv-x="607" 
d="M565 262c0 -184 -79 -274 -231 -274c-47 0 -93 9 -121 18v-164c0 -40 -20 -63 -74 -63s-72 23 -72 63v828c0 40 20 63 74 63s72 -23 72 -63v-165c26 8 75 19 129 19c158 0 223 -88 223 -262zM415 262c0 78 -10 156 -106 156c-45 0 -83 -8 -96 -13v-297
c16 -7 56 -14 96 -14c98 0 106 82 106 168z" />
    <glyph glyph-name="ydieresis" unicode="&#xff;" horiz-adv-x="549" 
d="M442 657c0 -48 -18 -75 -70 -75s-69 27 -69 75c0 46 20 72 70 72s69 -26 69 -72zM246 657c0 -48 -18 -75 -70 -75s-69 27 -69 75c0 46 20 72 70 72s69 -26 69 -72zM521 464c0 -8 -3 -22 -6 -30l-167 -448c-63 -169 -95 -210 -206 -210c-23 0 -47 2 -59 5
c-28 6 -44 22 -44 55c0 38 24 56 50 56c7 0 28 -3 36 -3c26 0 48 14 68 75l7 24l-166 446c-2 6 -6 22 -6 30c0 40 24 57 78 57c44 0 67 -20 76 -51l96 -319l100 319c10 31 28 52 71 52c52 0 72 -18 72 -58z" />
    <glyph glyph-name="Amacron" unicode="&#x100;" horiz-adv-x="682" 
d="M502 823c0 -27 -15 -43 -52 -43h-218c-37 0 -52 16 -52 43s15 44 52 44h218c37 0 52 -17 52 -44zM658 48c0 -41 -30 -57 -76 -57c-41 0 -66 19 -76 50l-40 122h-259l-40 -125c-10 -31 -31 -47 -72 -47c-51 0 -71 14 -71 53c0 8 3 22 7 34l192 549c12 35 39 64 118 64
c78 0 106 -27 119 -64l191 -548c3 -9 7 -24 7 -31zM241 275h191l-95 302z" />
    <glyph glyph-name="amacron" unicode="&#x101;" horiz-adv-x="571" 
d="M456 655c0 -27 -15 -43 -52 -43h-218c-37 0 -53 16 -53 43s16 44 53 44h218c37 0 52 -17 52 -44zM507 362v-281c0 -43 -19 -64 -61 -73c-40 -9 -117 -20 -182 -20c-171 0 -225 49 -225 159c0 95 60 164 258 164h65v35c0 49 -26 70 -101 70c-54 0 -103 -11 -128 -11
c-26 0 -51 13 -51 50c0 33 17 45 45 51c48 10 110 18 168 18c156 0 212 -49 212 -162zM362 100v130h-45c-114 0 -135 -35 -135 -77c0 -37 17 -65 91 -65c30 0 65 6 89 12z" />
    <glyph glyph-name="Abreve" unicode="&#x102;" horiz-adv-x="682" 
d="M495 871c0 -70 -44 -123 -154 -123s-155 53 -155 123c0 18 12 30 40 30s41 -13 41 -30c0 -32 24 -61 74 -61s74 29 74 61c0 17 12 30 40 30s40 -12 40 -30zM658 48c0 -41 -30 -57 -76 -57c-41 0 -66 19 -76 50l-40 122h-259l-40 -125c-10 -31 -31 -47 -72 -47
c-51 0 -71 14 -71 53c0 8 3 22 7 34l192 549c12 35 39 64 118 64c78 0 106 -27 119 -64l191 -548c3 -9 7 -24 7 -31zM241 275h191l-95 302z" />
    <glyph glyph-name="abreve" unicode="&#x103;" horiz-adv-x="571" 
d="M448 703c0 -70 -44 -123 -154 -123s-155 53 -155 123c0 18 12 30 40 30s41 -13 41 -30c0 -32 24 -61 74 -61s74 29 74 61c0 17 12 30 40 30s40 -12 40 -30zM507 362v-281c0 -43 -19 -64 -61 -73c-40 -9 -117 -20 -182 -20c-171 0 -225 49 -225 159c0 95 60 164 258 164
h65v35c0 49 -26 70 -101 70c-54 0 -103 -11 -128 -11c-26 0 -51 13 -51 50c0 33 17 45 45 51c48 10 110 18 168 18c156 0 212 -49 212 -162zM362 100v130h-45c-114 0 -135 -35 -135 -77c0 -37 17 -65 91 -65c30 0 65 6 89 12z" />
    <glyph glyph-name="Aogonek" unicode="&#x104;" horiz-adv-x="682" 
d="M766 -141c0 -22 -13 -31 -34 -36c-30 -7 -84 -14 -139 -14c-119 0 -157 44 -157 101c0 38 36 77 81 98l-51 155h-259l-40 -125c-10 -31 -31 -47 -72 -47c-51 0 -71 14 -71 53c0 8 3 22 7 34l192 549c12 35 39 64 118 64c78 0 106 -27 119 -64l191 -548c3 -9 7 -24 7 -31
c0 -58 -82 -70 -82 -125c0 -25 26 -44 67 -44c38 0 68 13 85 13c22 0 38 -13 38 -33zM241 275h191l-95 302z" />
    <glyph glyph-name="aogonek" unicode="&#x105;" horiz-adv-x="571" 
d="M602 -141c0 -22 -13 -31 -34 -36c-30 -7 -84 -14 -139 -14c-119 0 -157 44 -157 101c0 31 21 58 49 83c-13 -2 -39 -5 -57 -5c-171 0 -225 49 -225 159c0 95 60 164 258 164h65v35c0 49 -26 70 -101 70c-54 0 -103 -11 -128 -11c-26 0 -51 13 -51 50c0 33 17 45 45 51
c48 10 110 18 168 18c156 0 212 -49 212 -162v-281c0 -76 -95 -93 -95 -158c0 -25 26 -44 67 -44c38 0 68 13 85 13c22 0 38 -13 38 -33zM362 100v130h-45c-114 0 -135 -35 -135 -77c0 -37 17 -65 91 -65c30 0 65 6 89 12z" />
    <glyph glyph-name="Cacute" unicode="&#x106;" horiz-adv-x="564" 
d="M427 876c0 -10 -8 -23 -18 -35l-53 -65c-16 -20 -39 -31 -76 -31c-24 0 -34 9 -34 24c0 10 5 22 13 36l39 63c10 17 34 33 85 33c30 0 44 -10 44 -25zM526 62c0 -34 -17 -46 -43 -56c-27 -10 -67 -18 -151 -18c-225 0 -284 122 -284 359c0 228 96 345 304 345
c57 0 99 -8 123 -17c26 -10 43 -23 43 -57c0 -36 -18 -56 -49 -56c-23 0 -55 11 -97 11c-141 0 -164 -114 -164 -226c0 -125 17 -238 164 -238c45 0 82 11 105 11c31 0 49 -22 49 -58z" />
    <glyph glyph-name="cacute" unicode="&#x107;" horiz-adv-x="475" 
d="M381 708c0 -10 -8 -23 -18 -35l-53 -65c-16 -20 -39 -31 -76 -31c-24 0 -34 9 -34 24c0 10 5 22 13 36l39 63c10 17 34 33 85 33c30 0 44 -10 44 -25zM443 54c0 -30 -9 -43 -35 -51c-28 -9 -79 -15 -126 -15c-185 0 -239 94 -239 274c0 174 79 262 258 262
c37 0 76 -6 100 -14c26 -9 36 -19 36 -49c0 -32 -11 -51 -42 -51c-15 0 -58 8 -83 8c-104 0 -120 -76 -120 -156c0 -93 13 -166 120 -166c29 0 76 8 90 8c31 0 41 -18 41 -50z" />
    <glyph glyph-name="Ccircumflex" unicode="&#x108;" horiz-adv-x="564" 
d="M461 769c0 -14 -10 -24 -34 -24c-35 0 -53 13 -68 31l-48 56l-47 -56c-15 -18 -34 -31 -66 -31c-21 0 -31 10 -31 24c0 10 5 24 15 37l48 64c9 12 31 31 83 31s76 -20 84 -31l48 -64c10 -13 16 -27 16 -37zM526 62c0 -34 -17 -46 -43 -56c-27 -10 -67 -18 -151 -18
c-225 0 -284 122 -284 359c0 228 96 345 304 345c57 0 99 -8 123 -17c26 -10 43 -23 43 -57c0 -36 -18 -56 -49 -56c-23 0 -55 11 -97 11c-141 0 -164 -114 -164 -226c0 -125 17 -238 164 -238c45 0 82 11 105 11c31 0 49 -22 49 -58z" />
    <glyph glyph-name="ccircumflex" unicode="&#x109;" horiz-adv-x="475" 
d="M417 601c0 -14 -10 -24 -34 -24c-35 0 -53 13 -68 31l-49 56l-47 -56c-15 -18 -33 -31 -65 -31c-21 0 -32 10 -32 24c0 10 6 24 16 37l48 64c9 12 31 31 83 31s76 -20 84 -31l48 -64c10 -13 16 -27 16 -37zM443 54c0 -30 -9 -43 -35 -51c-28 -9 -79 -15 -126 -15
c-185 0 -239 94 -239 274c0 174 79 262 258 262c37 0 76 -6 100 -14c26 -9 36 -19 36 -49c0 -32 -11 -51 -42 -51c-15 0 -58 8 -83 8c-104 0 -120 -76 -120 -156c0 -93 13 -166 120 -166c29 0 76 8 90 8c31 0 41 -18 41 -50z" />
    <glyph glyph-name="Cdotaccent" unicode="&#x10a;" horiz-adv-x="564" 
d="M397 825c0 -48 -22 -75 -86 -75s-84 27 -84 75c0 46 24 72 86 72s84 -26 84 -72zM526 62c0 -34 -17 -46 -43 -56c-27 -10 -67 -18 -151 -18c-225 0 -284 122 -284 359c0 228 96 345 304 345c57 0 99 -8 123 -17c26 -10 43 -23 43 -57c0 -36 -18 -56 -49 -56
c-23 0 -55 11 -97 11c-141 0 -164 -114 -164 -226c0 -125 17 -238 164 -238c45 0 82 11 105 11c31 0 49 -22 49 -58z" />
    <glyph glyph-name="cdotaccent" unicode="&#x10b;" horiz-adv-x="475" 
d="M352 657c0 -48 -22 -75 -86 -75s-84 27 -84 75c0 46 24 72 86 72s84 -26 84 -72zM443 54c0 -30 -9 -43 -35 -51c-28 -9 -79 -15 -126 -15c-185 0 -239 94 -239 274c0 174 79 262 258 262c37 0 76 -6 100 -14c26 -9 36 -19 36 -49c0 -32 -11 -51 -42 -51
c-15 0 -58 8 -83 8c-104 0 -120 -76 -120 -156c0 -93 13 -166 120 -166c29 0 76 8 90 8c31 0 41 -18 41 -50z" />
    <glyph glyph-name="Ccaron" unicode="&#x10c;" horiz-adv-x="564" 
d="M461 877c0 -10 -6 -24 -16 -37l-48 -64c-9 -12 -30 -31 -82 -31s-77 20 -85 31l-48 64c-10 13 -15 27 -15 37c0 14 10 24 34 24c35 0 53 -13 68 -31l48 -56l47 56c15 18 34 31 66 31c21 0 31 -10 31 -24zM526 62c0 -34 -17 -46 -43 -56c-27 -10 -67 -18 -151 -18
c-225 0 -284 122 -284 359c0 228 96 345 304 345c57 0 99 -8 123 -17c26 -10 43 -23 43 -57c0 -36 -18 -56 -49 -56c-23 0 -55 11 -97 11c-141 0 -164 -114 -164 -226c0 -125 17 -238 164 -238c45 0 82 11 105 11c31 0 49 -22 49 -58z" />
    <glyph glyph-name="ccaron" unicode="&#x10d;" horiz-adv-x="475" 
d="M415 709c0 -10 -5 -24 -15 -37l-48 -64c-9 -12 -31 -31 -83 -31s-76 20 -84 31l-48 64c-10 13 -16 27 -16 37c0 14 10 24 34 24c35 0 53 -13 68 -31l48 -56l47 56c15 18 34 31 66 31c21 0 31 -10 31 -24zM443 54c0 -30 -9 -43 -35 -51c-28 -9 -79 -15 -126 -15
c-185 0 -239 94 -239 274c0 174 79 262 258 262c37 0 76 -6 100 -14c26 -9 36 -19 36 -49c0 -32 -11 -51 -42 -51c-15 0 -58 8 -83 8c-104 0 -120 -76 -120 -156c0 -93 13 -166 120 -166c29 0 76 8 90 8c31 0 41 -18 41 -50z" />
    <glyph glyph-name="Dcaron" unicode="&#x10e;" horiz-adv-x="705" 
d="M504 877c0 -10 -6 -24 -16 -37l-48 -64c-9 -12 -30 -31 -82 -31s-76 20 -84 31l-49 64c-10 13 -15 27 -15 37c0 14 10 24 34 24c35 0 53 -13 68 -31l48 -56l47 56c15 18 34 31 66 31c21 0 31 -10 31 -24zM657 347c0 -240 -79 -347 -366 -347h-129c-62 0 -85 26 -85 71
v538c0 45 23 71 85 71h137c297 0 358 -117 358 -333zM497 347c0 141 -22 220 -187 220h-78v-454h70c164 0 195 71 195 234z" />
    <glyph glyph-name="dcaron" unicode="&#x10f;" horiz-adv-x="727" 
d="M736 700c0 -7 -5 -17 -10 -27l-33 -65c-12 -23 -37 -31 -71 -31c-28 0 -40 14 -40 34c0 8 2 16 5 26l18 57c7 23 28 39 79 39c30 0 52 -12 52 -33zM540 670v-590c0 -43 -18 -64 -60 -73c-43 -9 -116 -19 -191 -19c-190 0 -246 94 -246 274c0 174 83 262 231 262
c44 0 92 -9 120 -18v164c0 40 20 63 74 63s72 -23 72 -63zM394 107v297c-18 7 -56 14 -96 14c-95 0 -106 -78 -106 -156c0 -85 9 -168 106 -168c39 0 82 7 96 13z" />
    <glyph glyph-name="Dcroat" unicode="&#x110;" horiz-adv-x="705" 
d="M657 347c0 -240 -79 -347 -366 -347h-129c-62 0 -85 26 -85 71v230h-29c-44 0 -62 20 -62 53c0 34 18 53 62 53h29v202c0 45 23 71 85 71h137c297 0 358 -117 358 -333zM497 347c0 141 -22 220 -187 220h-78v-160h66c44 0 63 -19 63 -53c0 -33 -19 -53 -63 -53h-66v-188
h70c164 0 195 71 195 234z" />
    <glyph glyph-name="dcroat" unicode="&#x111;" horiz-adv-x="607" 
d="M614 615c0 -25 -14 -40 -47 -40h-27v-495c0 -43 -18 -64 -60 -73c-43 -9 -116 -19 -191 -19c-190 0 -246 94 -246 274c0 174 83 262 231 262c44 0 92 -9 120 -18v69h-58c-33 0 -47 15 -47 40s14 39 47 39h58v23c0 34 20 56 74 56s72 -22 72 -56v-23h27
c33 0 47 -14 47 -39zM394 107v297c-18 7 -56 14 -96 14c-95 0 -106 -78 -106 -156c0 -85 9 -168 106 -168c39 0 82 7 96 13z" />
    <glyph glyph-name="Emacron" unicode="&#x112;" horiz-adv-x="581" 
d="M462 823c0 -27 -15 -43 -52 -43h-218c-37 0 -52 16 -52 43s15 44 52 44h218c37 0 52 -17 52 -44zM535 59c0 -37 -20 -59 -77 -59h-296c-62 0 -85 26 -85 71v538c0 45 23 71 85 71h284c57 0 77 -21 77 -58s-20 -59 -77 -59h-214v-161h196c57 0 77 -20 77 -57
s-20 -57 -77 -57h-196v-171h226c57 0 77 -21 77 -58z" />
    <glyph glyph-name="emacron" unicode="&#x113;" horiz-adv-x="553" 
d="M447 655c0 -27 -16 -43 -53 -43h-218c-37 0 -52 16 -52 43s15 44 52 44h218c37 0 53 -17 53 -44zM513 286c0 -40 -20 -63 -73 -63h-254c0 -74 20 -127 135 -127c45 0 97 12 118 12c26 0 50 -15 50 -52c0 -33 -16 -47 -44 -53c-39 -9 -104 -15 -183 -15
c-171 0 -219 95 -219 274c0 168 70 262 242 262c167 0 228 -93 228 -238zM186 306h194c-1 61 -12 120 -98 120c-85 0 -95 -60 -96 -120z" />
    <glyph glyph-name="Ebreve" unicode="&#x114;" horiz-adv-x="581" 
d="M455 871c0 -70 -45 -123 -155 -123s-154 53 -154 123c0 18 12 30 40 30s41 -13 41 -30c0 -32 23 -61 73 -61s74 29 74 61c0 17 12 30 40 30s41 -12 41 -30zM535 59c0 -37 -20 -59 -77 -59h-296c-62 0 -85 26 -85 71v538c0 45 23 71 85 71h284c57 0 77 -21 77 -58
s-20 -59 -77 -59h-214v-161h196c57 0 77 -20 77 -57s-20 -57 -77 -57h-196v-171h226c57 0 77 -21 77 -58z" />
    <glyph glyph-name="ebreve" unicode="&#x115;" horiz-adv-x="553" 
d="M440 703c0 -70 -45 -123 -155 -123s-154 53 -154 123c0 18 12 30 40 30s41 -13 41 -30c0 -32 23 -61 73 -61s74 29 74 61c0 17 12 30 40 30s41 -12 41 -30zM513 286c0 -40 -20 -63 -73 -63h-254c0 -74 20 -127 135 -127c45 0 97 12 118 12c26 0 50 -15 50 -52
c0 -33 -16 -47 -44 -53c-39 -9 -104 -15 -183 -15c-171 0 -219 95 -219 274c0 168 70 262 242 262c167 0 228 -93 228 -238zM186 306h194c-1 61 -12 120 -98 120c-85 0 -95 -60 -96 -120z" />
    <glyph glyph-name="Edotaccent" unicode="&#x116;" horiz-adv-x="581" 
d="M386 825c0 -48 -22 -75 -86 -75s-84 27 -84 75c0 46 24 72 86 72s84 -26 84 -72zM535 59c0 -37 -20 -59 -77 -59h-296c-62 0 -85 26 -85 71v538c0 45 23 71 85 71h284c57 0 77 -21 77 -58s-20 -59 -77 -59h-214v-161h196c57 0 77 -20 77 -57s-20 -57 -77 -57h-196v-171
h226c57 0 77 -21 77 -58z" />
    <glyph glyph-name="edotaccent" unicode="&#x117;" horiz-adv-x="553" 
d="M371 657c0 -48 -22 -75 -86 -75s-84 27 -84 75c0 46 24 72 86 72s84 -26 84 -72zM513 286c0 -40 -20 -63 -73 -63h-254c0 -74 20 -127 135 -127c45 0 97 12 118 12c26 0 50 -15 50 -52c0 -33 -16 -47 -44 -53c-39 -9 -104 -15 -183 -15c-171 0 -219 95 -219 274
c0 168 70 262 242 262c167 0 228 -93 228 -238zM186 306h194c-1 61 -12 120 -98 120c-85 0 -95 -60 -96 -120z" />
    <glyph glyph-name="Eogonek" unicode="&#x118;" horiz-adv-x="581" 
d="M621 -141c0 -22 -12 -31 -33 -36c-30 -7 -84 -14 -139 -14c-119 0 -157 44 -157 101c0 38 31 73 78 90h-208c-62 0 -85 26 -85 71v538c0 45 23 71 85 71h284c57 0 77 -21 77 -58s-20 -59 -77 -59h-214v-161h196c57 0 77 -20 77 -57s-20 -57 -77 -57h-196v-171h226
c57 0 77 -21 77 -58c0 -68 -103 -78 -103 -136c0 -25 26 -44 67 -44c38 0 67 13 84 13c22 0 38 -13 38 -33z" />
    <glyph glyph-name="eogonek" unicode="&#x119;" horiz-adv-x="553" 
d="M575 -141c0 -22 -13 -31 -34 -36c-30 -7 -83 -14 -138 -14c-119 0 -158 44 -158 101c0 26 23 56 54 80c-11 -1 -25 -2 -37 -2c-171 0 -219 95 -219 274c0 168 70 262 242 262c167 0 228 -93 228 -238c0 -40 -20 -63 -73 -63h-254c0 -74 20 -127 135 -127
c45 0 97 12 118 12c26 0 50 -15 50 -52c0 -56 -103 -75 -103 -133c0 -25 25 -44 66 -44c38 0 68 13 85 13c22 0 38 -13 38 -33zM186 306h194c-1 61 -12 120 -98 120c-85 0 -95 -60 -96 -120z" />
    <glyph glyph-name="Ecaron" unicode="&#x11a;" horiz-adv-x="581" 
d="M450 877c0 -10 -6 -24 -16 -37l-48 -64c-9 -12 -30 -31 -82 -31s-76 20 -84 31l-48 64c-10 13 -16 27 -16 37c0 14 10 24 34 24c35 0 53 -13 68 -31l48 -56l47 56c15 18 34 31 66 31c21 0 31 -10 31 -24zM535 59c0 -37 -20 -59 -77 -59h-296c-62 0 -85 26 -85 71v538
c0 45 23 71 85 71h284c57 0 77 -21 77 -58s-20 -59 -77 -59h-214v-161h196c57 0 77 -20 77 -57s-20 -57 -77 -57h-196v-171h226c57 0 77 -21 77 -58z" />
    <glyph glyph-name="ecaron" unicode="&#x11b;" horiz-adv-x="553" 
d="M434 709c0 -10 -6 -24 -16 -37l-48 -64c-9 -12 -31 -31 -83 -31s-76 20 -84 31l-48 64c-10 13 -16 27 -16 37c0 14 10 24 34 24c35 0 54 -13 69 -31l48 -56l47 56c15 18 34 31 66 31c21 0 31 -10 31 -24zM513 286c0 -40 -20 -63 -73 -63h-254c0 -74 20 -127 135 -127
c45 0 97 12 118 12c26 0 50 -15 50 -52c0 -33 -16 -47 -44 -53c-39 -9 -104 -15 -183 -15c-171 0 -219 95 -219 274c0 168 70 262 242 262c167 0 228 -93 228 -238zM186 306h194c-1 61 -12 120 -98 120c-85 0 -95 -60 -96 -120z" />
    <glyph glyph-name="Gcircumflex" unicode="&#x11c;" horiz-adv-x="663" 
d="M490 769c0 -14 -10 -24 -34 -24c-35 0 -54 13 -69 31l-48 56l-47 -56c-15 -18 -34 -31 -66 -31c-21 0 -31 10 -31 24c0 10 6 24 16 37l48 64c9 12 31 31 83 31s76 -20 84 -31l48 -64c10 -13 16 -27 16 -37zM596 324v-233c0 -48 -21 -71 -68 -82
c-41 -10 -117 -21 -187 -21c-231 0 -293 122 -293 359c0 228 112 345 334 345c70 0 122 -8 150 -17c26 -9 43 -23 43 -57c0 -36 -17 -54 -48 -54c-28 0 -67 12 -131 12c-171 0 -188 -113 -188 -229c0 -129 13 -248 142 -248c48 0 89 8 103 14v168h-54c-37 0 -51 19 -51 55
s14 54 51 54h120c57 0 77 -25 77 -66z" />
    <glyph glyph-name="gcircumflex" unicode="&#x11d;" horiz-adv-x="607" 
d="M456 601c0 -14 -10 -24 -34 -24c-35 0 -53 13 -68 31l-49 56l-47 -56c-15 -18 -33 -31 -65 -31c-21 0 -32 10 -32 24c0 10 6 24 16 37l48 64c9 12 31 31 83 31s76 -20 84 -31l48 -64c10 -13 16 -27 16 -37zM540 433v-491c0 -125 -107 -166 -229 -166
c-83 0 -147 6 -187 14c-28 6 -44 19 -44 52c0 37 24 51 50 51c30 0 82 -11 136 -11c74 0 128 21 128 89v49c-21 -8 -75 -20 -128 -20c-171 0 -223 89 -223 262c0 174 77 262 264 262c65 0 132 -9 173 -18c42 -9 60 -30 60 -73zM394 119v286c-19 6 -57 13 -96 13
c-89 0 -106 -79 -106 -156c0 -79 12 -156 106 -156c39 0 78 6 96 13z" />
    <glyph glyph-name="Gbreve" unicode="&#x11e;" horiz-adv-x="663" 
d="M496 871c0 -70 -45 -123 -155 -123s-154 53 -154 123c0 18 12 30 40 30s40 -13 40 -30c0 -32 24 -61 74 -61s74 29 74 61c0 17 12 30 40 30s41 -12 41 -30zM596 324v-233c0 -48 -21 -71 -68 -82c-41 -10 -117 -21 -187 -21c-231 0 -293 122 -293 359
c0 228 112 345 334 345c70 0 122 -8 150 -17c26 -9 43 -23 43 -57c0 -36 -17 -54 -48 -54c-28 0 -67 12 -131 12c-171 0 -188 -113 -188 -229c0 -129 13 -248 142 -248c48 0 89 8 103 14v168h-54c-37 0 -51 19 -51 55s14 54 51 54h120c57 0 77 -25 77 -66z" />
    <glyph glyph-name="gbreve" unicode="&#x11f;" horiz-adv-x="607" 
d="M461 703c0 -70 -45 -123 -155 -123s-154 53 -154 123c0 18 12 30 40 30s40 -13 40 -30c0 -32 24 -61 74 -61s74 29 74 61c0 17 12 30 40 30s41 -12 41 -30zM540 433v-491c0 -125 -107 -166 -229 -166c-83 0 -147 6 -187 14c-28 6 -44 19 -44 52c0 37 24 51 50 51
c30 0 82 -11 136 -11c74 0 128 21 128 89v49c-21 -8 -75 -20 -128 -20c-171 0 -223 89 -223 262c0 174 77 262 264 262c65 0 132 -9 173 -18c42 -9 60 -30 60 -73zM394 119v286c-19 6 -57 13 -96 13c-89 0 -106 -79 -106 -156c0 -79 12 -156 106 -156c39 0 78 6 96 13z" />
    <glyph glyph-name="Gdotaccent" unicode="&#x120;" horiz-adv-x="663" 
d="M426 825c0 -48 -22 -75 -86 -75s-85 27 -85 75c0 46 24 72 86 72s85 -26 85 -72zM596 324v-233c0 -48 -21 -71 -68 -82c-41 -10 -117 -21 -187 -21c-231 0 -293 122 -293 359c0 228 112 345 334 345c70 0 122 -8 150 -17c26 -9 43 -23 43 -57c0 -36 -17 -54 -48 -54
c-28 0 -67 12 -131 12c-171 0 -188 -113 -188 -229c0 -129 13 -248 142 -248c48 0 89 8 103 14v168h-54c-37 0 -51 19 -51 55s14 54 51 54h120c57 0 77 -25 77 -66z" />
    <glyph glyph-name="gdotaccent" unicode="&#x121;" horiz-adv-x="607" 
d="M393 657c0 -48 -22 -75 -86 -75s-85 27 -85 75c0 46 24 72 86 72s85 -26 85 -72zM540 433v-491c0 -125 -107 -166 -229 -166c-83 0 -147 6 -187 14c-28 6 -44 19 -44 52c0 37 24 51 50 51c30 0 82 -11 136 -11c74 0 128 21 128 89v49c-21 -8 -75 -20 -128 -20
c-171 0 -223 89 -223 262c0 174 77 262 264 262c65 0 132 -9 173 -18c42 -9 60 -30 60 -73zM394 119v286c-19 6 -57 13 -96 13c-89 0 -106 -79 -106 -156c0 -79 12 -156 106 -156c39 0 78 6 96 13z" />
    <glyph glyph-name="Gcommaaccent" unicode="&#x122;" horiz-adv-x="663" 
d="M596 324v-233c0 -48 -21 -71 -68 -82c-41 -10 -117 -21 -187 -21c-231 0 -293 122 -293 359c0 228 112 345 334 345c70 0 122 -8 150 -17c26 -9 43 -23 43 -57c0 -36 -17 -54 -48 -54c-28 0 -67 12 -131 12c-171 0 -188 -113 -188 -229c0 -129 13 -248 142 -248
c48 0 89 8 103 14v168h-54c-37 0 -51 19 -51 55s14 54 51 54h120c57 0 77 -25 77 -66zM421 -86c0 -23 -24 -54 -79 -120c-9 -11 -23 -15 -39 -15c-13 0 -18 5 -18 12c0 4 1 8 4 11l51 67c-56 0 -80 16 -80 45c0 27 23 44 80 44s81 -17 81 -44z" />
    <glyph glyph-name="gcommaaccent" unicode="&#x123;" horiz-adv-x="607" 
d="M387 618c0 -27 -23 -44 -80 -44s-81 17 -81 44c0 23 24 54 79 120c9 11 23 15 39 15c13 0 19 -5 19 -12c0 -4 -2 -8 -5 -11l-51 -67c56 0 80 -16 80 -45zM540 433v-491c0 -125 -107 -166 -229 -166c-83 0 -147 6 -187 14c-28 6 -44 19 -44 52c0 37 24 51 50 51
c30 0 82 -11 136 -11c74 0 128 21 128 89v49c-21 -8 -75 -20 -128 -20c-171 0 -223 89 -223 262c0 174 77 262 264 262c65 0 132 -9 173 -18c42 -9 60 -30 60 -73zM394 119v286c-19 6 -57 13 -96 13c-89 0 -106 -79 -106 -156c0 -79 12 -156 106 -156c39 0 78 6 96 13z" />
    <glyph glyph-name="Hcircumflex" unicode="&#x124;" horiz-adv-x="699" 
d="M499 769c0 -14 -10 -24 -34 -24c-35 0 -53 13 -68 31l-49 56l-47 -56c-15 -18 -33 -31 -65 -31c-21 0 -32 10 -32 24c0 10 6 24 16 37l48 64c9 12 31 31 83 31s76 -20 84 -31l48 -64c10 -13 16 -27 16 -37zM622 624v-568c0 -41 -21 -65 -78 -65s-77 24 -77 65v233h-235
v-233c0 -41 -21 -65 -78 -65s-77 24 -77 65v568c0 41 21 65 78 65s77 -24 77 -65v-213h235v213c0 41 21 65 78 65s77 -24 77 -65z" />
    <glyph glyph-name="hcircumflex" unicode="&#x125;" horiz-adv-x="604" 
d="M451 769c0 -14 -10 -24 -34 -24c-35 0 -53 13 -68 31l-48 56l-47 -56c-15 -18 -34 -31 -66 -31c-21 0 -31 10 -31 24c0 10 6 24 16 37l48 64c9 12 30 31 82 31s77 -20 85 -31l48 -64c10 -13 15 -27 15 -37zM537 262v-208c0 -40 -20 -63 -74 -63s-72 23 -72 63v208
c0 124 -20 152 -95 152c-31 0 -69 -7 -83 -12v-348c0 -40 -20 -63 -74 -63s-72 23 -72 63v616c0 40 20 63 74 63s72 -23 72 -63v-164c15 7 72 18 116 18c179 0 208 -67 208 -262z" />
    <glyph glyph-name="Hbar" unicode="&#x126;" horiz-adv-x="699" 
d="M696 550c0 -31 -15 -48 -50 -48h-24v-446c0 -41 -21 -65 -78 -65s-77 24 -77 65v233h-235v-233c0 -41 -21 -65 -78 -65s-77 24 -77 65v446h-24c-35 0 -49 17 -49 48s14 48 49 48h24v34c0 33 24 57 77 57s78 -24 78 -57v-33h235v33c0 33 24 57 77 57s78 -24 78 -57v-34h24
c35 0 50 -17 50 -48zM232 411h235v91h-235v-91z" />
    <glyph glyph-name="hbar" unicode="&#x127;" horiz-adv-x="604" 
d="M537 262v-208c0 -40 -20 -63 -74 -63s-72 23 -72 63v208c0 124 -20 152 -95 152c-31 0 -69 -7 -83 -12v-348c0 -40 -20 -63 -74 -63s-72 23 -72 63v521h-26c-33 0 -47 15 -47 40s14 39 47 39h26v23c0 34 20 56 74 56s72 -22 72 -56v-23h59c33 0 47 -14 47 -39
s-14 -40 -47 -40h-59v-69c15 7 72 18 116 18c179 0 208 -67 208 -262z" />
    <glyph glyph-name="Itilde" unicode="&#x128;" horiz-adv-x="309" 
d="M326 866c0 -66 -38 -115 -109 -115c-58 0 -95 56 -126 56c-23 0 -32 -16 -32 -27c0 -15 -12 -27 -37 -27s-40 12 -40 27c0 66 38 115 109 115c58 0 95 -56 126 -56c23 0 32 16 32 27c0 15 12 27 37 27s40 -12 40 -27zM232 624v-568c0 -41 -21 -65 -78 -65s-77 24 -77 65
v568c0 41 21 65 78 65s77 -24 77 -65z" />
    <glyph glyph-name="itilde" unicode="&#x129;" 
d="M312 698c0 -66 -38 -115 -109 -115c-58 0 -95 56 -126 56c-23 0 -32 -16 -32 -27c0 -15 -12 -27 -37 -27s-40 12 -40 27c0 66 38 115 109 115c58 0 95 -56 126 -56c23 0 32 16 32 27c0 15 12 27 37 27s40 -12 40 -27zM213 458v-404c0 -40 -20 -63 -74 -63s-72 23 -72 63
v404c0 40 20 63 74 63s72 -23 72 -63z" />
    <glyph glyph-name="Imacron" unicode="&#x12a;" horiz-adv-x="309" 
d="M315 823c0 -27 -15 -43 -52 -43h-218c-37 0 -52 16 -52 43s15 44 52 44h218c37 0 52 -17 52 -44zM232 624v-568c0 -41 -21 -65 -78 -65s-77 24 -77 65v568c0 41 21 65 78 65s77 -24 77 -65z" />
    <glyph glyph-name="imacron" unicode="&#x12b;" 
d="M301 655c0 -27 -15 -43 -52 -43h-218c-37 0 -52 16 -52 43s15 44 52 44h218c37 0 52 -17 52 -44zM213 458v-404c0 -40 -20 -63 -74 -63s-72 23 -72 63v404c0 40 20 63 74 63s72 -23 72 -63z" />
    <glyph glyph-name="Ibreve" unicode="&#x12c;" horiz-adv-x="309" 
d="M309 871c0 -70 -45 -123 -155 -123s-154 53 -154 123c0 18 12 30 40 30s40 -13 40 -30c0 -32 24 -61 74 -61s74 29 74 61c0 17 12 30 40 30s41 -12 41 -30zM232 624v-568c0 -41 -21 -65 -78 -65s-77 24 -77 65v568c0 41 21 65 78 65s77 -24 77 -65z" />
    <glyph glyph-name="ibreve" unicode="&#x12d;" 
d="M295 703c0 -70 -45 -123 -155 -123s-154 53 -154 123c0 18 12 30 40 30s40 -13 40 -30c0 -32 24 -61 74 -61s74 29 74 61c0 17 12 30 40 30s41 -12 41 -30zM213 458v-404c0 -40 -20 -63 -74 -63s-72 23 -72 63v404c0 40 20 63 74 63s72 -23 72 -63z" />
    <glyph glyph-name="Iogonek" unicode="&#x12e;" horiz-adv-x="309" 
d="M323 -141c0 -22 -13 -31 -34 -36c-30 -7 -84 -14 -139 -14c-119 0 -157 44 -157 101c0 53 47 80 102 99c-12 10 -18 27 -18 47v568c0 41 21 65 78 65s77 -24 77 -65v-568c0 -66 -99 -82 -99 -133c0 -25 26 -44 67 -44c38 0 68 13 85 13c22 0 38 -13 38 -33z" />
    <glyph glyph-name="iogonek" unicode="&#x12f;" 
d="M225 657c0 -48 -22 -75 -86 -75s-84 27 -84 75c0 46 24 72 86 72s84 -26 84 -72zM308 -141c0 -22 -12 -31 -33 -36c-30 -7 -84 -14 -139 -14c-119 0 -157 44 -157 101c0 48 46 84 109 94c-15 10 -21 28 -21 50v404c0 40 20 63 74 63s72 -23 72 -63v-404
c0 -69 -94 -80 -94 -131c0 -25 25 -44 66 -44c38 0 68 13 85 13c22 0 38 -13 38 -33z" />
    <glyph glyph-name="Idotaccent" unicode="&#x130;" horiz-adv-x="309" 
d="M239 825c0 -48 -22 -75 -86 -75s-84 27 -84 75c0 46 24 72 86 72s84 -26 84 -72zM232 624v-568c0 -41 -21 -65 -78 -65s-77 24 -77 65v568c0 41 21 65 78 65s77 -24 77 -65z" />
    <glyph glyph-name="dotlessi" unicode="&#x131;" 
d="M213 458v-404c0 -40 -20 -63 -74 -63s-72 23 -72 63v404c0 40 20 63 74 63s72 -23 72 -63z" />
    <glyph glyph-name="IJ" unicode="&#x132;" horiz-adv-x="700" 
d="M629 624v-435c0 -119 -26 -201 -225 -201c-36 0 -63 5 -76 10c-26 10 -43 25 -43 59c0 36 19 60 49 60c17 0 35 -6 57 -6c69 0 82 38 82 99v414c0 41 21 65 78 65s78 -24 78 -65zM232 624v-568c0 -41 -21 -65 -78 -65s-77 24 -77 65v568c0 41 21 65 78 65s77 -24 77 -65z
" />
    <glyph glyph-name="ij" unicode="&#x133;" horiz-adv-x="536" 
d="M481 657c0 -48 -22 -75 -86 -75s-85 27 -85 75c0 46 24 72 86 72s85 -26 85 -72zM225 657c0 -48 -22 -75 -86 -75s-84 27 -84 75c0 46 24 72 86 72s84 -26 84 -72zM469 458v-476c0 -107 -24 -206 -164 -206c-21 0 -47 2 -57 4c-28 6 -45 23 -45 54c0 37 25 55 51 55
c5 0 24 -1 31 -1c32 0 37 29 37 82v488c0 40 20 63 74 63s73 -23 73 -63zM213 458v-404c0 -40 -20 -63 -74 -63s-72 23 -72 63v404c0 40 20 63 74 63s72 -23 72 -63z" />
    <glyph glyph-name="Jcircumflex" unicode="&#x134;" horiz-adv-x="420" 
d="M422 769c0 -14 -9 -24 -33 -24c-35 0 -54 13 -69 31l-48 56l-47 -56c-15 -18 -34 -31 -66 -31c-21 0 -31 10 -31 24c0 10 6 24 16 37l48 64c9 12 31 31 83 31s76 -20 84 -31l48 -64c10 -13 15 -27 15 -37zM351 624v-435c0 -119 -26 -201 -225 -201c-36 0 -62 5 -75 10
c-26 10 -43 25 -43 59c0 36 19 60 49 60c17 0 35 -6 57 -6c69 0 82 38 82 99v414c0 41 21 65 78 65s77 -24 77 -65z" />
    <glyph glyph-name="jcircumflex" unicode="&#x135;" 
d="M289 601c0 -14 -10 -24 -34 -24c-35 0 -53 13 -68 31l-48 56l-47 -56c-15 -18 -34 -31 -66 -31c-21 0 -31 10 -31 24c0 10 6 24 16 37l48 64c9 12 30 31 82 31s77 -20 85 -31l48 -64c10 -13 15 -27 15 -37zM213 458v-476c0 -107 -24 -206 -164 -206c-21 0 -47 2 -57 4
c-28 6 -44 23 -44 54c0 37 24 55 50 55c5 0 24 -1 31 -1c32 0 38 29 38 82v488c0 40 20 63 74 63s72 -23 72 -63z" />
    <glyph glyph-name="Kcommaaccent" unicode="&#x136;" horiz-adv-x="652" 
d="M616 34c0 -25 -26 -43 -78 -43c-57 0 -85 25 -111 62l-195 270v-267c0 -41 -21 -65 -78 -65s-77 24 -77 65v568c0 41 21 65 78 65s77 -24 77 -65v-233l196 243c28 35 56 55 100 55c52 0 70 -15 70 -40c0 -15 -16 -45 -32 -63l-190 -219l215 -275c16 -20 25 -41 25 -58z
M419 -86c0 -23 -24 -54 -79 -120c-9 -11 -23 -15 -39 -15c-13 0 -18 5 -18 12c0 4 1 8 4 11l52 67c-56 0 -81 16 -81 45c0 27 24 44 81 44s80 -17 80 -44z" />
    <glyph glyph-name="kcommaaccent" unicode="&#x137;" horiz-adv-x="577" 
d="M547 31c0 -23 -24 -40 -71 -40c-52 0 -75 24 -100 56l-163 211v-204c0 -40 -20 -63 -74 -63s-72 23 -72 63v616c0 40 20 63 74 63s72 -23 72 -63v-367l154 168c28 31 52 50 93 50c49 0 65 -13 65 -36c0 -14 -16 -41 -32 -57l-137 -138l168 -207c15 -18 23 -36 23 -52z
M380 -86c0 -23 -24 -54 -79 -120c-9 -11 -24 -15 -40 -15c-13 0 -18 5 -18 12c0 4 2 8 5 11l51 67c-56 0 -80 16 -80 45c0 27 23 44 80 44s81 -17 81 -44z" />
    <glyph glyph-name="kgreenlandic" unicode="&#x138;" horiz-adv-x="577" 
d="M547 31c0 -23 -24 -40 -71 -40c-52 0 -74 25 -100 56l-163 193v-186c0 -40 -20 -63 -74 -63s-72 23 -72 63v404c0 40 20 63 74 63s72 -23 72 -63v-173l154 186c27 32 52 50 93 50c49 0 65 -13 65 -36c0 -14 -17 -40 -32 -57l-137 -156l168 -189c15 -17 23 -36 23 -52z
" />
    <glyph glyph-name="Lacute" unicode="&#x139;" horiz-adv-x="523" 
d="M269 876c0 -10 -8 -23 -18 -35l-53 -65c-16 -20 -39 -31 -76 -31c-24 0 -33 9 -33 24c0 10 4 22 12 36l39 63c10 17 34 33 85 33c30 0 44 -10 44 -25zM487 63c0 -40 -19 -63 -77 -63h-248c-62 0 -85 26 -85 71v553c0 41 21 65 78 65s77 -24 77 -65v-499h178
c57 0 77 -22 77 -62z" />
    <glyph glyph-name="lacute" unicode="&#x13a;" 
d="M255 876c0 -10 -8 -23 -18 -35l-53 -65c-16 -20 -39 -31 -76 -31c-24 0 -34 9 -34 24c0 10 5 22 13 36l39 63c10 17 34 33 85 33c30 0 44 -10 44 -25zM213 670v-616c0 -40 -20 -63 -74 -63s-72 23 -72 63v616c0 40 20 63 74 63s72 -23 72 -63z" />
    <glyph glyph-name="Lcommaaccent" unicode="&#x13b;" horiz-adv-x="523" 
d="M487 63c0 -40 -19 -63 -77 -63h-248c-62 0 -85 26 -85 71v553c0 41 21 65 78 65s77 -24 77 -65v-499h178c57 0 77 -22 77 -62zM358 -86c0 -23 -24 -54 -79 -120c-9 -11 -24 -15 -40 -15c-13 0 -18 5 -18 12c0 4 2 8 5 11l51 67c-56 0 -80 16 -80 45c0 27 23 44 80 44
s81 -17 81 -44z" />
    <glyph glyph-name="lcommaaccent" unicode="&#x13c;" 
d="M213 670v-616c0 -40 -20 -63 -74 -63s-72 23 -72 63v616c0 40 20 63 74 63s72 -23 72 -63zM220 -86c0 -23 -24 -54 -79 -120c-9 -11 -23 -15 -39 -15c-13 0 -18 5 -18 12c0 4 1 8 4 11l51 67c-56 0 -80 16 -80 45c0 27 23 44 80 44s81 -17 81 -44z" />
    <glyph glyph-name="Lcaron" unicode="&#x13d;" horiz-adv-x="523" 
d="M442 700c0 -7 -4 -17 -9 -27l-34 -65c-12 -23 -36 -31 -70 -31c-28 0 -40 14 -40 34c0 8 2 16 5 26l18 57c7 23 28 39 79 39c30 0 51 -12 51 -33zM487 63c0 -40 -19 -63 -77 -63h-248c-62 0 -85 26 -85 71v553c0 41 21 65 78 65s77 -24 77 -65v-499h178
c57 0 77 -22 77 -62z" />
    <glyph glyph-name="lcaron" unicode="&#x13e;" horiz-adv-x="416" 
d="M409 700c0 -7 -5 -17 -10 -27l-33 -65c-12 -23 -37 -31 -71 -31c-28 0 -40 14 -40 34c0 8 2 16 5 26l18 57c7 23 28 39 79 39c30 0 52 -12 52 -33zM213 670v-616c0 -40 -20 -63 -74 -63s-72 23 -72 63v616c0 40 20 63 74 63s72 -23 72 -63z" />
    <glyph glyph-name="Ldot" unicode="&#x13f;" horiz-adv-x="523" 
d="M450 347c0 -48 -21 -75 -85 -75s-85 27 -85 75c0 46 24 72 86 72s84 -26 84 -72zM487 63c0 -40 -19 -63 -77 -63h-248c-62 0 -85 26 -85 71v553c0 41 21 65 78 65s77 -24 77 -65v-499h178c57 0 77 -22 77 -62z" />
    <glyph glyph-name="ldot" unicode="&#x140;" horiz-adv-x="429" 
d="M419 347c0 -48 -22 -75 -86 -75s-84 27 -84 75c0 46 23 72 85 72s85 -26 85 -72zM213 670v-616c0 -40 -20 -63 -74 -63s-72 23 -72 63v616c0 40 20 63 74 63s72 -23 72 -63z" />
    <glyph glyph-name="Lslash" unicode="&#x141;" horiz-adv-x="523" 
d="M487 63c0 -40 -19 -63 -77 -63h-248c-62 0 -85 26 -85 71v163l-19 -11c-11 -6 -27 -13 -37 -13c-22 0 -35 19 -35 51c0 38 21 62 47 77l44 25v261c0 41 21 65 78 65s77 -24 77 -65v-171l46 26c12 7 30 14 44 14c25 0 39 -12 39 -44c0 -38 -21 -64 -47 -79l-82 -47v-198
h178c57 0 77 -22 77 -62z" />
    <glyph glyph-name="lslash" unicode="&#x142;" 
d="M287 422c0 -40 -21 -66 -47 -81l-27 -15v-272c0 -40 -20 -63 -74 -63s-72 23 -72 63v187l-12 -7c-9 -5 -22 -10 -34 -10c-19 0 -27 15 -27 47c0 40 21 66 47 81l26 15v303c0 40 20 63 74 63s72 -23 72 -63v-218l12 7c9 5 21 10 34 10c19 0 28 -15 28 -47z" />
    <glyph glyph-name="Nacute" unicode="&#x143;" horiz-adv-x="732" 
d="M480 876c0 -10 -8 -23 -18 -35l-53 -65c-16 -20 -38 -31 -75 -31c-24 0 -34 9 -34 24c0 10 4 22 12 36l39 63c10 17 34 33 85 33c30 0 44 -10 44 -25zM655 624v-557c0 -49 -27 -78 -117 -78c-95 0 -117 32 -139 86l-191 468v-487c0 -41 -18 -65 -66 -65s-65 24 -65 65
v557c0 49 27 78 117 78c95 0 117 -32 139 -86l191 -468v487c0 41 18 65 66 65s65 -24 65 -65z" />
    <glyph glyph-name="nacute" unicode="&#x144;" horiz-adv-x="604" 
d="M417 708c0 -10 -7 -23 -17 -35l-53 -65c-16 -20 -39 -31 -76 -31c-24 0 -34 9 -34 24c0 10 5 22 13 36l38 63c10 17 34 33 85 33c30 0 44 -10 44 -25zM537 262v-208c0 -40 -20 -63 -74 -63s-72 23 -72 63v208c0 124 -19 152 -95 152c-29 0 -61 -6 -83 -12v-348
c0 -40 -20 -63 -74 -63s-72 23 -72 63v377c0 43 18 64 60 73s113 20 178 20c201 0 232 -61 232 -262z" />
    <glyph glyph-name="Ncommaaccent" unicode="&#x145;" horiz-adv-x="732" 
d="M655 624v-557c0 -49 -27 -78 -117 -78c-95 0 -117 32 -139 86l-191 468v-487c0 -41 -18 -65 -66 -65s-65 24 -65 65v557c0 49 27 78 117 78c95 0 117 -32 139 -86l191 -468v487c0 41 18 65 66 65s65 -24 65 -65zM446 -86c0 -23 -24 -54 -79 -120c-9 -11 -23 -15 -39 -15
c-13 0 -19 5 -19 12c0 4 2 8 5 11l51 67c-56 0 -80 16 -80 45c0 27 23 44 80 44s81 -17 81 -44z" />
    <glyph glyph-name="ncommaaccent" unicode="&#x146;" horiz-adv-x="604" 
d="M537 262v-208c0 -40 -20 -63 -74 -63s-72 23 -72 63v208c0 124 -19 152 -95 152c-29 0 -61 -6 -83 -12v-348c0 -40 -20 -63 -74 -63s-72 23 -72 63v377c0 43 18 64 60 73s113 20 178 20c201 0 232 -61 232 -262zM382 -86c0 -23 -24 -54 -79 -120c-9 -11 -23 -15 -39 -15
c-13 0 -18 5 -18 12c0 4 1 8 4 11l51 67c-56 0 -80 16 -80 45c0 27 23 44 80 44s81 -17 81 -44z" />
    <glyph glyph-name="Ncaron" unicode="&#x147;" horiz-adv-x="732" 
d="M515 877c0 -10 -6 -24 -16 -37l-48 -64c-9 -12 -31 -31 -83 -31s-76 20 -84 31l-48 64c-10 13 -16 27 -16 37c0 14 10 24 34 24c35 0 53 -13 68 -31l49 -56l47 56c15 18 33 31 65 31c21 0 32 -10 32 -24zM655 624v-557c0 -49 -27 -78 -117 -78c-95 0 -117 32 -139 86
l-191 468v-487c0 -41 -18 -65 -66 -65s-65 24 -65 65v557c0 49 27 78 117 78c95 0 117 -32 139 -86l191 -468v487c0 41 18 65 66 65s65 -24 65 -65z" />
    <glyph glyph-name="ncaron" unicode="&#x148;" horiz-adv-x="604" 
d="M451 709c0 -10 -5 -24 -15 -37l-48 -64c-9 -12 -31 -31 -83 -31s-76 20 -84 31l-48 64c-10 13 -16 27 -16 37c0 14 10 24 34 24c35 0 53 -13 68 -31l48 -56l47 56c15 18 34 31 66 31c21 0 31 -10 31 -24zM537 262v-208c0 -40 -20 -63 -74 -63s-72 23 -72 63v208
c0 124 -19 152 -95 152c-29 0 -61 -6 -83 -12v-348c0 -40 -20 -63 -74 -63s-72 23 -72 63v377c0 43 18 64 60 73s113 20 178 20c201 0 232 -61 232 -262z" />
    <glyph glyph-name="napostrophe" unicode="&#x149;" horiz-adv-x="673" 
d="M221 708c0 -10 -8 -23 -18 -35l-53 -65c-16 -20 -39 -31 -76 -31c-24 0 -34 9 -34 24c0 10 5 22 13 36l39 63c10 17 34 33 85 33c30 0 44 -10 44 -25zM606 262v-208c0 -40 -20 -63 -74 -63s-73 23 -73 63v208c0 124 -18 152 -94 152c-29 0 -61 -6 -83 -12v-348
c0 -40 -20 -63 -74 -63s-73 23 -73 63v377c0 43 19 64 61 73s113 20 178 20c201 0 232 -61 232 -262z" />
    <glyph glyph-name="Eng" unicode="&#x14a;" horiz-adv-x="732" 
d="M655 624v-642c0 -107 -24 -206 -164 -206c-21 0 -47 2 -57 4c-28 6 -45 23 -45 54c0 37 25 55 51 55c5 0 24 -1 31 -1c32 0 38 29 38 82v29l-301 533v-476c0 -41 -18 -65 -66 -65s-65 24 -65 65v557c0 49 30 78 122 78c88 0 116 -38 144 -89l181 -327v349
c0 41 18 65 66 65s65 -24 65 -65z" />
    <glyph glyph-name="eng" unicode="&#x14b;" horiz-adv-x="604" 
d="M537 262v-280c0 -107 -24 -206 -164 -206c-21 0 -47 2 -57 4c-28 6 -44 23 -44 54c0 37 24 55 50 55c5 0 24 -1 31 -1c32 0 38 29 38 82v292c0 124 -19 152 -95 152c-29 0 -61 -6 -83 -12v-348c0 -40 -20 -63 -74 -63s-72 23 -72 63v377c0 43 18 64 60 73s113 20 178 20
c201 0 232 -61 232 -262z" />
    <glyph glyph-name="Omacron" unicode="&#x14c;" horiz-adv-x="718" 
d="M522 823c0 -27 -15 -43 -52 -43h-218c-37 0 -52 16 -52 43s15 44 52 44h218c37 0 52 -17 52 -44zM670 347c0 -238 -77 -359 -314 -359s-308 122 -308 359c0 228 83 345 314 345c232 0 308 -118 308 -345zM510 347c0 118 -13 230 -151 230s-151 -112 -151 -230
c0 -125 11 -244 151 -244s151 119 151 244z" />
    <glyph glyph-name="omacron" unicode="&#x14d;" horiz-adv-x="601" 
d="M465 655c0 -27 -15 -43 -52 -43h-218c-37 0 -53 16 -53 43s16 44 53 44h218c37 0 52 -17 52 -44zM558 262c0 -180 -66 -274 -260 -274s-255 94 -255 274c0 174 70 262 261 262c190 0 254 -88 254 -262zM409 262c0 78 -9 156 -108 156s-109 -78 -109 -156
c0 -84 9 -168 109 -168s108 83 108 168z" />
    <glyph glyph-name="Obreve" unicode="&#x14e;" horiz-adv-x="718" 
d="M516 871c0 -70 -45 -123 -155 -123s-154 53 -154 123c0 18 12 30 40 30s40 -13 40 -30c0 -32 24 -61 74 -61s74 29 74 61c0 17 12 30 40 30s41 -12 41 -30zM670 347c0 -238 -77 -359 -314 -359s-308 122 -308 359c0 228 83 345 314 345c232 0 308 -118 308 -345zM510 347
c0 118 -13 230 -151 230s-151 -112 -151 -230c0 -125 11 -244 151 -244s151 119 151 244z" />
    <glyph glyph-name="obreve" unicode="&#x14f;" horiz-adv-x="601" 
d="M457 703c0 -70 -44 -123 -154 -123s-155 53 -155 123c0 18 12 30 40 30s41 -13 41 -30c0 -32 24 -61 74 -61s74 29 74 61c0 17 12 30 40 30s40 -12 40 -30zM558 262c0 -180 -66 -274 -260 -274s-255 94 -255 274c0 174 70 262 261 262c190 0 254 -88 254 -262zM409 262
c0 78 -9 156 -108 156s-109 -78 -109 -156c0 -84 9 -168 109 -168s108 83 108 168z" />
    <glyph glyph-name="Ohungarumlaut" unicode="&#x150;" horiz-adv-x="718" 
d="M563 876c0 -10 -9 -24 -19 -36l-53 -64c-17 -21 -35 -31 -64 -31c-22 0 -31 9 -31 24c0 10 6 23 14 36l40 63c10 17 25 33 71 33c27 0 42 -10 42 -25zM386 876c0 -10 -9 -24 -19 -36l-53 -64c-17 -21 -35 -31 -64 -31c-22 0 -31 9 -31 24c0 10 6 23 14 36l40 63
c10 17 25 33 71 33c27 0 42 -10 42 -25zM670 347c0 -238 -77 -359 -314 -359s-308 122 -308 359c0 228 83 345 314 345c232 0 308 -118 308 -345zM510 347c0 118 -13 230 -151 230s-151 -112 -151 -230c0 -125 11 -244 151 -244s151 119 151 244z" />
    <glyph glyph-name="ohungarumlaut" unicode="&#x151;" horiz-adv-x="601" 
d="M504 708c0 -10 -8 -23 -18 -35l-54 -65c-17 -21 -34 -31 -63 -31c-22 0 -31 9 -31 24c0 10 6 23 14 36l39 63c10 17 26 33 72 33c27 0 41 -10 41 -25zM327 708c0 -10 -8 -23 -18 -35l-54 -65c-17 -21 -34 -31 -63 -31c-22 0 -31 9 -31 24c0 10 6 23 14 36l39 63
c10 17 26 33 72 33c27 0 41 -10 41 -25zM558 262c0 -180 -66 -274 -260 -274s-255 94 -255 274c0 174 70 262 261 262c190 0 254 -88 254 -262zM409 262c0 78 -9 156 -108 156s-109 -78 -109 -156c0 -84 9 -168 109 -168s108 83 108 168z" />
    <glyph glyph-name="OE" unicode="&#x152;" horiz-adv-x="982" 
d="M936 59c0 -37 -20 -59 -77 -59h-389c-33 -8 -71 -12 -114 -12c-237 0 -308 122 -308 359c0 228 83 345 314 345c43 0 80 -4 113 -12h372c57 0 77 -21 77 -58s-20 -59 -77 -59h-226c26 -40 38 -93 42 -161h166c57 0 77 -19 77 -56s-20 -57 -77 -57h-166
c-3 -73 -17 -130 -44 -172h240c57 0 77 -21 77 -58zM510 347c0 118 -13 230 -151 230s-151 -112 -151 -230c0 -125 11 -244 151 -244s151 119 151 244z" />
    <glyph glyph-name="oe" unicode="&#x153;" horiz-adv-x="920" 
d="M879 285c0 -40 -20 -63 -73 -63h-254c0 -71 20 -126 135 -126c45 0 97 12 118 12c26 0 50 -15 50 -52c0 -33 -16 -47 -44 -53c-39 -9 -104 -15 -183 -15c-76 0 -127 27 -156 67c-37 -40 -89 -67 -174 -67c-194 0 -255 94 -255 274c0 174 70 262 261 262
c89 0 148 -26 183 -68c34 42 85 68 164 68c167 0 228 -94 228 -239zM552 306h194c-1 61 -12 120 -98 120c-85 0 -95 -60 -96 -120zM409 262c0 78 -9 156 -108 156s-109 -78 -109 -156c0 -84 9 -168 109 -168s108 83 108 168z" />
    <glyph glyph-name="Racute" unicode="&#x154;" horiz-adv-x="673" 
d="M450 876c0 -10 -8 -23 -18 -35l-53 -65c-16 -20 -38 -31 -75 -31c-24 0 -34 9 -34 24c0 10 4 22 12 36l39 63c10 17 34 33 85 33c30 0 44 -10 44 -25zM617 44c0 -41 -29 -53 -85 -53c-43 0 -65 14 -80 42l-119 225h-101v-202c0 -41 -21 -65 -78 -65s-77 24 -77 65v553
c0 45 23 71 85 71h215c149 0 236 -66 236 -203c0 -117 -63 -164 -125 -191l116 -207c6 -10 13 -25 13 -35zM457 469c0 61 -31 98 -105 98h-120v-201h105c84 0 120 40 120 103z" />
    <glyph glyph-name="racute" unicode="&#x155;" horiz-adv-x="408" 
d="M335 708c0 -10 -7 -23 -17 -35l-54 -65c-16 -20 -38 -31 -75 -31c-24 0 -34 9 -34 24c0 10 5 22 13 36l38 63c10 17 34 33 85 33c30 0 44 -10 44 -25zM382 466c0 -37 -24 -56 -50 -56c-9 0 -40 3 -53 3c-23 0 -53 -6 -66 -9v-350c0 -40 -20 -63 -74 -63s-72 23 -72 63
v380c0 43 18 66 61 75c40 8 87 15 125 15c32 0 68 -2 85 -6c28 -6 44 -19 44 -52z" />
    <glyph glyph-name="Rcommaaccent" unicode="&#x156;" horiz-adv-x="673" 
d="M617 44c0 -41 -29 -53 -85 -53c-43 0 -65 14 -80 42l-119 225h-101v-202c0 -41 -21 -65 -78 -65s-77 24 -77 65v553c0 45 23 71 85 71h215c149 0 236 -66 236 -203c0 -117 -63 -164 -125 -191l116 -207c6 -10 13 -25 13 -35zM416 -86c0 -23 -24 -54 -79 -120
c-9 -11 -23 -15 -39 -15c-13 0 -19 5 -19 12c0 4 2 8 5 11l51 67c-56 0 -80 16 -80 45c0 27 23 44 80 44s81 -17 81 -44zM457 469c0 61 -31 98 -105 98h-120v-201h105c84 0 120 40 120 103z" />
    <glyph glyph-name="rcommaaccent" unicode="&#x157;" horiz-adv-x="408" 
d="M382 466c0 -37 -24 -56 -50 -56c-9 0 -40 3 -53 3c-23 0 -53 -6 -66 -9v-350c0 -40 -20 -63 -74 -63s-72 23 -72 63v380c0 43 18 66 61 75c40 8 87 15 125 15c32 0 68 -2 85 -6c28 -6 44 -19 44 -52zM300 -86c0 -23 -24 -54 -79 -120c-9 -11 -23 -15 -39 -15
c-13 0 -18 5 -18 12c0 4 1 8 4 11l51 67c-56 0 -80 16 -80 45c0 27 23 44 80 44s81 -17 81 -44z" />
    <glyph glyph-name="Rcaron" unicode="&#x158;" horiz-adv-x="673" 
d="M485 877c0 -10 -6 -24 -16 -37l-48 -64c-9 -12 -31 -31 -83 -31s-76 20 -84 31l-48 64c-10 13 -16 27 -16 37c0 14 10 24 34 24c35 0 53 -13 68 -31l49 -56l47 56c15 18 33 31 65 31c21 0 32 -10 32 -24zM617 44c0 -41 -29 -53 -85 -53c-43 0 -65 14 -80 42l-119 225
h-101v-202c0 -41 -21 -65 -78 -65s-77 24 -77 65v553c0 45 23 71 85 71h215c149 0 236 -66 236 -203c0 -117 -63 -164 -125 -191l116 -207c6 -10 13 -25 13 -35zM457 469c0 61 -31 98 -105 98h-120v-201h105c84 0 120 40 120 103z" />
    <glyph glyph-name="rcaron" unicode="&#x159;" horiz-adv-x="408" 
d="M369 709c0 -10 -6 -24 -16 -37l-48 -64c-9 -12 -30 -31 -82 -31s-76 20 -84 31l-49 64c-10 13 -15 27 -15 37c0 14 10 24 34 24c35 0 53 -13 68 -31l48 -56l47 56c15 18 34 31 66 31c21 0 31 -10 31 -24zM382 466c0 -37 -24 -56 -50 -56c-9 0 -40 3 -53 3
c-23 0 -53 -6 -66 -9v-350c0 -40 -20 -63 -74 -63s-72 23 -72 63v380c0 43 18 66 61 75c40 8 87 15 125 15c32 0 68 -2 85 -6c28 -6 44 -19 44 -52z" />
    <glyph glyph-name="Sacute" unicode="&#x15a;" horiz-adv-x="582" 
d="M417 876c0 -10 -8 -23 -18 -35l-53 -65c-16 -20 -39 -31 -76 -31c-24 0 -34 9 -34 24c0 10 5 22 13 36l39 63c10 17 34 33 85 33c30 0 44 -10 44 -25zM534 207c0 -156 -83 -219 -257 -219c-80 0 -163 10 -184 18c-26 10 -43 25 -43 59c0 36 18 58 49 58
c26 0 78 -15 140 -15c91 0 135 24 135 79c0 60 -44 83 -146 98c-115 17 -178 69 -178 199c0 150 99 208 252 208c78 0 148 -10 172 -19c26 -10 44 -25 44 -59c0 -36 -19 -55 -50 -55c-23 0 -67 14 -128 14c-89 0 -132 -26 -132 -76c0 -51 38 -72 144 -90
c133 -22 182 -75 182 -200z" />
    <glyph glyph-name="sacute" unicode="&#x15b;" horiz-adv-x="494" 
d="M372 708c0 -10 -7 -23 -17 -35l-53 -65c-16 -20 -39 -31 -76 -31c-24 0 -34 9 -34 24c0 10 5 22 13 36l38 63c10 17 34 33 85 33c30 0 44 -10 44 -25zM452 157c0 -121 -67 -169 -210 -169c-59 0 -122 9 -153 16c-28 6 -44 20 -44 51c0 35 23 49 50 49
c23 0 77 -13 123 -13c70 0 93 15 93 49c0 38 -21 53 -110 65c-100 14 -156 55 -156 158c0 117 92 161 212 161c51 0 102 -7 133 -14c28 -6 45 -20 45 -51c0 -35 -24 -49 -51 -49c-21 0 -74 12 -109 12c-74 0 -92 -19 -92 -50c0 -33 20 -47 112 -61c105 -16 157 -47 157 -154
z" />
    <glyph glyph-name="Scircumflex" unicode="&#x15c;" horiz-adv-x="582" 
d="M451 769c0 -14 -10 -24 -34 -24c-35 0 -53 13 -68 31l-49 56l-47 -56c-15 -18 -33 -31 -65 -31c-21 0 -32 10 -32 24c0 10 6 24 16 37l48 64c9 12 31 31 83 31s76 -20 84 -31l48 -64c10 -13 16 -27 16 -37zM534 207c0 -156 -83 -219 -257 -219c-80 0 -163 10 -184 18
c-26 10 -43 25 -43 59c0 36 18 58 49 58c26 0 78 -15 140 -15c91 0 135 24 135 79c0 60 -44 83 -146 98c-115 17 -178 69 -178 199c0 150 99 208 252 208c78 0 148 -10 172 -19c26 -10 44 -25 44 -59c0 -36 -19 -55 -50 -55c-23 0 -67 14 -128 14c-89 0 -132 -26 -132 -76
c0 -51 38 -72 144 -90c133 -22 182 -75 182 -200z" />
    <glyph glyph-name="scircumflex" unicode="&#x15d;" horiz-adv-x="494" 
d="M406 601c0 -14 -10 -24 -34 -24c-35 0 -53 13 -68 31l-48 56l-47 -56c-15 -18 -34 -31 -66 -31c-21 0 -31 10 -31 24c0 10 6 24 16 37l48 64c9 12 30 31 82 31s77 -20 85 -31l48 -64c10 -13 15 -27 15 -37zM452 157c0 -121 -67 -169 -210 -169c-59 0 -122 9 -153 16
c-28 6 -44 20 -44 51c0 35 23 49 50 49c23 0 77 -13 123 -13c70 0 93 15 93 49c0 38 -21 53 -110 65c-100 14 -156 55 -156 158c0 117 92 161 212 161c51 0 102 -7 133 -14c28 -6 45 -20 45 -51c0 -35 -24 -49 -51 -49c-21 0 -74 12 -109 12c-74 0 -92 -19 -92 -50
c0 -33 20 -47 112 -61c105 -16 157 -47 157 -154z" />
    <glyph glyph-name="Scedilla" unicode="&#x15e;" horiz-adv-x="582" 
d="M534 207c0 -126 -55 -190 -165 -211l-54 -57c12 4 43 11 75 11c49 0 76 -34 76 -71c0 -57 -39 -103 -156 -103c-52 0 -105 7 -143 16c-21 5 -34 13 -34 35c0 20 16 32 38 32c25 0 56 -14 104 -14c34 0 52 14 52 33s-9 34 -41 34c-22 0 -47 -8 -75 -8c-13 0 -21 4 -21 12
c0 5 3 13 7 21l27 52c-60 2 -113 10 -131 17c-26 10 -43 25 -43 59c0 36 18 58 49 58c26 0 78 -15 140 -15c91 0 135 24 135 79c0 60 -44 83 -146 98c-115 17 -178 69 -178 199c0 150 99 208 252 208c78 0 148 -10 172 -19c26 -10 44 -25 44 -59c0 -36 -19 -55 -50 -55
c-23 0 -67 14 -128 14c-89 0 -132 -26 -132 -76c0 -51 38 -72 144 -90c133 -22 182 -75 182 -200z" />
    <glyph glyph-name="scedilla" unicode="&#x15f;" horiz-adv-x="494" 
d="M452 157c0 -95 -42 -143 -128 -161l-55 -57c12 4 44 11 76 11c49 0 75 -34 75 -71c0 -57 -39 -103 -156 -103c-52 0 -104 7 -142 16c-21 5 -34 13 -34 35c0 20 16 32 38 32c25 0 56 -14 104 -14c34 0 52 14 52 33s-9 34 -41 34c-22 0 -47 -8 -75 -8c-13 0 -21 4 -21 12
c0 5 3 13 7 21l27 54c-39 2 -71 9 -90 13c-28 7 -44 20 -44 51c0 35 23 49 50 49c23 0 77 -13 123 -13c70 0 93 15 93 49c0 38 -21 53 -110 65c-100 14 -156 55 -156 158c0 117 92 161 212 161c51 0 102 -7 133 -14c28 -6 45 -20 45 -51c0 -35 -24 -49 -51 -49
c-21 0 -74 12 -109 12c-74 0 -92 -19 -92 -50c0 -33 20 -47 112 -61c105 -16 157 -47 157 -154z" />
    <glyph glyph-name="Scaron" unicode="&#x160;" horiz-adv-x="582" 
d="M451 877c0 -10 -6 -24 -16 -37l-48 -64c-9 -12 -31 -31 -83 -31s-76 20 -84 31l-48 64c-10 13 -16 27 -16 37c0 14 10 24 34 24c35 0 54 -13 69 -31l48 -56l47 56c15 18 34 31 66 31c21 0 31 -10 31 -24zM534 207c0 -156 -83 -219 -257 -219c-80 0 -163 10 -184 18
c-26 10 -43 25 -43 59c0 36 18 58 49 58c26 0 78 -15 140 -15c91 0 135 24 135 79c0 60 -44 83 -146 98c-115 17 -178 69 -178 199c0 150 99 208 252 208c78 0 148 -10 172 -19c26 -10 44 -25 44 -59c0 -36 -19 -55 -50 -55c-23 0 -67 14 -128 14c-89 0 -132 -26 -132 -76
c0 -51 38 -72 144 -90c133 -22 182 -75 182 -200z" />
    <glyph glyph-name="scaron" unicode="&#x161;" horiz-adv-x="494" 
d="M406 709c0 -10 -5 -24 -15 -37l-48 -64c-9 -12 -31 -31 -83 -31s-76 20 -84 31l-48 64c-10 13 -16 27 -16 37c0 14 10 24 34 24c35 0 53 -13 68 -31l48 -56l47 56c15 18 34 31 66 31c21 0 31 -10 31 -24zM452 157c0 -121 -67 -169 -210 -169c-59 0 -122 9 -153 16
c-28 6 -44 20 -44 51c0 35 23 49 50 49c23 0 77 -13 123 -13c70 0 93 15 93 49c0 38 -21 53 -110 65c-100 14 -156 55 -156 158c0 117 92 161 212 161c51 0 102 -7 133 -14c28 -6 45 -20 45 -51c0 -35 -24 -49 -51 -49c-21 0 -74 12 -109 12c-74 0 -92 -19 -92 -50
c0 -33 20 -47 112 -61c105 -16 157 -47 157 -154z" />
    <glyph glyph-name="uni0162" unicode="&#x162;" horiz-adv-x="588" 
d="M568 616c0 -38 -21 -63 -78 -63h-118v-497c0 -36 -25 -73 -40 -89l-25 -28c12 4 43 11 75 11c49 0 76 -34 76 -71c0 -57 -39 -103 -156 -103c-52 0 -105 7 -143 16c-21 5 -33 13 -33 35c0 20 16 32 38 32c25 0 56 -14 104 -14c34 0 51 14 51 33s-9 34 -41 34
c-22 0 -47 -8 -75 -8c-13 0 -21 4 -21 12c0 5 3 13 7 21l39 77c-8 11 -11 25 -11 42v497h-119c-57 0 -78 25 -78 63s21 64 78 64h392c57 0 78 -26 78 -64z" />
    <glyph glyph-name="uni0163" unicode="&#x163;" horiz-adv-x="408" 
d="M391 -121c0 -57 -38 -103 -155 -103c-52 0 -105 7 -143 16c-21 5 -34 13 -34 35c0 20 16 32 38 32c25 0 56 -14 104 -14c34 0 52 14 52 33s-9 34 -41 34c-22 0 -47 -8 -75 -8c-13 0 -21 4 -21 12c0 5 3 13 7 21l33 65c-75 24 -89 83 -89 174v404c0 40 20 63 74 63
s72 -23 72 -63v-68h91c45 0 61 -21 61 -53c0 -34 -16 -53 -62 -53h-90v-242c0 -42 11 -68 67 -68c12 0 37 3 44 3c26 0 51 -18 51 -55c0 -31 -17 -45 -45 -51c-5 -1 -23 -3 -39 -4l-51 -50c12 4 44 11 76 11c49 0 75 -34 75 -71z" />
    <glyph glyph-name="uni021A" unicode="&#x21a;" horiz-adv-x="588" 
d="M568 616c0 -38 -21 -63 -78 -63h-118v-497c0 -41 -21 -65 -78 -65s-77 24 -77 65v497h-119c-57 0 -78 25 -78 63s21 64 78 64h392c57 0 78 -26 78 -64zM375 -86c0 -23 -24 -54 -79 -120c-9 -11 -23 -15 -39 -15c-13 0 -18 5 -18 12c0 4 1 8 4 11l52 67
c-56 0 -81 16 -81 45c0 27 24 44 81 44s80 -17 80 -44z" />
    <glyph glyph-name="uni021B" unicode="&#x21b;" horiz-adv-x="408" 
d="M375 44c0 -31 -17 -45 -45 -51c-10 -2 -49 -5 -72 -5c-167 0 -191 65 -191 188v404c0 40 20 63 74 63s72 -23 72 -63v-68h91c45 0 61 -21 61 -53c0 -34 -16 -53 -62 -53h-90v-242c0 -42 11 -68 67 -68c12 0 37 3 44 3c26 0 51 -18 51 -55zM295 -86
c0 -23 -24 -54 -79 -120c-9 -11 -23 -15 -39 -15c-13 0 -18 5 -18 12c0 4 1 8 4 11l52 67c-56 0 -81 16 -81 45c0 27 24 44 81 44s80 -17 80 -44z" />
    <glyph glyph-name="Tcaron" unicode="&#x164;" horiz-adv-x="588" 
d="M442 877c0 -10 -6 -24 -16 -37l-48 -64c-9 -12 -31 -31 -83 -31s-76 20 -84 31l-48 64c-10 13 -16 27 -16 37c0 14 10 24 34 24c35 0 54 -13 69 -31l48 -56l47 56c15 18 34 31 66 31c21 0 31 -10 31 -24zM568 616c0 -38 -21 -63 -78 -63h-118v-497c0 -41 -21 -65 -78 -65
s-77 24 -77 65v497h-119c-57 0 -78 25 -78 63s21 64 78 64h392c57 0 78 -26 78 -64z" />
    <glyph glyph-name="tcaron" unicode="&#x165;" horiz-adv-x="466" 
d="M445 700c0 -7 -4 -17 -9 -27l-34 -65c-12 -23 -36 -31 -70 -31c-28 0 -40 14 -40 34c0 8 2 16 5 26l18 57c7 23 28 39 79 39c30 0 51 -12 51 -33zM375 44c0 -31 -17 -45 -45 -51c-10 -2 -49 -5 -72 -5c-167 0 -191 65 -191 188v404c0 40 20 63 74 63s72 -23 72 -63v-68
h91c45 0 61 -21 61 -53c0 -34 -16 -53 -62 -53h-90v-242c0 -42 11 -68 67 -68c12 0 37 3 44 3c26 0 51 -18 51 -55z" />
    <glyph glyph-name="Tbar" unicode="&#x166;" horiz-adv-x="588" 
d="M568 616c0 -38 -21 -63 -78 -63h-118v-144h78c44 0 62 -21 62 -55c0 -33 -18 -55 -62 -55h-78v-243c0 -41 -21 -65 -78 -65s-77 24 -77 65v243h-79c-44 0 -63 22 -63 55c0 34 19 55 63 55h79v144h-119c-57 0 -78 25 -78 63s21 64 78 64h392c57 0 78 -26 78 -64z" />
    <glyph glyph-name="tbar" unicode="&#x167;" horiz-adv-x="408" 
d="M375 44c0 -31 -17 -45 -45 -51c-10 -2 -49 -5 -72 -5c-167 0 -191 65 -191 188v404c0 40 20 63 74 63s72 -23 72 -63v-68h96c41 0 56 -19 56 -48c0 -31 -14 -48 -57 -48h-95v-58h96c41 0 56 -18 56 -47c0 -31 -14 -49 -57 -49h-95v-98c0 -42 11 -68 67 -68
c12 0 37 3 44 3c26 0 51 -18 51 -55z" />
    <glyph glyph-name="Utilde" unicode="&#x168;" horiz-adv-x="699" 
d="M521 866c0 -66 -38 -115 -109 -115c-58 0 -95 56 -126 56c-23 0 -32 -16 -32 -27c0 -15 -12 -27 -37 -27s-40 12 -40 27c0 66 38 115 109 115c58 0 95 -56 126 -56c23 0 32 16 32 27c0 15 12 27 37 27s40 -12 40 -27zM628 624v-356c0 -181 -60 -280 -282 -280
c-221 0 -275 99 -275 280v356c0 41 21 65 78 65s77 -24 77 -65v-356c0 -101 28 -155 124 -155s122 54 122 155v356c0 41 21 65 78 65s78 -24 78 -65z" />
    <glyph glyph-name="utilde" unicode="&#x169;" horiz-adv-x="595" 
d="M469 698c0 -66 -37 -115 -108 -115c-58 0 -96 56 -127 56c-23 0 -32 -16 -32 -27c0 -15 -11 -27 -36 -27s-40 12 -40 27c0 66 37 115 108 115c58 0 96 -56 127 -56c23 0 32 16 32 27c0 15 11 27 36 27s40 -12 40 -27zM531 458v-377c0 -43 -18 -64 -60 -73
s-112 -20 -177 -20c-201 0 -230 61 -230 262v208c0 40 20 63 74 63s72 -23 72 -63v-208c0 -124 17 -152 93 -152c29 0 60 6 82 12v348c0 40 20 63 74 63s72 -23 72 -63z" />
    <glyph glyph-name="Umacron" unicode="&#x16a;" horiz-adv-x="699" 
d="M510 823c0 -27 -15 -43 -52 -43h-218c-37 0 -52 16 -52 43s15 44 52 44h218c37 0 52 -17 52 -44zM628 624v-356c0 -181 -60 -280 -282 -280c-221 0 -275 99 -275 280v356c0 41 21 65 78 65s77 -24 77 -65v-356c0 -101 28 -155 124 -155s122 54 122 155v356
c0 41 21 65 78 65s78 -24 78 -65z" />
    <glyph glyph-name="umacron" unicode="&#x16b;" horiz-adv-x="595" 
d="M459 655c0 -27 -15 -43 -52 -43h-218c-37 0 -52 16 -52 43s15 44 52 44h218c37 0 52 -17 52 -44zM531 458v-377c0 -43 -18 -64 -60 -73s-112 -20 -177 -20c-201 0 -230 61 -230 262v208c0 40 20 63 74 63s72 -23 72 -63v-208c0 -124 17 -152 93 -152c29 0 60 6 82 12v348
c0 40 20 63 74 63s72 -23 72 -63z" />
    <glyph glyph-name="Ubreve" unicode="&#x16c;" horiz-adv-x="699" 
d="M504 871c0 -70 -45 -123 -155 -123s-154 53 -154 123c0 18 12 30 40 30s40 -13 40 -30c0 -32 24 -61 74 -61s74 29 74 61c0 17 12 30 40 30s41 -12 41 -30zM628 624v-356c0 -181 -60 -280 -282 -280c-221 0 -275 99 -275 280v356c0 41 21 65 78 65s77 -24 77 -65v-356
c0 -101 28 -155 124 -155s122 54 122 155v356c0 41 21 65 78 65s78 -24 78 -65z" />
    <glyph glyph-name="ubreve" unicode="&#x16d;" horiz-adv-x="595" 
d="M452 703c0 -70 -45 -123 -155 -123s-154 53 -154 123c0 18 12 30 40 30s41 -13 41 -30c0 -32 23 -61 73 -61s74 29 74 61c0 17 12 30 40 30s41 -12 41 -30zM531 458v-377c0 -43 -18 -64 -60 -73s-112 -20 -177 -20c-201 0 -230 61 -230 262v208c0 40 20 63 74 63
s72 -23 72 -63v-208c0 -124 17 -152 93 -152c29 0 60 6 82 12v348c0 40 20 63 74 63s72 -23 72 -63z" />
    <glyph glyph-name="Uring" unicode="&#x16e;" horiz-adv-x="699" 
d="M452 825c0 -51 -29 -89 -104 -89s-101 38 -101 89c0 48 31 85 103 85s102 -37 102 -85zM628 624v-356c0 -181 -60 -280 -282 -280c-221 0 -275 99 -275 280v356c0 41 21 65 78 65s77 -24 77 -65v-356c0 -101 28 -155 124 -155s122 54 122 155v356c0 41 21 65 78 65
s78 -24 78 -65zM396 825c0 23 -16 38 -47 38s-46 -15 -46 -38c0 -26 14 -42 46 -42s47 16 47 42z" />
    <glyph glyph-name="uring" unicode="&#x16f;" horiz-adv-x="595" 
d="M401 657c0 -51 -29 -89 -104 -89s-101 38 -101 89c0 48 31 85 103 85s102 -37 102 -85zM531 458v-377c0 -43 -18 -64 -60 -73s-112 -20 -177 -20c-201 0 -230 61 -230 262v208c0 40 20 63 74 63s72 -23 72 -63v-208c0 -124 17 -152 93 -152c29 0 60 6 82 12v348
c0 40 20 63 74 63s72 -23 72 -63zM345 657c0 23 -16 38 -47 38s-46 -15 -46 -38c0 -26 14 -42 46 -42s47 16 47 42z" />
    <glyph glyph-name="Uhungarumlaut" unicode="&#x170;" horiz-adv-x="699" 
d="M551 876c0 -10 -9 -24 -19 -36l-53 -64c-17 -21 -35 -31 -64 -31c-22 0 -31 9 -31 24c0 10 6 23 14 36l40 63c10 17 25 33 71 33c27 0 42 -10 42 -25zM374 876c0 -10 -9 -24 -19 -36l-53 -64c-17 -21 -35 -31 -64 -31c-22 0 -31 9 -31 24c0 10 6 23 14 36l39 63
c10 17 26 33 72 33c27 0 42 -10 42 -25zM628 624v-356c0 -181 -60 -280 -282 -280c-221 0 -275 99 -275 280v356c0 41 21 65 78 65s77 -24 77 -65v-356c0 -101 28 -155 124 -155s122 54 122 155v356c0 41 21 65 78 65s78 -24 78 -65z" />
    <glyph glyph-name="uhungarumlaut" unicode="&#x171;" horiz-adv-x="595" 
d="M499 708c0 -10 -8 -23 -18 -35l-54 -65c-17 -21 -34 -31 -63 -31c-22 0 -31 9 -31 24c0 10 6 23 14 36l39 63c10 17 26 33 72 33c27 0 41 -10 41 -25zM322 708c0 -10 -8 -23 -18 -35l-54 -65c-17 -21 -34 -31 -63 -31c-22 0 -31 9 -31 24c0 10 6 23 14 36l39 63
c10 17 26 33 72 33c27 0 41 -10 41 -25zM531 458v-377c0 -43 -18 -64 -60 -73s-112 -20 -177 -20c-201 0 -230 61 -230 262v208c0 40 20 63 74 63s72 -23 72 -63v-208c0 -124 17 -152 93 -152c29 0 60 6 82 12v348c0 40 20 63 74 63s72 -23 72 -63z" />
    <glyph glyph-name="Uogonek" unicode="&#x172;" horiz-adv-x="699" 
d="M644 -141c0 -22 -13 -31 -34 -36c-30 -7 -84 -14 -139 -14c-119 0 -157 44 -157 101c0 33 25 60 59 80c-9 0 -17 -2 -27 -2c-221 0 -275 99 -275 280v356c0 41 21 65 78 65s77 -24 77 -65v-356c0 -101 28 -155 124 -155s122 54 122 155v356c0 41 21 65 78 65
s78 -24 78 -65v-356c0 -124 -31 -211 -120 -250c-37 -16 -54 -47 -54 -87c0 -32 26 -52 67 -52c38 0 68 13 85 13c22 0 38 -13 38 -33z" />
    <glyph glyph-name="uogonek" unicode="&#x173;" horiz-adv-x="595" 
d="M626 -141c0 -22 -12 -31 -33 -36c-30 -7 -84 -14 -139 -14c-119 0 -157 44 -157 101c0 26 20 61 47 82c-13 -2 -34 -4 -50 -4c-201 0 -230 61 -230 262v208c0 40 20 63 74 63s72 -23 72 -63v-208c0 -124 17 -152 93 -152c29 0 60 6 82 12v348c0 40 20 63 74 63
s72 -23 72 -63v-377c0 -81 -94 -98 -94 -158c0 -25 25 -44 66 -44c38 0 68 13 85 13c22 0 38 -13 38 -33z" />
    <glyph glyph-name="Wcircumflex" unicode="&#x174;" horiz-adv-x="1001" 
d="M649 769c0 -14 -10 -24 -34 -24c-35 0 -53 13 -68 31l-48 56l-47 -56c-15 -18 -34 -31 -66 -31c-21 0 -31 10 -31 24c0 10 6 24 16 37l48 64c9 12 30 31 82 31s77 -20 85 -31l48 -64c10 -13 15 -27 15 -37zM969 634c0 -8 -4 -24 -5 -30l-128 -551
c-10 -41 -41 -64 -112 -64c-69 0 -102 22 -111 64l-111 499l-113 -499c-9 -41 -41 -64 -112 -64c-69 0 -102 23 -112 64l-128 551c-1 6 -4 22 -4 30c0 40 22 57 81 57c45 0 70 -15 77 -51l100 -500l108 487c9 42 42 64 108 64s96 -24 105 -64l110 -487l98 500
c7 34 30 51 72 51c55 0 77 -17 77 -57z" />
    <glyph glyph-name="wcircumflex" unicode="&#x175;" horiz-adv-x="894" 
d="M598 601c0 -14 -10 -24 -34 -24c-35 0 -53 13 -68 31l-49 56l-47 -56c-15 -18 -33 -31 -65 -31c-21 0 -32 10 -32 24c0 10 6 24 16 37l48 64c9 12 31 31 83 31s76 -20 84 -31l48 -64c10 -13 16 -27 16 -37zM860 464c0 -8 -3 -24 -5 -30l-100 -381
c-11 -41 -41 -64 -111 -64s-101 23 -111 64l-88 352l-82 -352c-10 -41 -42 -64 -112 -64c-69 0 -100 23 -111 64l-101 381c-2 6 -5 22 -5 30c0 40 22 57 78 57c38 0 67 -15 73 -43l81 -364l80 345c10 42 41 64 109 64s96 -23 106 -64l84 -345l78 364c6 27 28 43 66 43
c52 0 71 -17 71 -57z" />
    <glyph glyph-name="Ycircumflex" unicode="&#x176;" horiz-adv-x="628" 
d="M462 769c0 -14 -10 -24 -34 -24c-35 0 -53 13 -68 31l-48 56l-47 -56c-15 -18 -34 -31 -66 -31c-21 0 -31 10 -31 24c0 10 6 24 16 37l48 64c9 12 30 31 82 31s77 -20 85 -31l48 -64c10 -13 15 -27 15 -37zM601 649c0 -16 -7 -34 -17 -53l-193 -349v-191
c0 -41 -21 -65 -78 -65s-77 24 -77 65v191l-192 349c-11 20 -17 37 -17 53c0 23 23 40 75 40c53 0 75 -20 93 -56l128 -251l122 251c18 37 37 56 85 56c47 0 71 -17 71 -40z" />
    <glyph glyph-name="ycircumflex" unicode="&#x177;" horiz-adv-x="549" 
d="M424 601c0 -14 -10 -24 -34 -24c-35 0 -53 13 -68 31l-49 56l-47 -56c-15 -18 -33 -31 -65 -31c-21 0 -32 10 -32 24c0 10 6 24 16 37l48 64c9 12 31 31 83 31s76 -20 84 -31l48 -64c10 -13 16 -27 16 -37zM521 464c0 -8 -3 -22 -6 -30l-167 -448
c-63 -169 -95 -210 -206 -210c-23 0 -47 2 -59 5c-28 6 -44 22 -44 55c0 38 24 56 50 56c7 0 28 -3 36 -3c26 0 48 14 68 75l7 24l-166 446c-2 6 -6 22 -6 30c0 40 24 57 78 57c44 0 67 -20 76 -51l96 -319l100 319c10 31 28 52 71 52c52 0 72 -18 72 -58z" />
    <glyph glyph-name="Ydieresis" unicode="&#x178;" horiz-adv-x="628" 
d="M481 825c0 -48 -18 -75 -70 -75s-70 27 -70 75c0 46 21 72 71 72s69 -26 69 -72zM285 825c0 -48 -18 -75 -70 -75s-69 27 -69 75c0 46 21 72 71 72s68 -26 68 -72zM601 649c0 -16 -7 -34 -17 -53l-193 -349v-191c0 -41 -21 -65 -78 -65s-77 24 -77 65v191l-192 349
c-11 20 -17 37 -17 53c0 23 23 40 75 40c53 0 75 -20 93 -56l128 -251l122 251c18 37 37 56 85 56c47 0 71 -17 71 -40z" />
    <glyph glyph-name="Zacute" unicode="&#x179;" horiz-adv-x="576" 
d="M403 876c0 -10 -8 -23 -18 -35l-53 -65c-16 -20 -39 -31 -76 -31c-24 0 -33 9 -33 24c0 10 4 22 12 36l39 63c10 17 34 33 85 33c30 0 44 -10 44 -25zM537 60c0 -37 -21 -60 -78 -60h-342c-57 0 -77 22 -77 59c0 38 24 86 63 144l241 358h-218c-57 0 -77 23 -77 60
s20 59 77 59h324c57 0 78 -21 78 -58c0 -40 -25 -86 -63 -144l-239 -359h233c57 0 78 -22 78 -59z" />
    <glyph glyph-name="zacute" unicode="&#x17a;" horiz-adv-x="500" 
d="M365 708c0 -10 -7 -23 -17 -35l-54 -65c-16 -20 -38 -31 -75 -31c-24 0 -34 9 -34 24c0 10 5 22 13 36l38 63c10 17 34 33 85 33c30 0 44 -10 44 -25zM468 53c0 -32 -14 -53 -60 -53h-312c-48 0 -64 20 -64 51c0 33 27 66 58 108l186 249h-175c-46 0 -60 20 -60 52
c0 31 15 52 60 52h294c48 0 64 -19 64 -50c0 -33 -27 -67 -58 -109l-186 -249h193c45 0 60 -20 60 -51z" />
    <glyph glyph-name="Zdotaccent" unicode="&#x17b;" horiz-adv-x="576" 
d="M373 825c0 -48 -22 -75 -86 -75s-84 27 -84 75c0 46 23 72 85 72s85 -26 85 -72zM537 60c0 -37 -21 -60 -78 -60h-342c-57 0 -77 22 -77 59c0 38 24 86 63 144l241 358h-218c-57 0 -77 23 -77 60s20 59 77 59h324c57 0 78 -21 78 -58c0 -40 -25 -86 -63 -144l-239 -359
h233c57 0 78 -22 78 -59z" />
    <glyph glyph-name="zdotaccent" unicode="&#x17c;" horiz-adv-x="500" 
d="M336 657c0 -48 -22 -75 -86 -75s-85 27 -85 75c0 46 24 72 86 72s85 -26 85 -72zM468 53c0 -32 -14 -53 -60 -53h-312c-48 0 -64 20 -64 51c0 33 27 66 58 108l186 249h-175c-46 0 -60 20 -60 52c0 31 15 52 60 52h294c48 0 64 -19 64 -50c0 -33 -27 -67 -58 -109
l-186 -249h193c45 0 60 -20 60 -51z" />
    <glyph glyph-name="Zcaron" unicode="&#x17d;" horiz-adv-x="576" 
d="M437 877c0 -10 -6 -24 -16 -37l-48 -64c-9 -12 -31 -31 -83 -31s-76 20 -84 31l-48 64c-10 13 -16 27 -16 37c0 14 10 24 34 24c35 0 54 -13 69 -31l48 -56l47 56c15 18 34 31 66 31c21 0 31 -10 31 -24zM537 60c0 -37 -21 -60 -78 -60h-342c-57 0 -77 22 -77 59
c0 38 24 86 63 144l241 358h-218c-57 0 -77 23 -77 60s20 59 77 59h324c57 0 78 -21 78 -58c0 -40 -25 -86 -63 -144l-239 -359h233c57 0 78 -22 78 -59z" />
    <glyph glyph-name="zcaron" unicode="&#x17e;" horiz-adv-x="500" 
d="M399 709c0 -10 -6 -24 -16 -37l-48 -64c-9 -12 -30 -31 -82 -31s-76 20 -84 31l-49 64c-10 13 -15 27 -15 37c0 14 10 24 34 24c35 0 53 -13 68 -31l48 -56l47 56c15 18 34 31 66 31c21 0 31 -10 31 -24zM468 53c0 -32 -14 -53 -60 -53h-312c-48 0 -64 20 -64 51
c0 33 27 66 58 108l186 249h-175c-46 0 -60 20 -60 52c0 31 15 52 60 52h294c48 0 64 -19 64 -50c0 -33 -27 -67 -58 -109l-186 -249h193c45 0 60 -20 60 -51z" />
    <glyph glyph-name="Scommaaccent" unicode="&#x218;" horiz-adv-x="582" 
d="M534 207c0 -156 -83 -219 -257 -219c-80 0 -163 10 -184 18c-26 10 -43 25 -43 59c0 36 18 58 49 58c26 0 78 -15 140 -15c91 0 135 24 135 79c0 60 -44 83 -146 98c-115 17 -178 69 -178 199c0 150 99 208 252 208c78 0 148 -10 172 -19c26 -10 44 -25 44 -59
c0 -36 -19 -55 -50 -55c-23 0 -67 14 -128 14c-89 0 -132 -26 -132 -76c0 -51 38 -72 144 -90c133 -22 182 -75 182 -200zM382 -86c0 -23 -24 -54 -79 -120c-9 -11 -23 -15 -39 -15c-13 0 -18 5 -18 12c0 4 1 8 4 11l52 67c-56 0 -81 16 -81 45c0 27 24 44 81 44
s80 -17 80 -44z" />
    <glyph glyph-name="scommaaccent" unicode="&#x219;" horiz-adv-x="494" 
d="M452 157c0 -121 -67 -169 -210 -169c-59 0 -122 9 -153 16c-28 6 -44 20 -44 51c0 35 23 49 50 49c23 0 77 -13 123 -13c70 0 93 15 93 49c0 38 -21 53 -110 65c-100 14 -156 55 -156 158c0 117 92 161 212 161c51 0 102 -7 133 -14c28 -6 45 -20 45 -51
c0 -35 -24 -49 -51 -49c-21 0 -74 12 -109 12c-74 0 -92 -19 -92 -50c0 -33 20 -47 112 -61c105 -16 157 -47 157 -154zM337 -86c0 -23 -24 -54 -79 -120c-9 -11 -23 -15 -39 -15c-13 0 -18 5 -18 12c0 4 1 8 4 11l51 67c-56 0 -80 16 -80 45c0 27 23 44 80 44
s81 -17 81 -44z" />
    <glyph glyph-name="dotlessj" unicode="&#x237;" 
d="M213 458v-476c0 -107 -24 -206 -164 -206c-21 0 -47 2 -57 4c-28 6 -44 23 -44 54c0 37 24 55 50 55c5 0 24 -1 31 -1c32 0 38 29 38 82v488c0 40 20 63 74 63s72 -23 72 -63z" />
    <glyph glyph-name="circumflex" unicode="&#x2c6;" 
d="M289 601c0 -14 -10 -24 -34 -24c-35 0 -53 13 -68 31l-48 56l-47 -56c-15 -18 -34 -31 -66 -31c-21 0 -31 10 -31 24c0 10 6 24 16 37l48 64c9 12 30 31 82 31s77 -20 85 -31l48 -64c10 -13 15 -27 15 -37z" />
    <glyph glyph-name="caron" unicode="&#x2c7;" 
d="M289 709c0 -10 -5 -24 -15 -37l-48 -64c-9 -12 -31 -31 -83 -31s-76 20 -84 31l-48 64c-10 13 -16 27 -16 37c0 14 10 24 34 24c35 0 53 -13 68 -31l48 -56l47 56c15 18 34 31 66 31c21 0 31 -10 31 -24z" />
    <glyph glyph-name="uni02C9" unicode="&#x2c9;" 
d="M301 655c0 -27 -15 -43 -52 -43h-218c-37 0 -52 16 -52 43s15 44 52 44h218c37 0 52 -17 52 -44z" />
    <glyph glyph-name="breve" unicode="&#x2d8;" 
d="M295 703c0 -70 -45 -123 -155 -123s-154 53 -154 123c0 18 12 30 40 30s40 -13 40 -30c0 -32 24 -61 74 -61s74 29 74 61c0 17 12 30 40 30s41 -12 41 -30z" />
    <glyph glyph-name="dotaccent" unicode="&#x2d9;" 
d="M225 657c0 -48 -22 -75 -86 -75s-84 27 -84 75c0 46 24 72 86 72s84 -26 84 -72z" />
    <glyph glyph-name="ring" unicode="&#x2da;" 
d="M243 657c0 -51 -29 -89 -104 -89s-101 38 -101 89c0 48 31 85 103 85s102 -37 102 -85zM187 657c0 23 -16 38 -47 38s-46 -15 -46 -38c0 -26 14 -42 46 -42s47 16 47 42z" />
    <glyph glyph-name="ogonek" unicode="&#x2db;" 
d="M308 -141c0 -22 -12 -31 -33 -36c-30 -7 -84 -14 -139 -14c-119 0 -157 44 -157 101c0 56 64 99 143 99c39 0 52 -6 52 -17c0 -19 -55 -32 -55 -69c0 -25 25 -44 66 -44c38 0 68 13 85 13c22 0 38 -13 38 -33z" />
    <glyph glyph-name="tilde" unicode="&#x2dc;" 
d="M312 698c0 -66 -38 -115 -109 -115c-58 0 -95 56 -126 56c-23 0 -32 -16 -32 -27c0 -15 -12 -27 -37 -27s-40 12 -40 27c0 66 38 115 109 115c58 0 95 -56 126 -56c23 0 32 16 32 27c0 15 12 27 37 27s40 -12 40 -27z" />
    <glyph glyph-name="hungarumlaut" unicode="&#x2dd;" horiz-adv-x="291" 
d="M342 708c0 -10 -9 -23 -19 -35l-53 -65c-17 -21 -35 -31 -64 -31c-22 0 -31 9 -31 24c0 10 6 23 14 36l40 63c10 17 25 33 71 33c27 0 42 -10 42 -25zM165 708c0 -10 -9 -23 -19 -35l-53 -65c-17 -21 -35 -31 -64 -31c-22 0 -31 9 -31 24c0 10 6 23 14 36l39 63
c10 17 26 33 72 33c27 0 42 -10 42 -25z" />
    <glyph glyph-name="commaaccent" unicode="&#xf6c3;" 
d="M221 -86c0 -23 -24 -54 -79 -120c-9 -11 -24 -15 -40 -15c-13 0 -18 5 -18 12c0 4 2 8 5 11l51 67c-56 0 -80 16 -80 45c0 27 23 44 80 44s81 -17 81 -44z" />
    <glyph glyph-name="uni0394" unicode="&#x394;" horiz-adv-x="924" 
d="M770 39c0 -24 -19 -39 -59 -39h-498c-40 0 -59 15 -59 39c0 20 12 60 26 97l181 489c14 37 43 64 101 64s89 -30 102 -64l180 -489c14 -37 26 -77 26 -97zM314 127h296l-148 403z" />
    <glyph glyph-name="uni03A9" unicode="&#x3a9;" horiz-adv-x="924" 
d="M795 56c0 -34 -18 -56 -64 -56h-168c-44 0 -61 22 -61 58v162c0 25 10 48 32 54c52 15 99 67 99 141c0 83 -57 152 -171 152c-116 0 -172 -69 -172 -152c0 -74 48 -126 100 -141c22 -6 32 -29 32 -54v-162c0 -36 -18 -58 -62 -58h-167c-46 0 -65 22 -65 56s19 55 65 55
h112v75c-90 29 -152 126 -152 229c0 146 113 265 312 265s305 -119 305 -265c0 -108 -62 -200 -151 -229v-75h112c46 0 64 -21 64 -55z" />
    <glyph glyph-name="uni03BC" unicode="&#x3bc;" horiz-adv-x="616" 
d="M552 458v-377c0 -43 -18 -63 -60 -73c-44 -10 -106 -20 -148 -20c-58 0 -106 9 -134 18v-164c0 -40 -20 -63 -74 -63s-72 23 -72 63v616c0 40 19 63 73 63s73 -23 73 -63v-346c16 -7 61 -14 105 -14c30 0 69 6 91 12v348c0 40 19 63 73 63s73 -23 73 -63z" />
    <glyph glyph-name="pi" unicode="&#x3c0;" horiz-adv-x="616" 
d="M562 54c0 -35 -22 -54 -45 -59c-12 -2 -44 -7 -67 -7c-73 0 -95 41 -95 91v306h-98v-339c0 -34 -17 -55 -64 -55s-62 21 -62 55v339h-25c-35 0 -49 23 -49 63s14 64 49 64h404c35 0 50 -24 50 -64s-15 -63 -50 -63h-33v-238c0 -18 4 -32 21 -32c8 0 20 3 24 3
c27 0 40 -23 40 -64z" />
    <glyph glyph-name="Wgrave" unicode="&#x1e80;" horiz-adv-x="1001" 
d="M565 769c0 -15 -9 -24 -33 -24c-37 0 -60 11 -76 31l-53 65c-10 12 -18 25 -18 35c0 15 14 25 44 25c51 0 75 -16 85 -33l39 -63c8 -14 12 -26 12 -36zM969 634c0 -8 -4 -24 -5 -30l-128 -551c-10 -41 -41 -64 -112 -64c-69 0 -102 22 -111 64l-111 499l-113 -499
c-9 -41 -41 -64 -112 -64c-69 0 -102 23 -112 64l-128 551c-1 6 -4 22 -4 30c0 40 22 57 81 57c45 0 70 -15 77 -51l100 -500l108 487c9 42 42 64 108 64s96 -24 105 -64l110 -487l98 500c7 34 30 51 72 51c55 0 77 -17 77 -57z" />
    <glyph glyph-name="wgrave" unicode="&#x1e81;" horiz-adv-x="894" 
d="M515 601c0 -15 -10 -24 -34 -24c-37 0 -60 11 -76 31l-53 65c-10 12 -18 25 -18 35c0 15 14 25 44 25c51 0 75 -16 85 -33l39 -63c8 -14 13 -26 13 -36zM860 464c0 -8 -3 -24 -5 -30l-100 -381c-11 -41 -41 -64 -111 -64s-101 23 -111 64l-88 352l-82 -352
c-10 -41 -42 -64 -112 -64c-69 0 -100 23 -111 64l-101 381c-2 6 -5 22 -5 30c0 40 22 57 78 57c38 0 67 -15 73 -43l81 -364l80 345c10 42 41 64 109 64s96 -23 106 -64l84 -345l78 364c6 27 28 43 66 43c52 0 71 -17 71 -57z" />
    <glyph glyph-name="Wacute" unicode="&#x1e82;" horiz-adv-x="1001" 
d="M616 876c0 -10 -8 -23 -18 -35l-53 -65c-16 -20 -39 -31 -76 -31c-24 0 -34 9 -34 24c0 10 5 22 13 36l38 63c10 17 34 33 85 33c30 0 45 -10 45 -25zM969 634c0 -8 -4 -24 -5 -30l-128 -551c-10 -41 -41 -64 -112 -64c-69 0 -102 22 -111 64l-111 499l-113 -499
c-9 -41 -41 -64 -112 -64c-69 0 -102 23 -112 64l-128 551c-1 6 -4 22 -4 30c0 40 22 57 81 57c45 0 70 -15 77 -51l100 -500l108 487c9 42 42 64 108 64s96 -24 105 -64l110 -487l98 500c7 34 30 51 72 51c55 0 77 -17 77 -57z" />
    <glyph glyph-name="wacute" unicode="&#x1e83;" horiz-adv-x="894" 
d="M564 708c0 -10 -8 -23 -18 -35l-53 -65c-16 -20 -39 -31 -76 -31c-24 0 -34 9 -34 24c0 10 5 22 13 36l39 63c10 17 34 33 85 33c30 0 44 -10 44 -25zM860 464c0 -8 -3 -24 -5 -30l-100 -381c-11 -41 -41 -64 -111 -64s-101 23 -111 64l-88 352l-82 -352
c-10 -41 -42 -64 -112 -64c-69 0 -100 23 -111 64l-101 381c-2 6 -5 22 -5 30c0 40 22 57 78 57c38 0 67 -15 73 -43l81 -364l80 345c10 42 41 64 109 64s96 -23 106 -64l84 -345l78 364c6 27 28 43 66 43c52 0 71 -17 71 -57z" />
    <glyph glyph-name="Wdieresis" unicode="&#x1e84;" horiz-adv-x="1001" 
d="M668 825c0 -48 -18 -75 -70 -75s-70 27 -70 75c0 46 21 72 71 72s69 -26 69 -72zM472 825c0 -48 -18 -75 -70 -75s-69 27 -69 75c0 46 20 72 70 72s69 -26 69 -72zM969 634c0 -8 -4 -24 -5 -30l-128 -551c-10 -41 -41 -64 -112 -64c-69 0 -102 22 -111 64l-111 499
l-113 -499c-9 -41 -41 -64 -112 -64c-69 0 -102 23 -112 64l-128 551c-1 6 -4 22 -4 30c0 40 22 57 81 57c45 0 70 -15 77 -51l100 -500l108 487c9 42 42 64 108 64s96 -24 105 -64l110 -487l98 500c7 34 30 51 72 51c55 0 77 -17 77 -57z" />
    <glyph glyph-name="wdieresis" unicode="&#x1e85;" horiz-adv-x="894" 
d="M616 657c0 -48 -18 -75 -70 -75s-69 27 -69 75c0 46 20 72 70 72s69 -26 69 -72zM420 657c0 -48 -18 -75 -70 -75s-69 27 -69 75c0 46 20 72 70 72s69 -26 69 -72zM860 464c0 -8 -3 -24 -5 -30l-100 -381c-11 -41 -41 -64 -111 -64s-101 23 -111 64l-88 352l-82 -352
c-10 -41 -42 -64 -112 -64c-69 0 -100 23 -111 64l-101 381c-2 6 -5 22 -5 30c0 40 22 57 78 57c38 0 67 -15 73 -43l81 -364l80 345c10 42 41 64 109 64s96 -23 106 -64l84 -345l78 364c6 27 28 43 66 43c52 0 71 -17 71 -57z" />
    <glyph glyph-name="Ygrave" unicode="&#x1ef2;" horiz-adv-x="628" 
d="M378 769c0 -15 -9 -24 -33 -24c-37 0 -60 11 -76 31l-53 65c-10 12 -18 25 -18 35c0 15 14 25 44 25c51 0 75 -16 85 -33l39 -63c8 -14 12 -26 12 -36zM601 649c0 -16 -7 -34 -17 -53l-193 -349v-191c0 -41 -21 -65 -78 -65s-77 24 -77 65v191l-192 349
c-11 20 -17 37 -17 53c0 23 23 40 75 40c53 0 75 -20 93 -56l128 -251l122 251c18 37 37 56 85 56c47 0 71 -17 71 -40z" />
    <glyph glyph-name="ygrave" unicode="&#x1ef3;" horiz-adv-x="549" 
d="M340 601c0 -15 -10 -24 -34 -24c-37 0 -59 11 -75 31l-54 65c-10 12 -17 25 -17 35c0 15 14 25 44 25c51 0 75 -16 85 -33l38 -63c8 -14 13 -26 13 -36zM521 464c0 -8 -3 -22 -6 -30l-167 -448c-63 -169 -95 -210 -206 -210c-23 0 -47 2 -59 5c-28 6 -44 22 -44 55
c0 38 24 56 50 56c7 0 28 -3 36 -3c26 0 48 14 68 75l7 24l-166 446c-2 6 -6 22 -6 30c0 40 24 57 78 57c44 0 67 -20 76 -51l96 -319l100 319c10 31 28 52 71 52c52 0 72 -18 72 -58z" />
    <glyph glyph-name="endash" unicode="&#x2013;" horiz-adv-x="500" 
d="M500 310c0 -40 -18 -64 -65 -64h-370c-47 0 -65 24 -65 64s18 64 65 64h370c47 0 65 -24 65 -64z" />
    <glyph glyph-name="emdash" unicode="&#x2014;" horiz-adv-x="1000" 
d="M1000 310c0 -40 -18 -64 -65 -64h-870c-47 0 -65 24 -65 64s18 64 65 64h870c47 0 65 -24 65 -64z" />
    <glyph glyph-name="quoteleft" unicode="&#x2018;" horiz-adv-x="308" 
d="M233 551c0 -48 -24 -78 -81 -78s-80 30 -80 78c0 51 34 119 75 201c9 19 23 26 41 26c15 0 22 -8 22 -21c0 -5 -2 -11 -5 -18l-48 -107c53 0 76 -30 76 -81z" />
    <glyph glyph-name="quoteright" unicode="&#x2019;" horiz-adv-x="308" 
d="M234 700c0 -51 -34 -118 -75 -200c-9 -19 -23 -26 -41 -26c-15 0 -22 7 -22 20c0 5 2 12 5 19l48 107c-53 0 -76 29 -76 80c0 48 24 78 81 78s80 -30 80 -78z" />
    <glyph glyph-name="quotesinglbase" unicode="&#x201a;" horiz-adv-x="308" 
d="M234 69c0 -51 -34 -119 -75 -201c-9 -19 -23 -26 -41 -26c-15 0 -22 8 -22 21c0 5 2 11 5 18l48 107c-53 0 -76 30 -76 81c0 48 24 78 81 78s80 -30 80 -78z" />
    <glyph glyph-name="quotedblleft" unicode="&#x201c;" horiz-adv-x="493" 
d="M418 551c0 -48 -22 -78 -74 -78s-73 30 -73 78c0 51 30 119 68 201c9 19 21 26 38 26c14 0 20 -8 20 -21c0 -5 -2 -11 -5 -18l-44 -107c48 0 70 -30 70 -81zM218 551c0 -48 -21 -78 -73 -78s-73 30 -73 78c0 51 30 119 68 201c9 19 21 26 38 26c14 0 20 -8 20 -21
c0 -5 -2 -11 -5 -18l-44 -107c48 0 69 -30 69 -81z" />
    <glyph glyph-name="quotedblright" unicode="&#x201d;" horiz-adv-x="493" 
d="M419 700c0 -51 -30 -118 -68 -200c-9 -19 -21 -26 -38 -26c-14 0 -20 7 -20 20c0 5 2 12 5 19l44 107c-48 0 -70 29 -70 80c0 48 22 78 74 78s73 -30 73 -78zM220 700c0 -51 -30 -118 -68 -200c-9 -19 -21 -26 -38 -26c-14 0 -20 7 -20 20c0 5 1 12 4 19l44 107
c-48 0 -69 29 -69 80c0 48 22 78 74 78s73 -30 73 -78z" />
    <glyph glyph-name="quotedblbase" unicode="&#x201e;" horiz-adv-x="493" 
d="M419 69c0 -51 -30 -119 -68 -201c-9 -19 -21 -26 -38 -26c-14 0 -20 8 -20 21c0 5 2 11 5 18l44 107c-48 0 -70 30 -70 81c0 48 22 78 74 78s73 -30 73 -78zM220 69c0 -51 -30 -119 -68 -201c-9 -19 -21 -26 -38 -26c-14 0 -20 8 -20 21c0 5 1 11 4 18l44 107
c-48 0 -69 30 -69 81c0 48 22 78 74 78s73 -30 73 -78z" />
    <glyph glyph-name="dagger" unicode="&#x2020;" horiz-adv-x="616" 
d="M555 448c0 -40 -18 -63 -65 -63h-116v-545c0 -38 -16 -61 -66 -61s-67 23 -67 61v545h-116c-47 0 -65 23 -65 63s18 64 65 64h116v116c0 38 17 61 67 61s66 -23 66 -61v-116h116c47 0 65 -24 65 -64z" />
    <glyph glyph-name="daggerdbl" unicode="&#x2021;" horiz-adv-x="616" 
d="M555 64c0 -40 -18 -64 -65 -64h-116v-160c0 -38 -16 -61 -66 -61s-67 23 -67 61v160h-116c-47 0 -65 24 -65 64s18 63 65 63h116v258h-116c-47 0 -65 23 -65 63s18 64 65 64h116v116c0 38 17 61 67 61s66 -23 66 -61v-116h116c47 0 65 -24 65 -64s-18 -63 -65 -63h-116
v-258h116c47 0 65 -23 65 -63z" />
    <glyph glyph-name="bullet" unicode="&#x2022;" horiz-adv-x="500" 
d="M400 311c0 -99 -51 -153 -150 -153s-150 54 -150 153s51 147 150 147s150 -48 150 -147z" />
    <glyph glyph-name="ellipsis" unicode="&#x2026;" horiz-adv-x="616" 
d="M579 69c0 -51 -17 -81 -66 -81c-48 0 -66 30 -66 81c0 48 19 78 66 78s66 -30 66 -78zM374 69c0 -51 -17 -81 -66 -81c-48 0 -66 30 -66 81c0 48 19 78 66 78s66 -30 66 -78zM169 69c0 -51 -18 -81 -67 -81c-48 0 -66 30 -66 81c0 48 19 78 66 78s67 -30 67 -78z" />
    <glyph glyph-name="perthousand" unicode="&#x2030;" horiz-adv-x="1539" 
d="M1465 204c0 -137 -46 -212 -183 -212s-178 75 -178 212c0 133 48 204 182 204s179 -72 179 -204zM1039 204c0 -137 -46 -212 -183 -212s-178 75 -178 212c0 133 48 204 182 204s179 -72 179 -204zM755 659c0 -9 -3 -21 -9 -35l-253 -568c-18 -41 -45 -65 -90 -65
c-30 0 -43 11 -43 30c0 9 3 21 9 35l254 568c18 41 44 65 89 65c30 0 43 -11 43 -30zM436 484c0 -137 -46 -212 -183 -212s-178 75 -178 212c0 133 48 204 182 204s179 -72 179 -204zM1351 204c0 70 -7 128 -67 128s-67 -58 -67 -128c0 -74 6 -136 67 -136s67 62 67 136z
M925 204c0 70 -7 128 -67 128s-67 -58 -67 -128c0 -74 6 -136 67 -136s67 62 67 136zM322 484c0 70 -7 128 -67 128s-67 -58 -67 -128c0 -74 6 -136 67 -136s67 62 67 136z" />
    <glyph glyph-name="guilsinglleft" unicode="&#x2039;" horiz-adv-x="308" 
d="M261 186c0 -15 -16 -27 -48 -27c-38 0 -67 12 -84 33l-88 111c-15 19 -20 30 -20 41c0 10 6 21 21 39l86 105c17 21 47 33 85 33c32 0 48 -11 48 -26c0 -6 -4 -14 -7 -19l-83 -133l84 -139c3 -6 6 -12 6 -18z" />
    <glyph glyph-name="guilsinglright" unicode="&#x203a;" horiz-adv-x="308" 
d="M287 344c0 -11 -5 -22 -20 -41l-88 -111c-17 -21 -46 -33 -84 -33c-32 0 -48 12 -48 27c0 6 3 12 6 18l83 139l-82 133c-3 5 -7 13 -7 19c0 15 16 26 48 26c38 0 67 -12 84 -33l87 -105c15 -18 21 -29 21 -39z" />
    <glyph glyph-name="fraction" unicode="&#x2044;" horiz-adv-x="308" 
d="M351 659c0 -9 -3 -21 -9 -35l-253 -568c-18 -41 -45 -65 -90 -65c-30 0 -43 11 -43 30c0 9 3 21 9 35l254 568c18 41 44 65 89 65c30 0 43 -11 43 -30z" />
    <glyph glyph-name="Euro" unicode="&#x20ac;" horiz-adv-x="616" 
d="M569 61c0 -34 -17 -44 -43 -55c-23 -10 -74 -18 -137 -18c-188 0 -248 106 -256 313h-34c-44 0 -63 20 -63 53c0 34 19 53 63 53h35c15 189 102 285 272 285c50 0 90 -8 112 -17c26 -10 43 -21 43 -53c0 -35 -20 -53 -51 -53c-23 0 -45 10 -78 10
c-106 0 -135 -81 -143 -172h144c44 0 62 -19 62 -53c0 -33 -18 -53 -62 -53h-146c4 -108 27 -200 145 -200c36 0 66 13 89 13c27 0 48 -17 48 -53z" />
    <glyph glyph-name="afii61289" unicode="&#x2113;" horiz-adv-x="616" 
d="M550 519c0 -110 -98 -171 -278 -262v-82c0 -43 30 -74 128 -74c28 0 72 10 88 10c26 0 51 -15 51 -52c0 -31 -18 -46 -45 -54c-25 -7 -102 -17 -152 -17c-155 0 -217 55 -217 150v60l-26 -22c-8 -7 -23 -12 -32 -12c-13 0 -24 18 -24 46c0 27 11 48 35 65l47 34v211
c0 93 65 172 215 172s210 -80 210 -173zM401 517c0 47 -22 72 -64 72s-65 -24 -65 -71v-149c90 63 129 98 129 148z" />
    <glyph glyph-name="trademark" unicode="&#x2122;" horiz-adv-x="970" 
d="M923 638v-328c0 -26 -14 -42 -51 -42s-51 15 -51 42v272l-90 -273c-8 -24 -23 -42 -66 -42s-59 20 -66 42l-89 273v-272c0 -26 -15 -42 -49 -42s-47 16 -47 42v328c0 33 18 50 79 50c66 0 83 -19 95 -54l85 -249l81 249c11 33 26 54 90 54c58 0 79 -17 79 -50zM372 639
c0 -25 -16 -42 -54 -42h-74v-288c0 -26 -14 -42 -53 -42c-38 0 -52 15 -52 42v288h-76c-38 0 -55 17 -55 42s17 41 55 41h255c38 0 54 -16 54 -41z" />
    <glyph glyph-name="Omega" unicode="&#x2126;" horiz-adv-x="924" 
d="M795 56c0 -34 -18 -56 -64 -56h-168c-44 0 -61 22 -61 58v162c0 25 10 48 32 54c52 15 99 67 99 141c0 83 -57 152 -171 152c-116 0 -172 -69 -172 -152c0 -74 48 -126 100 -141c22 -6 32 -29 32 -54v-162c0 -36 -18 -58 -62 -58h-167c-46 0 -65 22 -65 56s19 55 65 55
h112v75c-90 29 -152 126 -152 229c0 146 113 265 312 265s305 -119 305 -265c0 -108 -62 -200 -151 -229v-75h112c46 0 64 -21 64 -55z" />
    <glyph glyph-name="estimated" unicode="&#x212e;" horiz-adv-x="1000" 
d="M829 341h-516v-233c50 -50 112 -75 186 -75c77 0 160 22 229 126h59c-77 -125 -158 -171 -288 -171c-208 0 -328 165 -328 353c0 206 137 351 328 351c203 0 326 -152 330 -351zM313 386h372v185c-53 51 -116 76 -188 76s-133 -25 -184 -76v-185z" />
    <glyph glyph-name="partialdiff" unicode="&#x2202;" horiz-adv-x="616" 
d="M546 346c0 -144 -57 -358 -250 -358c-139 0 -227 66 -227 224s96 221 227 221c62 0 109 -20 126 -33c-5 86 -47 184 -152 184c-40 0 -98 -12 -119 -12c-29 0 -42 21 -42 53c0 30 12 45 36 52c23 7 95 15 142 15c202 0 259 -183 259 -346zM425 295c-17 15 -60 35 -123 35
c-78 0 -111 -42 -111 -118c0 -75 31 -115 105 -115c73 0 120 91 129 198z" />
    <glyph glyph-name="Delta" unicode="&#x2206;" horiz-adv-x="924" 
d="M770 39c0 -24 -19 -39 -59 -39h-498c-40 0 -59 15 -59 39c0 20 12 60 26 97l181 489c14 37 43 64 101 64s89 -30 102 -64l180 -489c14 -37 26 -77 26 -97zM314 127h296l-148 403z" />
    <glyph glyph-name="product" unicode="&#x220f;" horiz-adv-x="924" 
d="M786 609v-773c0 -36 -18 -57 -67 -57s-66 21 -66 57v717h-383v-717c0 -36 -18 -57 -67 -57s-66 21 -66 57v773c0 45 24 71 86 71h478c62 0 85 -26 85 -71z" />
    <glyph glyph-name="summation" unicode="&#x2211;" horiz-adv-x="924" 
d="M795 -148c0 -39 -21 -64 -72 -64h-510c-59 0 -83 21 -83 64c0 35 21 68 55 108l235 276l-223 271c-33 41 -55 74 -55 109c0 43 24 64 83 64h480c51 0 72 -25 72 -64s-21 -63 -72 -63h-368l234 -275c11 -13 18 -28 18 -40s-6 -27 -17 -40l-247 -283h398
c51 0 72 -24 72 -63z" />
    <glyph glyph-name="minus" unicode="&#x2212;" horiz-adv-x="616" 
d="M555 256c0 -39 -20 -64 -73 -64h-348c-53 0 -74 25 -74 64s21 64 74 64h348c53 0 73 -25 73 -64z" />
    <glyph glyph-name="uni2215" unicode="&#x2215;" horiz-adv-x="154" 
d="M274 659c0 -9 -3 -21 -9 -35l-253 -568c-18 -41 -45 -65 -90 -65c-30 0 -43 11 -43 30c0 9 3 21 9 35l254 568c18 41 44 65 89 65c30 0 43 -11 43 -30z" />
    <glyph glyph-name="uni2219" unicode="&#x2219;" horiz-adv-x="308" 
d="M234 312c0 -51 -20 -81 -80 -81c-59 0 -81 30 -81 81c0 48 24 78 81 78s80 -30 80 -78z" />
    <glyph glyph-name="radical" unicode="&#x221a;" horiz-adv-x="924" 
d="M786 640c0 -7 -3 -21 -4 -27l-189 -784c-8 -32 -33 -50 -83 -50s-69 20 -82 50l-170 382l-48 -34c-15 -11 -34 -22 -48 -22c-21 0 -31 22 -31 53c0 32 12 57 42 76l116 74c7 5 19 11 32 11c14 0 21 -11 26 -22l160 -386l150 684c6 29 28 44 63 44c47 0 66 -15 66 -49z
" />
    <glyph glyph-name="infinity" unicode="&#x221e;" horiz-adv-x="924" 
d="M794 256c0 -102 -82 -172 -179 -172c-64 0 -126 36 -155 93c-29 -58 -86 -93 -151 -93c-96 0 -179 70 -179 172s82 172 179 172c65 0 127 -34 157 -92c30 58 83 92 148 92c98 0 180 -70 180 -172zM678 256c0 44 -29 75 -71 75c-46 0 -76 -42 -89 -76
c12 -32 43 -74 89 -74c42 0 71 31 71 75zM406 256c-13 33 -44 75 -89 75c-41 0 -71 -31 -71 -75s30 -75 71 -75c45 0 76 41 89 75z" />
    <glyph glyph-name="integral" unicode="&#x222b;" horiz-adv-x="616" 
d="M496 624c0 -41 -16 -65 -47 -65c-10 0 -30 6 -41 6c-22 0 -34 -12 -34 -44v-614c0 -73 -33 -131 -130 -131c-28 0 -59 4 -79 9c-27 7 -45 24 -45 59c0 41 16 65 47 65c10 0 30 -6 41 -6c23 0 33 12 33 44v614c0 73 34 131 131 131c28 0 59 -4 79 -9c27 -7 45 -24 45 -59z
" />
    <glyph glyph-name="approxequal" unicode="&#x2248;" horiz-adv-x="616" 
d="M542 397c0 -70 -50 -126 -124 -126c-79 0 -161 49 -207 49c-24 0 -32 -12 -32 -20c0 -16 -15 -30 -51 -30c-35 0 -53 14 -53 30c0 70 50 126 124 126c78 0 161 -49 206 -49c24 0 32 12 32 20c0 16 15 30 51 30c35 0 54 -14 54 -30zM542 212c0 -70 -50 -126 -124 -126
c-79 0 -161 49 -207 49c-24 0 -32 -12 -32 -20c0 -16 -15 -30 -51 -30c-35 0 -53 14 -53 30c0 70 50 126 124 126c78 0 161 -49 206 -49c24 0 32 12 32 20c0 16 15 30 51 30c35 0 54 -14 54 -30z" />
    <glyph glyph-name="notequal" unicode="&#x2260;" horiz-adv-x="616" 
d="M555 150c0 -35 -18 -56 -65 -56h-185l-24 -59c-11 -26 -32 -44 -71 -44c-44 0 -55 20 -55 38c0 8 2 16 5 24l17 41h-52c-47 0 -65 21 -65 56s18 55 65 55h97l41 102h-138c-47 0 -65 20 -65 55s18 56 65 56h179l24 58c11 26 31 45 70 45c44 0 56 -20 56 -38
c0 -8 -2 -16 -5 -24l-18 -41h59c47 0 65 -21 65 -56s-18 -55 -65 -55h-103l-41 -102h144c47 0 65 -20 65 -55z" />
    <glyph glyph-name="lessequal" unicode="&#x2264;" horiz-adv-x="616" 
d="M555 213c0 -36 -19 -51 -55 -51c-8 0 -27 3 -32 5l-354 100c-36 10 -54 31 -54 69c0 37 20 59 54 69l355 101c5 2 24 4 32 4c37 0 54 -17 54 -51c0 -28 -20 -43 -50 -51l-269 -72l268 -71c30 -8 51 -23 51 -52zM555 52c0 -32 -16 -52 -59 -52h-376c-43 0 -60 20 -60 52
s17 51 60 51h376c43 0 59 -19 59 -51z" />
    <glyph glyph-name="greaterequal" unicode="&#x2265;" horiz-adv-x="616" 
d="M555 336c0 -38 -18 -59 -54 -69l-353 -100c-5 -2 -24 -5 -32 -5c-36 0 -56 15 -56 51c0 29 22 44 52 52l268 71l-269 72c-30 8 -51 23 -51 51c0 34 18 51 55 51c8 0 27 -2 32 -4l354 -101c34 -10 54 -32 54 -69zM555 52c0 -32 -16 -52 -59 -52h-376c-43 0 -60 20 -60 52
s17 51 60 51h376c43 0 59 -19 59 -51z" />
    <glyph glyph-name="lozenge" unicode="&#x25ca;" horiz-adv-x="924" 
d="M777 236c0 -12 -3 -24 -12 -39l-207 -368c-16 -29 -40 -50 -96 -50s-78 21 -95 50l-208 368c-8 15 -12 27 -12 39s6 26 14 41l205 362c17 29 40 50 96 50s79 -21 95 -50l206 -362c8 -15 14 -29 14 -41zM467 -104l169 340l-179 336l-170 -336z" />
    <glyph glyph-name="uniF8FF" unicode="&#xf8ff;" horiz-adv-x="500" 
d="M500 647v-614c0 -20 -8 -33 -30 -33h-440c-22 0 -30 13 -30 33v614c0 20 8 33 30 33h440c22 0 30 -13 30 -33zM90 84h320v512h-320v-512z" />
    <glyph glyph-name="fi" unicode="&#xfb01;" horiz-adv-x="645" 
d="M591 657c0 -48 -22 -75 -86 -75s-85 27 -85 75c0 46 24 72 86 72s85 -26 85 -72zM579 449v-395c0 -40 -20 -63 -74 -63s-73 23 -73 63v352h-219v-352c0 -40 -20 -63 -74 -63s-72 23 -72 63v476c0 112 26 206 190 206c23 0 63 -3 73 -5c28 -6 45 -20 45 -50
c0 -36 -25 -53 -51 -53c-7 0 -36 2 -46 2c-53 0 -65 -36 -65 -88v-30h293c54 0 73 -23 73 -63z" />
    <glyph glyph-name="fl" unicode="&#xfb02;" horiz-adv-x="645" 
d="M579 670v-616c0 -40 -20 -63 -74 -63s-73 23 -73 63v352h-219v-352c0 -40 -20 -63 -74 -63s-72 23 -72 63v476c0 112 26 206 190 206c23 0 63 -3 73 -5c28 -6 45 -20 45 -50c0 -36 -25 -53 -51 -53c-7 0 -36 2 -46 2c-53 0 -65 -36 -65 -88v-30h219v158c0 40 20 63 74 63
s73 -23 73 -63z" />
    <glyph glyph-name="zero.superior" unicode="&#x2070;" horiz-adv-x="462" 
d="M411 528c0 -137 -45 -212 -182 -212s-179 75 -179 212c0 133 49 204 183 204s178 -72 178 -204zM297 528c0 70 -6 128 -66 128s-67 -58 -67 -128c0 -74 6 -136 67 -136s66 62 66 136z" />
    <glyph glyph-name="four.superior" unicode="&#x2074;" horiz-adv-x="462" 
d="M388 525v-164c0 -28 -17 -42 -53 -42s-53 14 -53 42v46h-196c-34 0 -50 13 -50 38c0 16 12 35 25 50c31 35 88 125 115 194c10 25 26 42 63 42c35 0 45 -17 45 -42c0 -39 -74 -156 -126 -210h124v46c0 28 17 42 53 42s53 -14 53 -42z" />
    <glyph glyph-name="five.superior" unicode="&#x2075;" horiz-adv-x="462" 
d="M395 452c0 -84 -54 -136 -183 -136c-44 0 -96 6 -123 12c-19 4 -32 16 -32 37c0 22 15 35 38 35c20 0 57 -7 92 -7c76 0 97 27 97 58c0 36 -19 61 -97 61c-24 0 -56 -8 -77 -8c-23 0 -33 13 -33 34v150c0 24 16 36 50 36h206c34 0 50 -12 50 -37s-16 -38 -50 -38h-158
v-72c14 2 40 4 64 4c113 0 156 -49 156 -129z" />
    <glyph glyph-name="six.superior" unicode="&#x2076;" horiz-adv-x="462" 
d="M411 457c0 -98 -65 -141 -183 -141c-119 0 -175 43 -175 141c0 61 35 117 136 239c20 24 41 33 79 33c27 0 43 -7 43 -26c0 -7 -9 -21 -16 -30l-75 -90c14 4 31 7 47 7c101 0 144 -51 144 -133zM300 457c0 30 -15 65 -70 65c-57 0 -71 -34 -71 -65c0 -36 16 -68 71 -68
c56 0 70 32 70 68z" />
    <glyph glyph-name="seven.superior" unicode="&#x2077;" horiz-adv-x="462" 
d="M397 687c0 -13 -5 -28 -14 -46c-45 -88 -98 -213 -117 -281c-7 -27 -29 -43 -66 -43c-34 0 -49 13 -49 35c0 38 82 219 131 299h-115v-25c0 -26 -17 -42 -49 -42s-47 16 -47 42v60c0 25 16 38 50 38h227c34 0 49 -13 49 -37z" />
    <glyph glyph-name="eight.superior" unicode="&#x2078;" horiz-adv-x="462" 
d="M411 436c0 -77 -63 -120 -182 -120s-179 43 -179 120c0 46 30 77 77 91c-37 14 -59 45 -59 89c0 75 67 116 165 116c99 0 160 -41 160 -116c0 -41 -25 -69 -59 -81c50 -14 77 -47 77 -99zM292 611c0 22 -13 48 -61 48s-62 -27 -62 -48c0 -29 19 -49 62 -49s61 20 61 49z
M300 445c0 31 -24 51 -69 51c-46 0 -70 -19 -70 -51c0 -28 13 -56 70 -56c58 0 69 28 69 56z" />
    <glyph glyph-name="nine.superior" unicode="&#x2079;" horiz-adv-x="462" 
d="M408 599c0 -65 -49 -136 -136 -247c-18 -23 -42 -33 -80 -33c-27 0 -44 7 -44 26c0 7 9 21 16 30l78 98c-14 -4 -31 -7 -48 -7c-96 0 -144 53 -144 133c0 84 66 133 183 133c119 0 175 -48 175 -133zM302 601c0 26 -15 58 -71 58c-57 0 -70 -33 -70 -60
c0 -30 15 -65 70 -65c57 0 71 36 71 67z" />
    <glyph glyph-name="zero.denominator" horiz-adv-x="462" 
d="M411 204c0 -137 -45 -212 -182 -212s-179 75 -179 212c0 133 49 204 183 204s178 -72 178 -204zM297 204c0 70 -6 128 -66 128s-67 -58 -67 -128c0 -74 6 -136 67 -136s66 62 66 136z" />
    <glyph glyph-name="one.denominator" horiz-adv-x="462" 
d="M409 40c0 -26 -16 -40 -50 -40h-206c-34 0 -50 14 -50 40s16 39 50 39h50v222l-70 -36c-9 -4 -19 -8 -27 -8c-18 0 -24 16 -24 34c0 23 7 37 32 50l96 51c15 8 33 14 60 14c33 0 46 -14 46 -40v-287h43c34 0 50 -13 50 -39z" />
    <glyph glyph-name="two.denominator" horiz-adv-x="462" 
d="M396 38c0 -25 -16 -38 -50 -38h-244c-34 0 -49 12 -49 38c0 21 15 34 38 49c75 48 172 116 172 184c0 33 -13 60 -79 60c-30 0 -56 -8 -75 -8c-23 0 -38 14 -38 36c0 21 14 33 33 37c26 6 68 12 105 12c135 0 167 -55 167 -137c0 -83 -83 -154 -154 -195h124
c34 0 50 -12 50 -38z" />
    <glyph glyph-name="three.denominator" horiz-adv-x="462" 
d="M393 127c0 -83 -54 -135 -183 -135c-48 0 -99 6 -126 12c-19 4 -33 16 -33 37c0 22 15 36 38 36c20 0 57 -9 96 -9c76 0 97 27 97 59c0 38 -22 61 -70 61c-12 0 -30 -3 -44 -3c-23 0 -37 10 -37 30c0 15 9 26 29 43l84 71h-128c-34 0 -50 11 -50 36c0 23 16 35 50 35h217
c34 0 50 -13 50 -37c0 -19 -17 -32 -36 -48l-79 -67c86 -5 125 -45 125 -121z" />
    <glyph glyph-name="four.denominator" horiz-adv-x="462" 
d="M388 201v-164c0 -28 -17 -42 -53 -42s-53 14 -53 42v46h-196c-34 0 -50 13 -50 38c0 16 12 35 25 50c31 35 88 125 115 194c10 25 26 42 63 42c35 0 45 -17 45 -42c0 -39 -74 -156 -126 -210h124v46c0 28 17 42 53 42s53 -14 53 -42z" />
    <glyph glyph-name="five.denominator" horiz-adv-x="462" 
d="M395 128c0 -84 -54 -136 -183 -136c-44 0 -96 6 -123 12c-19 4 -32 16 -32 37c0 22 15 35 38 35c20 0 57 -7 92 -7c76 0 97 27 97 58c0 36 -19 61 -97 61c-24 0 -56 -8 -77 -8c-23 0 -33 13 -33 34v150c0 24 16 36 50 36h206c34 0 50 -12 50 -37s-16 -38 -50 -38h-158
v-72c14 2 40 4 64 4c113 0 156 -49 156 -129z" />
    <glyph glyph-name="six.denominator" horiz-adv-x="462" 
d="M411 133c0 -98 -65 -141 -183 -141c-119 0 -175 43 -175 141c0 61 35 117 136 239c20 24 41 33 79 33c27 0 43 -7 43 -26c0 -7 -9 -21 -16 -30l-75 -90c14 4 31 7 47 7c101 0 144 -51 144 -133zM300 133c0 30 -15 65 -70 65c-57 0 -71 -34 -71 -65c0 -36 16 -68 71 -68
c56 0 70 32 70 68z" />
    <glyph glyph-name="seven.denominator" horiz-adv-x="462" 
d="M397 363c0 -13 -5 -28 -14 -46c-45 -88 -98 -213 -117 -281c-7 -27 -29 -43 -66 -43c-34 0 -49 13 -49 35c0 38 82 219 131 299h-115v-25c0 -26 -17 -42 -49 -42s-47 16 -47 42v60c0 25 16 38 50 38h227c34 0 49 -13 49 -37z" />
    <glyph glyph-name="eight.denominator" horiz-adv-x="462" 
d="M411 112c0 -77 -63 -120 -182 -120s-179 43 -179 120c0 46 30 77 77 91c-37 14 -59 45 -59 89c0 75 67 116 165 116c99 0 160 -41 160 -116c0 -41 -25 -69 -59 -81c50 -14 77 -47 77 -99zM292 287c0 22 -13 48 -61 48s-62 -27 -62 -48c0 -29 19 -49 62 -49s61 20 61 49z
M300 121c0 31 -24 51 -69 51c-46 0 -70 -19 -70 -51c0 -28 13 -56 70 -56c58 0 69 28 69 56z" />
    <glyph glyph-name="nine.denominator" horiz-adv-x="462" 
d="M408 275c0 -65 -49 -136 -136 -247c-18 -23 -42 -33 -80 -33c-27 0 -44 7 -44 26c0 7 9 21 16 30l78 98c-14 -4 -31 -7 -48 -7c-96 0 -144 53 -144 133c0 84 66 133 183 133c119 0 175 -48 175 -133zM302 277c0 26 -15 58 -71 58c-57 0 -70 -33 -70 -60
c0 -30 15 -65 70 -65c57 0 71 36 71 67z" />
    <glyph glyph-name="zero.numerator" horiz-adv-x="462" 
d="M411 484c0 -137 -45 -212 -182 -212s-179 75 -179 212c0 133 49 204 183 204s178 -72 178 -204zM297 484c0 70 -6 128 -66 128s-67 -58 -67 -128c0 -74 6 -136 67 -136s66 62 66 136z" />
    <glyph glyph-name="one.numerator" horiz-adv-x="462" 
d="M409 320c0 -26 -16 -40 -50 -40h-206c-34 0 -50 14 -50 40s16 39 50 39h50v222l-70 -36c-9 -4 -19 -8 -27 -8c-18 0 -24 16 -24 34c0 23 7 37 32 50l96 51c15 8 33 14 60 14c33 0 46 -14 46 -40v-287h43c34 0 50 -13 50 -39z" />
    <glyph glyph-name="two.numerator" horiz-adv-x="462" 
d="M396 318c0 -25 -16 -38 -50 -38h-244c-34 0 -49 12 -49 38c0 21 15 34 38 49c75 48 172 116 172 184c0 33 -13 60 -79 60c-30 0 -56 -8 -75 -8c-23 0 -38 14 -38 36c0 21 14 33 33 37c26 6 68 12 105 12c135 0 167 -55 167 -137c0 -83 -83 -154 -154 -195h124
c34 0 50 -12 50 -38z" />
    <glyph glyph-name="three.numerator" horiz-adv-x="462" 
d="M393 407c0 -83 -54 -135 -183 -135c-48 0 -99 6 -126 12c-19 4 -33 16 -33 37c0 22 15 36 38 36c20 0 57 -9 96 -9c76 0 97 27 97 59c0 38 -22 61 -70 61c-12 0 -30 -3 -44 -3c-23 0 -37 10 -37 30c0 15 9 26 29 43l84 71h-128c-34 0 -50 11 -50 36c0 23 16 35 50 35h217
c34 0 50 -13 50 -37c0 -19 -17 -32 -36 -48l-79 -67c86 -5 125 -45 125 -121z" />
    <glyph glyph-name="four.numerator" horiz-adv-x="462" 
d="M388 481v-164c0 -28 -17 -42 -53 -42s-53 14 -53 42v46h-196c-34 0 -50 13 -50 38c0 16 12 35 25 50c31 35 88 125 115 194c10 25 26 42 63 42c35 0 45 -17 45 -42c0 -39 -74 -156 -126 -210h124v46c0 28 17 42 53 42s53 -14 53 -42z" />
    <glyph glyph-name="five.numerator" horiz-adv-x="462" 
d="M395 408c0 -84 -54 -136 -183 -136c-44 0 -96 6 -123 12c-19 4 -32 16 -32 37c0 22 15 35 38 35c20 0 57 -7 92 -7c76 0 97 27 97 58c0 36 -19 61 -97 61c-24 0 -56 -8 -77 -8c-23 0 -33 13 -33 34v150c0 24 16 36 50 36h206c34 0 50 -12 50 -37s-16 -38 -50 -38h-158
v-72c14 2 40 4 64 4c113 0 156 -49 156 -129z" />
    <glyph glyph-name="six.numerator" horiz-adv-x="462" 
d="M411 413c0 -98 -65 -141 -183 -141c-119 0 -175 43 -175 141c0 61 35 117 136 239c20 24 41 33 79 33c27 0 43 -7 43 -26c0 -7 -9 -21 -16 -30l-75 -90c14 4 31 7 47 7c101 0 144 -51 144 -133zM300 413c0 30 -15 65 -70 65c-57 0 -71 -34 -71 -65c0 -36 16 -68 71 -68
c56 0 70 32 70 68z" />
    <glyph glyph-name="seven.numerator" horiz-adv-x="462" 
d="M397 643c0 -13 -5 -28 -14 -46c-45 -88 -98 -213 -117 -281c-7 -27 -29 -43 -66 -43c-34 0 -49 13 -49 35c0 38 82 219 131 299h-115v-25c0 -26 -17 -42 -49 -42s-47 16 -47 42v60c0 25 16 38 50 38h227c34 0 49 -13 49 -37z" />
    <glyph glyph-name="eight.numerator" horiz-adv-x="462" 
d="M411 392c0 -77 -63 -120 -182 -120s-179 43 -179 120c0 46 30 77 77 91c-37 14 -59 45 -59 89c0 75 67 116 165 116c99 0 160 -41 160 -116c0 -41 -25 -69 -59 -81c50 -14 77 -47 77 -99zM292 567c0 22 -13 48 -61 48s-62 -27 -62 -48c0 -29 19 -49 62 -49s61 20 61 49z
M300 401c0 31 -24 51 -69 51c-46 0 -70 -19 -70 -51c0 -28 13 -56 70 -56c58 0 69 28 69 56z" />
    <glyph glyph-name="nine.numerator" horiz-adv-x="462" 
d="M408 555c0 -65 -49 -136 -136 -247c-18 -23 -42 -33 -80 -33c-27 0 -44 7 -44 26c0 7 9 21 16 30l78 98c-14 -4 -31 -7 -48 -7c-96 0 -144 53 -144 133c0 84 66 133 183 133c119 0 175 -48 175 -133zM302 557c0 26 -15 58 -71 58c-57 0 -70 -33 -70 -60
c0 -30 15 -65 70 -65c57 0 71 36 71 67z" />
    <glyph glyph-name="zero.inferior" unicode="&#x2080;" horiz-adv-x="462" 
d="M411 -8c0 -137 -45 -212 -182 -212s-179 75 -179 212c0 133 49 204 183 204s178 -72 178 -204zM297 -8c0 70 -6 128 -66 128s-67 -58 -67 -128c0 -74 6 -136 67 -136s66 62 66 136z" />
    <glyph glyph-name="one.inferior" unicode="&#x2081;" horiz-adv-x="462" 
d="M409 -172c0 -26 -16 -40 -50 -40h-206c-34 0 -50 14 -50 40s16 39 50 39h50v222l-70 -36c-9 -4 -19 -8 -27 -8c-18 0 -24 16 -24 34c0 23 7 37 32 50l96 51c15 8 33 14 60 14c33 0 46 -14 46 -40v-287h43c34 0 50 -13 50 -39z" />
    <glyph glyph-name="two.inferior" unicode="&#x2082;" horiz-adv-x="462" 
d="M396 -174c0 -25 -16 -38 -50 -38h-244c-34 0 -49 12 -49 38c0 21 15 34 38 49c75 48 172 116 172 184c0 33 -13 60 -79 60c-30 0 -56 -8 -75 -8c-23 0 -38 14 -38 36c0 21 14 33 33 37c26 6 68 12 105 12c135 0 167 -55 167 -137c0 -83 -83 -154 -154 -195h124
c34 0 50 -12 50 -38z" />
    <glyph glyph-name="three.inferior" unicode="&#x2083;" horiz-adv-x="462" 
d="M393 -85c0 -83 -54 -135 -183 -135c-48 0 -99 6 -126 12c-19 4 -33 16 -33 37c0 22 15 36 38 36c20 0 57 -9 96 -9c76 0 97 27 97 59c0 38 -22 61 -70 61c-12 0 -30 -3 -44 -3c-23 0 -37 10 -37 30c0 15 9 26 29 43l84 71h-128c-34 0 -50 11 -50 36c0 23 16 35 50 35h217
c34 0 50 -13 50 -37c0 -19 -17 -32 -36 -48l-79 -67c86 -5 125 -45 125 -121z" />
    <glyph glyph-name="four.inferior" unicode="&#x2084;" horiz-adv-x="462" 
d="M388 -11v-164c0 -28 -17 -42 -53 -42s-53 14 -53 42v46h-196c-34 0 -50 13 -50 38c0 16 12 35 25 50c31 35 88 125 115 194c10 25 26 42 63 42c35 0 45 -17 45 -42c0 -39 -74 -156 -126 -210h124v46c0 28 17 42 53 42s53 -14 53 -42z" />
    <glyph glyph-name="five.inferior" unicode="&#x2085;" horiz-adv-x="462" 
d="M395 -84c0 -84 -54 -136 -183 -136c-44 0 -96 6 -123 12c-19 4 -32 16 -32 37c0 22 15 35 38 35c20 0 57 -7 92 -7c76 0 97 27 97 58c0 36 -19 61 -97 61c-24 0 -56 -8 -77 -8c-23 0 -33 13 -33 34v150c0 24 16 36 50 36h206c34 0 50 -12 50 -37s-16 -38 -50 -38h-158
v-72c14 2 40 4 64 4c113 0 156 -49 156 -129z" />
    <glyph glyph-name="six.inferior" unicode="&#x2086;" horiz-adv-x="462" 
d="M411 -79c0 -98 -65 -141 -183 -141c-119 0 -175 43 -175 141c0 61 35 117 136 239c20 24 41 33 79 33c27 0 43 -7 43 -26c0 -7 -9 -21 -16 -30l-75 -90c14 4 31 7 47 7c101 0 144 -51 144 -133zM300 -79c0 30 -15 65 -70 65c-57 0 -71 -34 -71 -65c0 -36 16 -68 71 -68
c56 0 70 32 70 68z" />
    <glyph glyph-name="seven.inferior" unicode="&#x2087;" horiz-adv-x="462" 
d="M397 151c0 -13 -5 -28 -14 -46c-45 -88 -98 -213 -117 -281c-7 -27 -29 -43 -66 -43c-34 0 -49 13 -49 35c0 38 82 219 131 299h-115v-25c0 -26 -17 -42 -49 -42s-47 16 -47 42v60c0 25 16 38 50 38h227c34 0 49 -13 49 -37z" />
    <glyph glyph-name="eight.inferior" unicode="&#x2088;" horiz-adv-x="462" 
d="M411 -100c0 -77 -63 -120 -182 -120s-179 43 -179 120c0 46 30 77 77 91c-37 14 -59 45 -59 89c0 75 67 116 165 116c99 0 160 -41 160 -116c0 -41 -25 -69 -59 -81c50 -14 77 -47 77 -99zM292 75c0 22 -13 48 -61 48s-62 -27 -62 -48c0 -29 19 -49 62 -49s61 20 61 49z
M300 -91c0 31 -24 51 -69 51c-46 0 -70 -19 -70 -51c0 -28 13 -56 70 -56c58 0 69 28 69 56z" />
    <glyph glyph-name="nine.inferior" unicode="&#x2089;" horiz-adv-x="462" 
d="M408 63c0 -65 -49 -136 -136 -247c-18 -23 -42 -33 -80 -33c-27 0 -44 7 -44 26c0 7 9 21 16 30l78 98c-14 -4 -31 -7 -48 -7c-96 0 -144 53 -144 133c0 84 66 133 183 133c119 0 175 -48 175 -133zM302 65c0 26 -15 58 -71 58c-57 0 -70 -33 -70 -60
c0 -30 15 -65 70 -65c57 0 71 36 71 67z" />
    <glyph glyph-name="acute.cap" 
d="M255 876c0 -10 -7 -23 -17 -35l-53 -65c-16 -20 -39 -31 -76 -31c-24 0 -34 9 -34 24c0 10 5 22 13 36l38 63c10 17 34 33 85 33c30 0 44 -10 44 -25z" />
    <glyph glyph-name="breve.cap" 
d="M295 871c0 -70 -45 -123 -155 -123s-154 53 -154 123c0 18 12 30 40 30s40 -13 40 -30c0 -32 24 -61 74 -61s74 29 74 61c0 17 12 30 40 30s41 -12 41 -30z" />
    <glyph glyph-name="caron.alt" 
d="M227 700c0 -7 -5 -17 -10 -27l-34 -65c-12 -23 -36 -31 -70 -31c-28 0 -40 14 -40 34c0 8 2 16 5 26l18 57c7 23 28 39 79 39c30 0 52 -12 52 -33z" />
    <glyph glyph-name="caron.cap" 
d="M289 877c0 -10 -5 -24 -15 -37l-48 -64c-9 -12 -31 -31 -83 -31s-76 20 -84 31l-48 64c-10 13 -16 27 -16 37c0 14 10 24 34 24c35 0 53 -13 68 -31l48 -56l47 56c15 18 34 31 66 31c21 0 31 -10 31 -24z" />
    <glyph glyph-name="circumflex.cap" 
d="M289 769c0 -14 -10 -24 -34 -24c-35 0 -53 13 -68 31l-48 56l-47 -56c-15 -18 -34 -31 -66 -31c-21 0 -31 10 -31 24c0 10 6 24 16 37l48 64c9 12 30 31 82 31s77 -20 85 -31l48 -64c10 -13 15 -27 15 -37z" />
    <glyph glyph-name="commaaccent.alt" 
d="M221 618c0 -27 -24 -44 -81 -44s-80 17 -80 44c0 23 24 54 79 120c9 11 23 15 39 15c13 0 18 -5 18 -12c0 -4 -2 -8 -5 -11l-51 -67c56 0 81 -16 81 -45z" />
    <glyph glyph-name="dieresis.cap" 
d="M308 825c0 -48 -19 -75 -71 -75s-69 27 -69 75c0 46 21 72 71 72s69 -26 69 -72zM112 825c0 -48 -18 -75 -70 -75s-70 27 -70 75c0 46 21 72 71 72s69 -26 69 -72z" />
    <glyph glyph-name="dotaccent.cap" 
d="M225 825c0 -48 -22 -75 -86 -75s-84 27 -84 75c0 46 24 72 86 72s84 -26 84 -72z" />
    <glyph glyph-name="grave.cap" 
d="M205 769c0 -15 -10 -24 -34 -24c-37 0 -59 11 -75 31l-53 65c-10 12 -18 25 -18 35c0 15 14 25 44 25c51 0 75 -16 85 -33l39 -63c8 -14 12 -26 12 -36z" />
    <glyph glyph-name="hungarumlaut.cap" 
d="M342 876c0 -10 -9 -24 -19 -36l-53 -64c-17 -21 -35 -31 -64 -31c-22 0 -31 9 -31 24c0 10 6 23 14 36l40 63c10 17 25 33 71 33c27 0 42 -10 42 -25zM165 876c0 -10 -9 -24 -19 -36l-53 -64c-17 -21 -35 -31 -64 -31c-22 0 -31 9 -31 24c0 10 6 23 14 36l39 63
c10 17 26 33 72 33c27 0 42 -10 42 -25z" />
    <glyph glyph-name="macron.cap" 
d="M301 823c0 -27 -15 -43 -52 -43h-218c-37 0 -52 16 -52 43s15 44 52 44h218c37 0 52 -17 52 -44z" />
    <glyph glyph-name="ring.cap" 
d="M243 825c0 -51 -29 -89 -104 -89s-101 38 -101 89c0 48 31 85 103 85s102 -37 102 -85zM187 825c0 23 -16 38 -47 38s-46 -15 -46 -38c0 -26 14 -42 46 -42s47 16 47 42z" />
    <glyph glyph-name="tilde.cap" 
d="M312 866c0 -66 -38 -115 -109 -115c-58 0 -95 56 -126 56c-23 0 -32 -16 -32 -27c0 -15 -12 -27 -37 -27s-40 12 -40 27c0 66 38 115 109 115c58 0 95 -56 126 -56c23 0 32 16 32 27c0 15 12 27 37 27s40 -12 40 -27z" />
    <glyph glyph-name="zero.prop" horiz-adv-x="645" 
d="M591 341c0 -234 -67 -353 -271 -353c-203 0 -266 120 -266 353c0 224 73 339 272 339s265 -115 265 -339zM435 341c0 115 -9 228 -112 228s-113 -113 -113 -228c0 -123 9 -242 113 -242s112 119 112 242z" />
    <glyph glyph-name="one.prop" horiz-adv-x="537" 
d="M523 58c0 -37 -18 -58 -67 -58h-318c-49 0 -68 21 -68 58s19 57 68 57h85v408l-121 -70c-12 -7 -26 -11 -37 -11c-19 0 -27 17 -27 47c0 35 9 57 45 78l147 86c22 13 47 23 87 23c46 0 62 -20 62 -58v-503h77c49 0 67 -20 67 -57z" />
    <glyph glyph-name="two.prop" horiz-adv-x="581" 
d="M542 58c0 -36 -18 -58 -67 -58h-375c-49 0 -68 21 -68 58c0 30 22 53 56 77c113 81 268 197 268 319c0 62 -25 113 -132 113c-52 0 -87 -12 -115 -12c-31 0 -49 19 -49 51c0 30 17 49 43 55c40 10 106 19 161 19c202 0 246 -90 246 -226c0 -151 -156 -274 -269 -339h234
c49 0 67 -20 67 -57z" />
    <glyph glyph-name="three.prop" horiz-adv-x="585" 
d="M533 210c0 -134 -76 -222 -272 -222c-73 0 -151 10 -192 20c-26 6 -43 24 -43 54c0 32 18 51 49 51s89 -14 149 -14c119 0 157 47 157 111c0 71 -37 115 -116 115c-18 0 -46 -5 -68 -5c-33 0 -48 15 -48 39c0 22 12 39 40 65l146 135h-218c-49 0 -67 20 -67 55
c0 34 18 54 67 54h333c49 0 68 -19 68 -53c0 -28 -22 -54 -51 -80l-142 -126c148 0 208 -66 208 -199z" />
    <glyph glyph-name="four.prop" horiz-adv-x="615" 
d="M547 334v-281c0 -41 -22 -62 -73 -62s-71 21 -71 62v88h-311c-49 0 -68 20 -68 55c0 23 16 55 36 80c47 62 137 216 178 336c14 40 37 65 87 65c48 0 62 -24 62 -61c0 -67 -126 -290 -205 -371h221v89c0 41 21 62 72 62s72 -21 72 -62z" />
    <glyph glyph-name="five.prop" horiz-adv-x="598" 
d="M541 211c0 -137 -76 -223 -272 -223c-68 0 -145 10 -186 20c-26 6 -43 24 -43 54c0 32 18 51 49 51s88 -14 142 -14c119 0 158 48 158 110c0 71 -36 116 -158 116c-41 0 -92 -14 -119 -14c-29 0 -42 17 -42 47v257c0 34 18 53 67 53h319c49 0 67 -20 67 -54
c0 -35 -18 -55 -67 -55h-253v-145c12 3 63 10 108 10c169 0 230 -82 230 -213z" />
    <glyph glyph-name="six.prop" horiz-adv-x="619" 
d="M576 221c0 -160 -95 -233 -273 -233c-180 0 -260 73 -260 233c0 101 52 194 207 403c28 38 59 53 115 53c41 0 57 -12 57 -35c0 -11 -13 -31 -23 -45l-138 -186c15 12 62 28 104 28c149 0 211 -83 211 -218zM424 221c0 56 -28 120 -118 120c-95 0 -117 -64 -117 -120
c0 -65 25 -127 117 -127c93 0 118 61 118 127z" />
    <glyph glyph-name="seven.prop" horiz-adv-x="548" 
d="M516 616c0 -21 -6 -44 -21 -75c-70 -151 -153 -367 -182 -485c-10 -41 -38 -65 -91 -65c-49 0 -67 19 -67 49c0 63 135 390 209 519h-203v-48c0 -39 -22 -62 -67 -62s-62 23 -62 62v103c0 34 19 54 68 54h349c49 0 67 -18 67 -52z" />
    <glyph glyph-name="eight.prop" horiz-adv-x="635" 
d="M587 182c0 -123 -92 -194 -272 -194s-266 71 -266 194c0 85 58 142 150 156c-76 13 -122 68 -122 153c0 121 95 189 244 189c150 0 238 -68 238 -189c0 -80 -54 -127 -122 -139c98 -17 150 -73 150 -170zM421 483c0 43 -24 92 -103 92s-104 -50 -104 -92
c0 -57 35 -94 104 -94s103 38 103 94zM434 200c0 63 -44 95 -116 95c-73 0 -117 -31 -117 -95c0 -53 23 -107 117 -107c95 0 116 54 116 107z" />
    <glyph glyph-name="nine.prop" horiz-adv-x="619" 
d="M576 462c0 -108 -74 -227 -208 -418c-26 -38 -60 -53 -116 -53c-41 0 -58 11 -58 34c0 11 13 32 23 46l141 199c-15 -12 -61 -27 -103 -27c-142 0 -212 87 -212 219c0 137 95 218 273 218c180 0 260 -79 260 -218zM430 464c0 50 -25 110 -117 110
c-93 0 -118 -62 -118 -112c0 -56 26 -121 118 -121c95 0 117 67 117 123z" />
    <glyph glyph-name="arrowleft" unicode="&#x2190;" horiz-adv-x="1000" 
d="M855 340c0 -38 -21 -61 -74 -61h-401l113 -109c20 -19 29 -37 29 -54c0 -28 -31 -59 -59 -59c-17 0 -35 9 -54 28l-216 216c-12 12 -18 24 -18 39s9 30 20 41l214 214c20 20 38 29 55 29c28 0 58 -32 58 -60c0 -17 -9 -33 -29 -53l-113 -109h401c53 0 74 -24 74 -62z" />
    <glyph glyph-name="arrowup" unicode="&#x2191;" horiz-adv-x="1000" 
d="M784 382c0 -28 -32 -58 -60 -58c-17 0 -33 9 -53 29l-109 113v-401c0 -53 -24 -74 -62 -74s-61 21 -61 74v401l-109 -113c-19 -20 -37 -29 -54 -29c-28 0 -59 31 -59 59c0 17 9 35 28 54l216 216c12 12 24 18 39 18s30 -9 41 -20l214 -214c20 -20 29 -38 29 -55z" />
    <glyph glyph-name="arrowright" unicode="&#x2192;" horiz-adv-x="1000" 
d="M825 340c0 -15 -9 -30 -20 -41l-214 -214c-20 -20 -38 -29 -55 -29c-28 0 -58 32 -58 60c0 17 9 33 29 53l113 109h-401c-53 0 -74 24 -74 62s21 61 74 61h401l-113 109c-20 19 -29 37 -29 54c0 28 31 59 59 59c17 0 35 -9 54 -28l216 -216c12 -12 18 -24 18 -39z" />
    <glyph glyph-name="arrowdown" unicode="&#x2193;" horiz-adv-x="1000" 
d="M783 297c0 -17 -9 -35 -28 -54l-216 -216c-12 -12 -24 -18 -39 -18s-30 9 -41 20l-214 214c-20 20 -29 38 -29 55c0 28 32 58 60 58c17 0 33 -9 53 -29l109 -113v401c0 53 24 74 62 74s61 -21 61 -74v-401l109 113c19 20 37 29 54 29c28 0 59 -31 59 -59z" />
    <glyph glyph-name="arrowupleft" unicode="&#x2196;" horiz-adv-x="1000" 
d="M749 134c0 -29 -31 -61 -60 -61c-17 0 -35 10 -55 30l-284 283l3 -158c1 -43 -14 -73 -59 -73c-36 0 -60 20 -60 73v305c0 17 4 30 15 41s26 15 42 15h303c53 0 74 -24 74 -60c0 -45 -32 -61 -74 -60l-157 3l284 -283c20 -20 28 -38 28 -55z" />
    <glyph glyph-name="arrowupright" unicode="&#x2197;" horiz-adv-x="1000" 
d="M767 531v-303c0 -53 -24 -73 -60 -73c-45 0 -60 30 -59 73l2 158l-284 -284c-20 -20 -37 -29 -54 -29c-29 0 -61 32 -61 61c0 17 9 35 29 55l284 283l-158 -2c-43 -1 -73 14 -73 59c0 36 20 60 73 60h304c17 0 30 -4 41 -15s16 -27 16 -43z" />
    <glyph glyph-name="arrowdownright" unicode="&#x2198;" horiz-adv-x="1000" 
d="M767 452v-305c0 -17 -4 -30 -15 -41s-26 -15 -42 -15h-303c-53 0 -74 24 -74 60c0 45 32 61 74 60l157 -3l-284 283c-20 20 -28 38 -28 55c0 29 31 61 60 61c17 0 35 -10 55 -30l284 -283l-3 158c-1 43 14 73 59 73c36 0 60 -20 60 -73z" />
    <glyph glyph-name="arrowdownleft" unicode="&#x2199;" horiz-adv-x="1000" 
d="M761 546c0 -17 -9 -35 -29 -55l-284 -283l158 3c43 1 73 -15 73 -60c0 -36 -20 -60 -73 -60h-304c-17 0 -31 4 -42 15s-15 27 -15 43l1 303c0 53 24 73 60 73c45 0 60 -31 59 -73l-3 -158l283 284c20 20 38 29 55 29c29 0 61 -32 61 -61z" />
    <glyph glyph-name="florin" unicode="&#x192;" horiz-adv-x="500" 
d="M491 683l-6 -67c-5 2 -38 10 -59 10c-51 0 -71 -23 -86 -87l-16 -70h105v-69h-120l-59 -268c-20 -93 -55 -144 -169 -144c-37 0 -66 10 -72 10l6 66c5 -2 37 -10 58 -10c51 0 72 22 87 88l90 407c21 93 54 143 168 143c37 0 67 -9 73 -9z" />
    <glyph glyph-name="l.alt01" horiz-adv-x="316" 
d="M299 49c0 -31 -17 -48 -45 -54c-11 -2 -36 -4 -56 -4c-111 0 -131 59 -131 153v526c0 40 18 63 72 63s74 -23 74 -63v-512c0 -45 11 -53 35 -53c26 0 51 -19 51 -56z" />
    <glyph glyph-name="lacute.alt01" horiz-adv-x="316" 
d="M255 876c0 -10 -8 -23 -18 -35l-53 -65c-16 -20 -39 -31 -76 -31c-24 0 -34 9 -34 24c0 10 5 22 13 36l39 63c10 17 34 33 85 33c30 0 44 -10 44 -25zM299 49c0 -31 -17 -48 -45 -54c-11 -2 -36 -4 -56 -4c-111 0 -131 59 -131 153v526c0 40 18 63 72 63s74 -23 74 -63
v-512c0 -45 11 -53 35 -53c26 0 51 -19 51 -56z" />
    <glyph glyph-name="lcommaaccent.alt01" horiz-adv-x="316" 
d="M299 49c0 -31 -17 -48 -45 -54c-11 -2 -36 -4 -56 -4c-111 0 -131 59 -131 153v526c0 40 18 63 72 63s74 -23 74 -63v-512c0 -45 11 -53 35 -53c26 0 51 -19 51 -56zM257 -86c0 -23 -24 -54 -79 -120c-9 -11 -23 -15 -39 -15c-13 0 -19 5 -19 12c0 4 2 8 5 11l51 67
c-56 0 -80 16 -80 45c0 27 23 44 80 44s81 -17 81 -44z" />
    <glyph glyph-name="lcaron.alt01" horiz-adv-x="416" 
d="M409 700c0 -7 -5 -17 -10 -27l-33 -65c-12 -23 -37 -31 -71 -31c-28 0 -40 14 -40 34c0 8 2 16 5 26l18 57c7 23 28 39 79 39c30 0 52 -12 52 -33zM299 49c0 -31 -17 -48 -45 -54c-11 -2 -36 -4 -56 -4c-111 0 -131 59 -131 153v526c0 40 18 63 72 63s74 -23 74 -63v-512
c0 -45 11 -53 35 -53c26 0 51 -19 51 -56z" />
    <glyph glyph-name="ldot.alt01" horiz-adv-x="429" 
d="M419 347c0 -48 -22 -75 -86 -75s-84 27 -84 75c0 46 23 72 85 72s85 -26 85 -72zM299 49c0 -31 -17 -48 -45 -54c-11 -2 -36 -4 -56 -4c-111 0 -131 59 -131 153v526c0 40 18 63 72 63s74 -23 74 -63v-512c0 -45 11 -53 35 -53c26 0 51 -19 51 -56z" />
    <glyph glyph-name="lslash.alt01" horiz-adv-x="316" 
d="M299 49c0 -31 -17 -48 -45 -54c-11 -2 -36 -4 -56 -4c-111 0 -131 59 -131 153v97l-12 -7c-9 -5 -22 -10 -34 -10c-19 0 -27 15 -27 47c0 40 21 66 47 81l26 15v303c0 40 18 63 72 63s74 -23 74 -63v-218l12 7c9 5 21 10 34 10c19 0 28 -15 28 -47c0 -40 -21 -66 -47 -81
l-27 -15v-168c0 -45 11 -53 35 -53c26 0 51 -19 51 -56z" />
    <glyph glyph-name="f_l.alt01" horiz-adv-x="681" 
d="M664 49c0 -31 -17 -48 -45 -54c-11 -2 -36 -4 -56 -4c-111 0 -131 59 -131 153v262h-219v-352c0 -40 -20 -63 -74 -63s-72 23 -72 63v476c0 112 26 206 190 206c23 0 63 -3 73 -5c28 -6 45 -20 45 -50c0 -36 -25 -53 -51 -53c-7 0 -36 2 -46 2c-53 0 -65 -36 -65 -88v-30
h219v158c0 40 19 63 73 63s74 -23 74 -63v-512c0 -45 10 -53 34 -53c26 0 51 -19 51 -56z" />
    <glyph glyph-name="f_f_l.alt01" horiz-adv-x="1039" 
d="M1022 49c0 -31 -17 -48 -45 -54c-11 -2 -36 -4 -56 -4c-111 0 -131 59 -131 153v262h-224v-352c0 -40 -20 -63 -74 -63s-72 23 -72 63v352h-207v-352c0 -40 -20 -63 -74 -63s-72 23 -72 63v476c0 112 26 206 190 206c23 0 63 -3 73 -5c28 -6 45 -20 45 -50
c0 -36 -25 -53 -51 -53c-7 0 -36 2 -46 2c-53 0 -65 -36 -65 -88v-30h207v24c0 112 26 200 190 200c23 0 63 -3 73 -5c28 -6 44 -20 44 -50c0 -36 -24 -53 -50 -53c-7 0 -36 2 -46 2c-53 0 -65 -36 -65 -88v-30h224v158c0 40 18 63 72 63s74 -23 74 -63v-512
c0 -45 11 -53 35 -53c26 0 51 -19 51 -56z" />
    <glyph glyph-name="zero.slashed" horiz-adv-x="616" 
d="M577 341c0 -234 -68 -353 -272 -353c-203 0 -266 120 -266 353c0 224 73 339 272 339s266 -115 266 -339zM196 335l215 134c-12 58 -40 100 -103 100c-96 0 -113 -97 -113 -202c0 -10 1 -22 1 -32zM420 324c0 12 1 25 0 36l-219 -136c10 -71 37 -125 107 -125
c100 0 112 109 112 225z" />
    <glyph glyph-name="zero.slashed.prop" horiz-adv-x="645" 
d="M591 341c0 -234 -67 -353 -271 -353c-203 0 -266 120 -266 353c0 224 73 339 272 339s265 -115 265 -339zM210 335l216 134c-12 58 -40 100 -103 100c-96 0 -113 -97 -113 -202v-32zM435 324c0 12 0 25 -1 36l-218 -136c10 -71 37 -125 107 -125c100 0 112 109 112 225z
" />
    <glyph glyph-name="i.dot" 
d="M225 657c0 -48 -22 -75 -86 -75s-84 27 -84 75c0 46 24 72 86 72s84 -26 84 -72zM213 458v-404c0 -40 -20 -63 -74 -63s-72 23 -72 63v404c0 40 20 63 74 63s72 -23 72 -63z" />
    </font>
</defs>
</svg>
